# cable
mtllib cable.mtl
o cable
v 0.122015 -0.004000 0.321578
v 0.119365 -0.002828 0.322567
v 0.118268 -0.000000 0.322977
v 0.119365 0.002828 0.322567
v 0.122015 0.004000 0.321578
v 0.124665 0.002828 0.320589
v 0.125763 0.000000 0.320179
v 0.124665 -0.002828 0.320589
v 0.124233 -0.004000 0.327519
v 0.121639 -0.002828 0.328646
v 0.120564 -0.000000 0.329112
v 0.121639 0.002828 0.328646
v 0.124233 0.004000 0.327519
v 0.126828 0.002828 0.326393
v 0.127902 0.000000 0.325927
v 0.126828 -0.002828 0.326393
v 0.126812 -0.004000 0.332628
v 0.124369 -0.002828 0.334053
v 0.123357 -0.000000 0.334643
v 0.124369 0.002828 0.334053
v 0.126812 0.004000 0.332628
v 0.129255 0.002828 0.331203
v 0.130267 0.000000 0.330612
v 0.129255 -0.002828 0.331203
v 0.129720 -0.004000 0.336926
v 0.127492 -0.002828 0.338669
v 0.126570 -0.000000 0.339392
v 0.127492 0.002828 0.338669
v 0.129720 0.004000 0.336926
v 0.131947 0.002828 0.335183
v 0.132869 0.000000 0.334460
v 0.131947 -0.002828 0.335183
v 0.132926 -0.004000 0.340438
v 0.130992 -0.002828 0.342502
v 0.130191 -0.000000 0.343357
v 0.130992 0.002828 0.342502
v 0.132926 0.004000 0.340438
v 0.134860 0.002828 0.338374
v 0.135661 0.000000 0.337519
v 0.134860 -0.002828 0.338374
v 0.136401 -0.004000 0.343187
v 0.134840 -0.002828 0.345546
v 0.134194 -0.000000 0.346523
v 0.134840 0.002828 0.345546
v 0.136401 0.004000 0.343187
v 0.137961 0.002828 0.340828
v 0.138608 0.000000 0.339851
v 0.137961 -0.002828 0.340828
v 0.140118 -0.004000 0.345196
v 0.138996 -0.002828 0.347793
v 0.138532 -0.000000 0.348868
v 0.138996 0.002828 0.347793
v 0.140118 0.004000 0.345196
v 0.141239 0.002828 0.342599
v 0.141703 0.000000 0.341524
v 0.141239 -0.002828 0.342599
v 0.144050 -0.004000 0.346489
v 0.143402 -0.002828 0.349243
v 0.143134 -0.000000 0.350383
v 0.143402 0.002828 0.349243
v 0.144050 0.004000 0.346489
v 0.144698 0.002828 0.343736
v 0.144966 0.000000 0.342596
v 0.144698 -0.002828 0.343736
v 0.148173 -0.004000 0.347091
v 0.147993 -0.002828 0.349914
v 0.147919 -0.000000 0.351083
v 0.147993 0.002828 0.349914
v 0.148173 0.004000 0.347091
v 0.148352 0.002828 0.344268
v 0.148427 0.000000 0.343099
v 0.148352 -0.002828 0.344268
v 0.152463 -0.004000 0.347024
v 0.152714 -0.002828 0.349842
v 0.152818 -0.000000 0.351009
v 0.152714 0.002828 0.349842
v 0.152463 0.004000 0.347024
v 0.152212 0.002828 0.344207
v 0.152108 0.000000 0.343040
v 0.152212 -0.002828 0.344207
v 0.156899 -0.004000 0.346313
v 0.157525 -0.002828 0.349072
v 0.157784 -0.000000 0.350214
v 0.157525 0.002828 0.349072
v 0.156899 0.004000 0.346313
v 0.156273 0.002828 0.343555
v 0.156014 0.000000 0.342413
v 0.156273 -0.002828 0.343555
v 0.161459 -0.004000 0.344983
v 0.162401 -0.002828 0.347650
v 0.162791 -0.000000 0.348754
v 0.162401 0.002828 0.347650
v 0.161459 0.004000 0.344983
v 0.160518 0.002828 0.342316
v 0.160127 0.000000 0.341211
v 0.160518 -0.002828 0.342316
v 0.166125 -0.004000 0.343056
v 0.167328 -0.002828 0.345615
v 0.167826 -0.000000 0.346676
v 0.167328 0.002828 0.345615
v 0.166125 0.004000 0.343056
v 0.164922 0.002828 0.340496
v 0.164424 0.000000 0.339435
v 0.164922 -0.002828 0.340496
v 0.170877 -0.004000 0.340557
v 0.172295 -0.002828 0.343004
v 0.172882 -0.000000 0.344018
v 0.172295 0.002828 0.343004
v 0.170877 0.004000 0.340557
v 0.169460 0.002828 0.338109
v 0.168873 0.000000 0.337095
v 0.169460 -0.002828 0.338109
v 0.175700 -0.004000 0.337510
v 0.177294 -0.002828 0.339846
v 0.177954 -0.000000 0.340814
v 0.177294 0.002828 0.339846
v 0.175700 0.004000 0.337510
v 0.174106 0.002828 0.335173
v 0.173446 0.000000 0.334206
v 0.174106 -0.002828 0.335173
v 0.180577 -0.004000 0.333940
v 0.182316 -0.002828 0.336170
v 0.183037 -0.000000 0.337094
v 0.182316 0.002828 0.336170
v 0.180577 0.004000 0.333940
v 0.178837 0.002828 0.331710
v 0.178116 0.000000 0.330786
v 0.178837 -0.002828 0.331710
v 0.185493 -0.004000 0.329870
v 0.187354 -0.002828 0.332000
v 0.188125 -0.000000 0.332883
v 0.187354 0.002828 0.332000
v 0.185493 0.004000 0.329870
v 0.183631 0.002828 0.327741
v 0.182861 0.000000 0.326858
v 0.183631 -0.002828 0.327741
v 0.190434 -0.004000 0.325326
v 0.192397 -0.002828 0.327363
v 0.193210 -0.000000 0.328206
v 0.192397 0.002828 0.327363
v 0.190434 0.004000 0.325326
v 0.188471 0.002828 0.323290
v 0.187658 0.000000 0.322446
v 0.188471 -0.002828 0.323290
v 0.195389 -0.004000 0.320331
v 0.197438 -0.002828 0.322281
v 0.198287 -0.000000 0.323089
v 0.197438 0.002828 0.322281
v 0.195389 0.004000 0.320331
v 0.193340 0.002828 0.318381
v 0.192491 0.000000 0.317574
v 0.193340 -0.002828 0.318381
v 0.200346 -0.004000 0.314910
v 0.202468 -0.002828 0.316779
v 0.203347 -0.000000 0.317554
v 0.202468 0.002828 0.316779
v 0.200346 0.004000 0.314910
v 0.198223 0.002828 0.313040
v 0.197344 0.000000 0.312266
v 0.198223 -0.002828 0.313040
v 0.205293 -0.004000 0.309087
v 0.207479 -0.002828 0.310882
v 0.208384 -0.000000 0.311626
v 0.207479 0.002828 0.310882
v 0.205293 0.004000 0.309087
v 0.203108 0.002828 0.307291
v 0.202202 0.000000 0.306548
v 0.203108 -0.002828 0.307291
v 0.210222 -0.004000 0.302886
v 0.212463 -0.002828 0.304612
v 0.213391 -0.000000 0.305328
v 0.212463 0.002828 0.304612
v 0.210222 0.004000 0.302886
v 0.207982 0.002828 0.301159
v 0.207054 0.000000 0.300444
v 0.207982 -0.002828 0.301159
v 0.215124 -0.004000 0.296331
v 0.217412 -0.002828 0.297994
v 0.218360 -0.000000 0.298683
v 0.217412 0.002828 0.297994
v 0.215124 0.004000 0.296331
v 0.212836 0.002828 0.294668
v 0.211889 0.000000 0.293979
v 0.212836 -0.002828 0.294668
v 0.219991 -0.004000 0.289448
v 0.222320 -0.002828 0.291052
v 0.223285 -0.000000 0.291717
v 0.222320 0.002828 0.291052
v 0.219991 0.004000 0.289448
v 0.217661 0.002828 0.287844
v 0.216697 0.000000 0.287179
v 0.217661 -0.002828 0.287844
v 0.224816 -0.004000 0.282259
v 0.227182 -0.002828 0.283809
v 0.228162 -0.000000 0.284451
v 0.227182 0.002828 0.283809
v 0.224816 0.004000 0.282259
v 0.222449 0.002828 0.280710
v 0.221469 0.000000 0.280068
v 0.222449 -0.002828 0.280710
v 0.229592 -0.004000 0.274790
v 0.231990 -0.002828 0.276289
v 0.232984 -0.000000 0.276910
v 0.231990 0.002828 0.276289
v 0.229592 0.004000 0.274790
v 0.227194 0.002828 0.273291
v 0.226200 0.000000 0.272670
v 0.227194 -0.002828 0.273291
v 0.234315 -0.004000 0.267064
v 0.236742 -0.002828 0.268517
v 0.237747 -0.000000 0.269118
v 0.236742 0.002828 0.268517
v 0.234315 0.004000 0.267064
v 0.231888 0.002828 0.265612
v 0.230882 0.000000 0.265010
v 0.231888 -0.002828 0.265612
v 0.238979 -0.004000 0.259106
v 0.241432 -0.002828 0.260515
v 0.242447 -0.000000 0.261099
v 0.241432 0.002828 0.260515
v 0.238979 0.004000 0.259106
v 0.236527 0.002828 0.257696
v 0.235511 0.000000 0.257113
v 0.236527 -0.002828 0.257696
v 0.243582 -0.004000 0.250939
v 0.246056 -0.002828 0.252308
v 0.247082 -0.000000 0.252875
v 0.246056 0.002828 0.252308
v 0.243582 0.004000 0.250939
v 0.241107 0.002828 0.249569
v 0.240081 0.000000 0.249002
v 0.241107 -0.002828 0.249569
v 0.248118 -0.004000 0.242587
v 0.250613 -0.002828 0.243920
v 0.251647 -0.000000 0.244471
v 0.250613 0.002828 0.243920
v 0.248118 0.004000 0.242587
v 0.245623 0.002828 0.241255
v 0.244590 0.000000 0.240703
v 0.245623 -0.002828 0.241255
v 0.252587 -0.004000 0.234075
v 0.255100 -0.002828 0.235373
v 0.256141 -0.000000 0.235911
v 0.255100 0.002828 0.235373
v 0.252587 0.004000 0.234075
v 0.250074 0.002828 0.232776
v 0.249033 0.000000 0.232239
v 0.250074 -0.002828 0.232776
v 0.256986 -0.004000 0.225425
v 0.259514 -0.002828 0.226693
v 0.260562 -0.000000 0.227218
v 0.259514 0.002828 0.226693
v 0.256986 0.004000 0.225425
v 0.254457 0.002828 0.224158
v 0.253409 0.000000 0.223633
v 0.254457 -0.002828 0.224158
v 0.261312 -0.004000 0.216663
v 0.263855 -0.002828 0.217902
v 0.264908 -0.000000 0.218415
v 0.263855 0.002828 0.217902
v 0.261312 0.004000 0.216663
v 0.258770 0.002828 0.215424
v 0.257716 0.000000 0.214911
v 0.258770 -0.002828 0.215424
v 0.265567 -0.004000 0.207810
v 0.268122 -0.002828 0.209023
v 0.269180 -0.000000 0.209526
v 0.268122 0.002828 0.209023
v 0.265567 0.004000 0.207810
v 0.263011 0.002828 0.206598
v 0.261953 0.000000 0.206095
v 0.263011 -0.002828 0.206598
v 0.269748 -0.004000 0.198892
v 0.272314 -0.002828 0.200081
v 0.273377 -0.000000 0.200574
v 0.272314 0.002828 0.200081
v 0.269748 0.004000 0.198892
v 0.267182 0.002828 0.197702
v 0.266119 0.000000 0.197209
v 0.267182 -0.002828 0.197702
v 0.273856 -0.004000 0.189930
v 0.276431 -0.002828 0.191099
v 0.277498 -0.000000 0.191583
v 0.276431 0.002828 0.191099
v 0.273856 0.004000 0.189930
v 0.271280 0.002828 0.188761
v 0.270213 0.000000 0.188277
v 0.271280 -0.002828 0.188761
v 0.277891 -0.004000 0.180948
v 0.280475 -0.002828 0.182099
v 0.281545 -0.000000 0.182576
v 0.280475 0.002828 0.182099
v 0.277891 0.004000 0.180948
v 0.275308 0.002828 0.179797
v 0.274237 0.000000 0.179321
v 0.275308 -0.002828 0.179797
v 0.281855 -0.004000 0.171970
v 0.284446 -0.002828 0.173105
v 0.285519 -0.000000 0.173575
v 0.284446 0.002828 0.173105
v 0.281855 0.004000 0.171970
v 0.279264 0.002828 0.170835
v 0.278191 0.000000 0.170364
v 0.279264 -0.002828 0.170835
v 0.285748 -0.004000 0.163018
v 0.288344 -0.002828 0.164140
v 0.289420 -0.000000 0.164604
v 0.288344 0.002828 0.164140
v 0.285748 0.004000 0.163018
v 0.283151 0.002828 0.161895
v 0.282076 0.000000 0.161431
v 0.283151 -0.002828 0.161895
v 0.289571 -0.004000 0.154114
v 0.292172 -0.002828 0.155226
v 0.293250 -0.000000 0.155686
v 0.292172 0.002828 0.155226
v 0.289571 0.004000 0.154114
v 0.286971 0.002828 0.153003
v 0.285893 0.000000 0.152542
v 0.286971 -0.002828 0.153003
v 0.293328 -0.004000 0.145282
v 0.295932 -0.002828 0.146386
v 0.297010 -0.000000 0.146843
v 0.295932 0.002828 0.146386
v 0.293328 0.004000 0.145282
v 0.290723 0.002828 0.144178
v 0.289645 0.000000 0.143721
v 0.290723 -0.002828 0.144178
v 0.297018 -0.004000 0.136544
v 0.299625 -0.002828 0.137643
v 0.300704 -0.000000 0.138098
v 0.299625 0.002828 0.137643
v 0.297018 0.004000 0.136544
v 0.294412 0.002828 0.135445
v 0.293333 0.000000 0.134990
v 0.294412 -0.002828 0.135445
v 0.300646 -0.004000 0.127922
v 0.303253 -0.002828 0.129019
v 0.304333 -0.000000 0.129473
v 0.303253 0.002828 0.129019
v 0.300646 0.004000 0.127922
v 0.298039 0.002828 0.126825
v 0.296959 0.000000 0.126371
v 0.298039 -0.002828 0.126825
v 0.304213 -0.004000 0.119438
v 0.306819 -0.002828 0.120535
v 0.307899 -0.000000 0.120990
v 0.306819 0.002828 0.120535
v 0.304213 0.004000 0.119438
v 0.301606 0.002828 0.118341
v 0.300526 0.000000 0.117886
v 0.301606 -0.002828 0.118341
v 0.307721 -0.004000 0.111114
v 0.310326 -0.002828 0.112216
v 0.311405 -0.000000 0.112672
v 0.310326 0.002828 0.112216
v 0.307721 0.004000 0.111114
v 0.305116 0.002828 0.110013
v 0.304037 0.000000 0.109557
v 0.305116 -0.002828 0.110013
v 0.311173 -0.004000 0.102972
v 0.313776 -0.002828 0.104081
v 0.314853 -0.000000 0.104540
v 0.313776 0.002828 0.104081
v 0.311173 0.004000 0.102972
v 0.308571 0.002828 0.101863
v 0.307494 0.000000 0.101404
v 0.308571 -0.002828 0.101863
v 0.314573 -0.004000 0.095033
v 0.317170 -0.002828 0.096152
v 0.318246 -0.000000 0.096616
v 0.317170 0.002828 0.096152
v 0.314573 0.004000 0.095033
v 0.311976 0.002828 0.093913
v 0.310900 0.000000 0.093449
v 0.311976 -0.002828 0.093913
v 0.317922 -0.004000 0.087318
v 0.320513 -0.002828 0.088452
v 0.321586 -0.000000 0.088922
v 0.320513 0.002828 0.088452
v 0.317922 0.004000 0.087318
v 0.315332 0.002828 0.086183
v 0.314259 0.000000 0.085713
v 0.315332 -0.002828 0.086183
v 0.321224 -0.004000 0.079848
v 0.323806 -0.002828 0.081002
v 0.324876 -0.000000 0.081480
v 0.323806 0.002828 0.081002
v 0.321224 0.004000 0.079848
v 0.318642 0.002828 0.078694
v 0.317572 0.000000 0.078216
v 0.318642 -0.002828 0.078694
v 0.324481 -0.004000 0.072644
v 0.327053 -0.002828 0.073822
v 0.328118 -0.000000 0.074311
v 0.327053 0.002828 0.073822
v 0.324481 0.004000 0.072644
v 0.321910 0.002828 0.071466
v 0.320845 0.000000 0.070977
v 0.321910 -0.002828 0.071466
v 0.327696 -0.004000 0.065727
v 0.330254 -0.002828 0.066935
v 0.331313 -0.000000 0.067435
v 0.330254 0.002828 0.066935
v 0.327696 0.004000 0.065727
v 0.325139 0.002828 0.064519
v 0.324079 0.000000 0.064018
v 0.325139 -0.002828 0.064519
v 0.330871 -0.004000 0.059116
v 0.333412 -0.002828 0.060360
v 0.334464 -0.000000 0.060875
v 0.333412 0.002828 0.060360
v 0.330871 0.004000 0.059116
v 0.328331 0.002828 0.057872
v 0.327279 0.000000 0.057357
v 0.328331 -0.002828 0.057872
v 0.334009 -0.004000 0.052832
v 0.336528 -0.002828 0.054118
v 0.337571 -0.000000 0.054651
v 0.336528 0.002828 0.054118
v 0.334009 0.004000 0.052832
v 0.331490 0.002828 0.051546
v 0.330447 0.000000 0.051013
v 0.331490 -0.002828 0.051546
v 0.337112 -0.004000 0.046894
v 0.339604 -0.002828 0.048231
v 0.340637 -0.000000 0.048785
v 0.339604 0.002828 0.048231
v 0.337112 0.004000 0.046894
v 0.334619 0.002828 0.045558
v 0.333587 0.000000 0.045004
v 0.334619 -0.002828 0.045558
v 0.340181 -0.004000 0.041323
v 0.342641 -0.002828 0.042719
v 0.343660 -0.000000 0.043298
v 0.342641 0.002828 0.042719
v 0.340181 0.004000 0.041323
v 0.337722 0.002828 0.039926
v 0.336703 0.000000 0.039348
v 0.337722 -0.002828 0.039926
v 0.343220 -0.004000 0.036136
v 0.345638 -0.002828 0.037603
v 0.346640 -0.000000 0.038210
v 0.345638 0.002828 0.037603
v 0.343220 0.004000 0.036136
v 0.340801 0.002828 0.034669
v 0.339800 0.000000 0.034062
v 0.340801 -0.002828 0.034669
v 0.346228 -0.004000 0.031353
v 0.348594 -0.002828 0.032903
v 0.349574 -0.000000 0.033544
v 0.348594 0.002828 0.032903
v 0.346228 0.004000 0.031353
v 0.343862 0.002828 0.029803
v 0.342882 0.000000 0.029162
v 0.343862 -0.002828 0.029803
v 0.349208 -0.004000 0.026993
v 0.351507 -0.002828 0.028640
v 0.352460 -0.000000 0.029322
v 0.351507 0.002828 0.028640
v 0.349208 0.004000 0.026993
v 0.346908 0.002828 0.025345
v 0.345956 0.000000 0.024663
v 0.346908 -0.002828 0.025345
v 0.352159 -0.004000 0.023073
v 0.354372 -0.002828 0.024834
v 0.355289 -0.000000 0.025564
v 0.354372 0.002828 0.024834
v 0.352159 0.004000 0.023073
v 0.349946 0.002828 0.021311
v 0.349030 0.000000 0.020581
v 0.349946 -0.002828 0.021311
v 0.355083 -0.004000 0.019611
v 0.357244 -0.002828 0.021437
v 0.358139 -0.000000 0.022193
v 0.357244 0.002828 0.021437
v 0.355083 0.004000 0.019611
v 0.352923 0.002828 0.017786
v 0.352028 0.000000 0.017030
v 0.352923 -0.002828 0.017786
usemtl cable_gray
f 1 9 10
f 1 10 2
f 2 10 11
f 2 11 3
f 3 11 12
f 3 12 4
f 4 12 13
f 4 13 5
f 5 13 14
f 5 14 6
f 6 14 15
f 6 15 7
f 7 15 16
f 7 16 8
f 8 16 9
f 8 9 1
f 9 17 18
f 9 18 10
f 10 18 19
f 10 19 11
f 11 19 20
f 11 20 12
f 12 20 21
f 12 21 13
f 13 21 22
f 13 22 14
f 14 22 23
f 14 23 15
f 15 23 24
f 15 24 16
f 16 24 17
f 16 17 9
f 17 25 26
f 17 26 18
f 18 26 27
f 18 27 19
f 19 27 28
f 19 28 20
f 20 28 29
f 20 29 21
f 21 29 30
f 21 30 22
f 22 30 31
f 22 31 23
f 23 31 32
f 23 32 24
f 24 32 25
f 24 25 17
f 25 33 34
f 25 34 26
f 26 34 35
f 26 35 27
f 27 35 36
f 27 36 28
f 28 36 37
f 28 37 29
f 29 37 38
f 29 38 30
f 30 38 39
f 30 39 31
f 31 39 40
f 31 40 32
f 32 40 33
f 32 33 25
f 33 41 42
f 33 42 34
f 34 42 43
f 34 43 35
f 35 43 44
f 35 44 36
f 36 44 45
f 36 45 37
f 37 45 46
f 37 46 38
f 38 46 47
f 38 47 39
f 39 47 48
f 39 48 40
f 40 48 41
f 40 41 33
f 41 49 50
f 41 50 42
f 42 50 51
f 42 51 43
f 43 51 52
f 43 52 44
f 44 52 53
f 44 53 45
f 45 53 54
f 45 54 46
f 46 54 55
f 46 55 47
f 47 55 56
f 47 56 48
f 48 56 49
f 48 49 41
f 49 57 58
f 49 58 50
f 50 58 59
f 50 59 51
f 51 59 60
f 51 60 52
f 52 60 61
f 52 61 53
f 53 61 62
f 53 62 54
f 54 62 63
f 54 63 55
f 55 63 64
f 55 64 56
f 56 64 57
f 56 57 49
f 57 65 66
f 57 66 58
f 58 66 67
f 58 67 59
f 59 67 68
f 59 68 60
f 60 68 69
f 60 69 61
f 61 69 70
f 61 70 62
f 62 70 71
f 62 71 63
f 63 71 72
f 63 72 64
f 64 72 65
f 64 65 57
f 65 73 74
f 65 74 66
f 66 74 75
f 66 75 67
f 67 75 76
f 67 76 68
f 68 76 77
f 68 77 69
f 69 77 78
f 69 78 70
f 70 78 79
f 70 79 71
f 71 79 80
f 71 80 72
f 72 80 73
f 72 73 65
f 73 81 82
f 73 82 74
f 74 82 83
f 74 83 75
f 75 83 84
f 75 84 76
f 76 84 85
f 76 85 77
f 77 85 86
f 77 86 78
f 78 86 87
f 78 87 79
f 79 87 88
f 79 88 80
f 80 88 81
f 80 81 73
f 81 89 90
f 81 90 82
f 82 90 91
f 82 91 83
f 83 91 92
f 83 92 84
f 84 92 93
f 84 93 85
f 85 93 94
f 85 94 86
f 86 94 95
f 86 95 87
f 87 95 96
f 87 96 88
f 88 96 89
f 88 89 81
f 89 97 98
f 89 98 90
f 90 98 99
f 90 99 91
f 91 99 100
f 91 100 92
f 92 100 101
f 92 101 93
f 93 101 102
f 93 102 94
f 94 102 103
f 94 103 95
f 95 103 104
f 95 104 96
f 96 104 97
f 96 97 89
f 97 105 106
f 97 106 98
f 98 106 107
f 98 107 99
f 99 107 108
f 99 108 100
f 100 108 109
f 100 109 101
f 101 109 110
f 101 110 102
f 102 110 111
f 102 111 103
f 103 111 112
f 103 112 104
f 104 112 105
f 104 105 97
f 105 113 114
f 105 114 106
f 106 114 115
f 106 115 107
f 107 115 116
f 107 116 108
f 108 116 117
f 108 117 109
f 109 117 118
f 109 118 110
f 110 118 119
f 110 119 111
f 111 119 120
f 111 120 112
f 112 120 113
f 112 113 105
f 113 121 122
f 113 122 114
f 114 122 123
f 114 123 115
f 115 123 124
f 115 124 116
f 116 124 125
f 116 125 117
f 117 125 126
f 117 126 118
f 118 126 127
f 118 127 119
f 119 127 128
f 119 128 120
f 120 128 121
f 120 121 113
f 121 129 130
f 121 130 122
f 122 130 131
f 122 131 123
f 123 131 132
f 123 132 124
f 124 132 133
f 124 133 125
f 125 133 134
f 125 134 126
f 126 134 135
f 126 135 127
f 127 135 136
f 127 136 128
f 128 136 129
f 128 129 121
f 129 137 138
f 129 138 130
f 130 138 139
f 130 139 131
f 131 139 140
f 131 140 132
f 132 140 141
f 132 141 133
f 133 141 142
f 133 142 134
f 134 142 143
f 134 143 135
f 135 143 144
f 135 144 136
f 136 144 137
f 136 137 129
f 137 145 146
f 137 146 138
f 138 146 147
f 138 147 139
f 139 147 148
f 139 148 140
f 140 148 149
f 140 149 141
f 141 149 150
f 141 150 142
f 142 150 151
f 142 151 143
f 143 151 152
f 143 152 144
f 144 152 145
f 144 145 137
f 145 153 154
f 145 154 146
f 146 154 155
f 146 155 147
f 147 155 156
f 147 156 148
f 148 156 157
f 148 157 149
f 149 157 158
f 149 158 150
f 150 158 159
f 150 159 151
f 151 159 160
f 151 160 152
f 152 160 153
f 152 153 145
f 153 161 162
f 153 162 154
f 154 162 163
f 154 163 155
f 155 163 164
f 155 164 156
f 156 164 165
f 156 165 157
f 157 165 166
f 157 166 158
f 158 166 167
f 158 167 159
f 159 167 168
f 159 168 160
f 160 168 161
f 160 161 153
f 161 169 170
f 161 170 162
f 162 170 171
f 162 171 163
f 163 171 172
f 163 172 164
f 164 172 173
f 164 173 165
f 165 173 174
f 165 174 166
f 166 174 175
f 166 175 167
f 167 175 176
f 167 176 168
f 168 176 169
f 168 169 161
f 169 177 178
f 169 178 170
f 170 178 179
f 170 179 171
f 171 179 180
f 171 180 172
f 172 180 181
f 172 181 173
f 173 181 182
f 173 182 174
f 174 182 183
f 174 183 175
f 175 183 184
f 175 184 176
f 176 184 177
f 176 177 169
f 177 185 186
f 177 186 178
f 178 186 187
f 178 187 179
f 179 187 188
f 179 188 180
f 180 188 189
f 180 189 181
f 181 189 190
f 181 190 182
f 182 190 191
f 182 191 183
f 183 191 192
f 183 192 184
f 184 192 185
f 184 185 177
f 185 193 194
f 185 194 186
f 186 194 195
f 186 195 187
f 187 195 196
f 187 196 188
f 188 196 197
f 188 197 189
f 189 197 198
f 189 198 190
f 190 198 199
f 190 199 191
f 191 199 200
f 191 200 192
f 192 200 193
f 192 193 185
f 193 201 202
f 193 202 194
f 194 202 203
f 194 203 195
f 195 203 204
f 195 204 196
f 196 204 205
f 196 205 197
f 197 205 206
f 197 206 198
f 198 206 207
f 198 207 199
f 199 207 208
f 199 208 200
f 200 208 201
f 200 201 193
f 201 209 210
f 201 210 202
f 202 210 211
f 202 211 203
f 203 211 212
f 203 212 204
f 204 212 213
f 204 213 205
f 205 213 214
f 205 214 206
f 206 214 215
f 206 215 207
f 207 215 216
f 207 216 208
f 208 216 209
f 208 209 201
f 209 217 218
f 209 218 210
f 210 218 219
f 210 219 211
f 211 219 220
f 211 220 212
f 212 220 221
f 212 221 213
f 213 221 222
f 213 222 214
f 214 222 223
f 214 223 215
f 215 223 224
f 215 224 216
f 216 224 217
f 216 217 209
f 217 225 226
f 217 226 218
f 218 226 227
f 218 227 219
f 219 227 228
f 219 228 220
f 220 228 229
f 220 229 221
f 221 229 230
f 221 230 222
f 222 230 231
f 222 231 223
f 223 231 232
f 223 232 224
f 224 232 225
f 224 225 217
f 225 233 234
f 225 234 226
f 226 234 235
f 226 235 227
f 227 235 236
f 227 236 228
f 228 236 237
f 228 237 229
f 229 237 238
f 229 238 230
f 230 238 239
f 230 239 231
f 231 239 240
f 231 240 232
f 232 240 233
f 232 233 225
f 233 241 242
f 233 242 234
f 234 242 243
f 234 243 235
f 235 243 244
f 235 244 236
f 236 244 245
f 236 245 237
f 237 245 246
f 237 246 238
f 238 246 247
f 238 247 239
f 239 247 248
f 239 248 240
f 240 248 241
f 240 241 233
f 241 249 250
f 241 250 242
f 242 250 251
f 242 251 243
f 243 251 252
f 243 252 244
f 244 252 253
f 244 253 245
f 245 253 254
f 245 254 246
f 246 254 255
f 246 255 247
f 247 255 256
f 247 256 248
f 248 256 249
f 248 249 241
f 249 257 258
f 249 258 250
f 250 258 259
f 250 259 251
f 251 259 260
f 251 260 252
f 252 260 261
f 252 261 253
f 253 261 262
f 253 262 254
f 254 262 263
f 254 263 255
f 255 263 264
f 255 264 256
f 256 264 257
f 256 257 249
f 257 265 266
f 257 266 258
f 258 266 267
f 258 267 259
f 259 267 268
f 259 268 260
f 260 268 269
f 260 269 261
f 261 269 270
f 261 270 262
f 262 270 271
f 262 271 263
f 263 271 272
f 263 272 264
f 264 272 265
f 264 265 257
f 265 273 274
f 265 274 266
f 266 274 275
f 266 275 267
f 267 275 276
f 267 276 268
f 268 276 277
f 268 277 269
f 269 277 278
f 269 278 270
f 270 278 279
f 270 279 271
f 271 279 280
f 271 280 272
f 272 280 273
f 272 273 265
f 273 281 282
f 273 282 274
f 274 282 283
f 274 283 275
f 275 283 284
f 275 284 276
f 276 284 285
f 276 285 277
f 277 285 286
f 277 286 278
f 278 286 287
f 278 287 279
f 279 287 288
f 279 288 280
f 280 288 281
f 280 281 273
f 281 289 290
f 281 290 282
f 282 290 291
f 282 291 283
f 283 291 292
f 283 292 284
f 284 292 293
f 284 293 285
f 285 293 294
f 285 294 286
f 286 294 295
f 286 295 287
f 287 295 296
f 287 296 288
f 288 296 289
f 288 289 281
f 289 297 298
f 289 298 290
f 290 298 299
f 290 299 291
f 291 299 300
f 291 300 292
f 292 300 301
f 292 301 293
f 293 301 302
f 293 302 294
f 294 302 303
f 294 303 295
f 295 303 304
f 295 304 296
f 296 304 297
f 296 297 289
f 297 305 306
f 297 306 298
f 298 306 307
f 298 307 299
f 299 307 308
f 299 308 300
f 300 308 309
f 300 309 301
f 301 309 310
f 301 310 302
f 302 310 311
f 302 311 303
f 303 311 312
f 303 312 304
f 304 312 305
f 304 305 297
f 305 313 314
f 305 314 306
f 306 314 315
f 306 315 307
f 307 315 316
f 307 316 308
f 308 316 317
f 308 317 309
f 309 317 318
f 309 318 310
f 310 318 319
f 310 319 311
f 311 319 320
f 311 320 312
f 312 320 313
f 312 313 305
f 313 321 322
f 313 322 314
f 314 322 323
f 314 323 315
f 315 323 324
f 315 324 316
f 316 324 325
f 316 325 317
f 317 325 326
f 317 326 318
f 318 326 327
f 318 327 319
f 319 327 328
f 319 328 320
f 320 328 321
f 320 321 313
f 321 329 330
f 321 330 322
f 322 330 331
f 322 331 323
f 323 331 332
f 323 332 324
f 324 332 333
f 324 333 325
f 325 333 334
f 325 334 326
f 326 334 335
f 326 335 327
f 327 335 336
f 327 336 328
f 328 336 329
f 328 329 321
f 329 337 338
f 329 338 330
f 330 338 339
f 330 339 331
f 331 339 340
f 331 340 332
f 332 340 341
f 332 341 333
f 333 341 342
f 333 342 334
f 334 342 343
f 334 343 335
f 335 343 344
f 335 344 336
f 336 344 337
f 336 337 329
f 337 345 346
f 337 346 338
f 338 346 347
f 338 347 339
f 339 347 348
f 339 348 340
f 340 348 349
f 340 349 341
f 341 349 350
f 341 350 342
f 342 350 351
f 342 351 343
f 343 351 352
f 343 352 344
f 344 352 345
f 344 345 337
f 345 353 354
f 345 354 346
f 346 354 355
f 346 355 347
f 347 355 356
f 347 356 348
f 348 356 357
f 348 357 349
f 349 357 358
f 349 358 350
f 350 358 359
f 350 359 351
f 351 359 360
f 351 360 352
f 352 360 353
f 352 353 345
f 353 361 362
f 353 362 354
f 354 362 363
f 354 363 355
f 355 363 364
f 355 364 356
f 356 364 365
f 356 365 357
f 357 365 366
f 357 366 358
f 358 366 367
f 358 367 359
f 359 367 368
f 359 368 360
f 360 368 361
f 360 361 353
f 361 369 370
f 361 370 362
f 362 370 371
f 362 371 363
f 363 371 372
f 363 372 364
f 364 372 373
f 364 373 365
f 365 373 374
f 365 374 366
f 366 374 375
f 366 375 367
f 367 375 376
f 367 376 368
f 368 376 369
f 368 369 361
f 369 377 378
f 369 378 370
f 370 378 379
f 370 379 371
f 371 379 380
f 371 380 372
f 372 380 381
f 372 381 373
f 373 381 382
f 373 382 374
f 374 382 383
f 374 383 375
f 375 383 384
f 375 384 376
f 376 384 377
f 376 377 369
f 377 385 386
f 377 386 378
f 378 386 387
f 378 387 379
f 379 387 388
f 379 388 380
f 380 388 389
f 380 389 381
f 381 389 390
f 381 390 382
f 382 390 391
f 382 391 383
f 383 391 392
f 383 392 384
f 384 392 385
f 384 385 377
f 385 393 394
f 385 394 386
f 386 394 395
f 386 395 387
f 387 395 396
f 387 396 388
f 388 396 397
f 388 397 389
f 389 397 398
f 389 398 390
f 390 398 399
f 390 399 391
f 391 399 400
f 391 400 392
f 392 400 393
f 392 393 385
f 393 401 402
f 393 402 394
f 394 402 403
f 394 403 395
f 395 403 404
f 395 404 396
f 396 404 405
f 396 405 397
f 397 405 406
f 397 406 398
f 398 406 407
f 398 407 399
f 399 407 408
f 399 408 400
f 400 408 401
f 400 401 393
f 401 409 410
f 401 410 402
f 402 410 411
f 402 411 403
f 403 411 412
f 403 412 404
f 404 412 413
f 404 413 405
f 405 413 414
f 405 414 406
f 406 414 415
f 406 415 407
f 407 415 416
f 407 416 408
f 408 416 409
f 408 409 401
f 409 417 418
f 409 418 410
f 410 418 419
f 410 419 411
f 411 419 420
f 411 420 412
f 412 420 421
f 412 421 413
f 413 421 422
f 413 422 414
f 414 422 423
f 414 423 415
f 415 423 424
f 415 424 416
f 416 424 417
f 416 417 409
f 417 425 426
f 417 426 418
f 418 426 427
f 418 427 419
f 419 427 428
f 419 428 420
f 420 428 429
f 420 429 421
f 421 429 430
f 421 430 422
f 422 430 431
f 422 431 423
f 423 431 432
f 423 432 424
f 424 432 425
f 424 425 417
f 425 433 434
f 425 434 426
f 426 434 435
f 426 435 427
f 427 435 436
f 427 436 428
f 428 436 437
f 428 437 429
f 429 437 438
f 429 438 430
f 430 438 439
f 430 439 431
f 431 439 440
f 431 440 432
f 432 440 433
f 432 433 425
f 433 441 442
f 433 442 434
f 434 442 443
f 434 443 435
f 435 443 444
f 435 444 436
f 436 444 445
f 436 445 437
f 437 445 446
f 437 446 438
f 438 446 447
f 438 447 439
f 439 447 448
f 439 448 440
f 440 448 441
f 440 441 433
f 441 449 450
f 441 450 442
f 442 450 451
f 442 451 443
f 443 451 452
f 443 452 444
f 444 452 453
f 444 453 445
f 445 453 454
f 445 454 446
f 446 454 455
f 446 455 447
f 447 455 456
f 447 456 448
f 448 456 449
f 448 449 441
f 449 457 458
f 449 458 450
f 450 458 459
f 450 459 451
f 451 459 460
f 451 460 452
f 452 460 461
f 452 461 453
f 453 461 462
f 453 462 454
f 454 462 463
f 454 463 455
f 455 463 464
f 455 464 456
f 456 464 457
f 456 457 449
f 457 465 466
f 457 466 458
f 458 466 467
f 458 467 459
f 459 467 468
f 459 468 460
f 460 468 469
f 460 469 461
f 461 469 470
f 461 470 462
f 462 470 471
f 462 471 463
f 463 471 472
f 463 472 464
f 464 472 465
f 464 465 457
f 465 473 474
f 465 474 466
f 466 474 475
f 466 475 467
f 467 475 476
f 467 476 468
f 468 476 477
f 468 477 469
f 469 477 478
f 469 478 470
f 470 478 479
f 470 479 471
f 471 479 480
f 471 480 472
f 472 480 473
f 472 473 465
