# ARC recorder body mesh v4 (corrected mound proportions)
mtllib recorder_body.mtl
o recorder_body
v 0.150000 0.090000 0.000000
v 0.149319 0.095176 0.000000
v 0.147321 0.100000 0.000000
v 0.144142 0.104142 0.000000
v 0.140000 0.107321 0.000000
v 0.135176 0.109319 0.000000
v 0.130000 0.110000 0.000000
v -0.130000 0.110000 0.000000
v -0.135176 0.109319 0.000000
v -0.140000 0.107321 0.000000
v -0.144142 0.104142 0.000000
v -0.147321 0.100000 0.000000
v -0.149319 0.095176 0.000000
v -0.150000 0.090000 0.000000
v -0.150000 -0.090000 0.000000
v -0.149319 -0.095176 0.000000
v -0.147321 -0.100000 0.000000
v -0.144142 -0.104142 0.000000
v -0.140000 -0.107321 0.000000
v -0.135176 -0.109319 0.000000
v -0.130000 -0.110000 0.000000
v 0.130000 -0.110000 0.000000
v 0.135176 -0.109319 0.000000
v 0.140000 -0.107321 0.000000
v 0.144142 -0.104142 0.000000
v 0.147321 -0.100000 0.000000
v 0.149319 -0.095176 0.000000
v 0.150000 -0.090000 0.000000
v 0.000000 0.000000 0.000000
v 0.150000 0.090000 0.250000
v 0.149319 0.095176 0.250000
v 0.147321 0.100000 0.250000
v 0.144142 0.104142 0.250000
v 0.140000 0.107321 0.250000
v 0.135176 0.109319 0.250000
v 0.130000 0.110000 0.250000
v -0.130000 0.110000 0.250000
v -0.135176 0.109319 0.250000
v -0.140000 0.107321 0.250000
v -0.144142 0.104142 0.250000
v -0.147321 0.100000 0.250000
v -0.149319 0.095176 0.250000
v -0.150000 0.090000 0.250000
v -0.150000 -0.090000 0.250000
v -0.149319 -0.095176 0.250000
v -0.147321 -0.100000 0.250000
v -0.144142 -0.104142 0.250000
v -0.140000 -0.107321 0.250000
v -0.135176 -0.109319 0.250000
v -0.130000 -0.110000 0.250000
v 0.130000 -0.110000 0.250000
v 0.135176 -0.109319 0.250000
v 0.140000 -0.107321 0.250000
v 0.144142 -0.104142 0.250000
v 0.147321 -0.100000 0.250000
v 0.149319 -0.095176 0.250000
v 0.150000 -0.090000 0.250000
v 0.150000 0.090000 0.295000
v 0.149319 0.095176 0.294898
v 0.147321 0.100000 0.294598
v 0.144142 0.104142 0.294121
v 0.140000 0.107321 0.293500
v 0.135176 0.109319 0.292776
v 0.130000 0.110000 0.292000
v -0.130000 0.110000 0.253000
v -0.135176 0.109319 0.252224
v -0.140000 0.107321 0.251500
v -0.144142 0.104142 0.250879
v -0.147321 0.100000 0.250402
v -0.149319 0.095176 0.250102
v -0.150000 0.090000 0.250000
v -0.150000 -0.090000 0.250000
v -0.149319 -0.095176 0.250102
v -0.147321 -0.100000 0.250402
v -0.144142 -0.104142 0.250879
v -0.140000 -0.107321 0.251500
v -0.135176 -0.109319 0.252224
v -0.130000 -0.110000 0.253000
v 0.130000 -0.110000 0.292000
v 0.135176 -0.109319 0.292776
v 0.140000 -0.107321 0.293500
v 0.144142 -0.104142 0.294121
v 0.147321 -0.100000 0.294598
v 0.149319 -0.095176 0.294898
v 0.150000 -0.090000 0.295000
v 0.111000 0.061400 0.313000
v 0.110319 0.066576 0.313000
v 0.108321 0.071400 0.313000
v 0.105142 0.075542 0.313000
v 0.101000 0.078721 0.313000
v 0.096176 0.080719 0.313000
v 0.091000 0.081400 0.313000
v -0.091000 0.081400 0.313000
v -0.096176 0.080719 0.313000
v -0.101000 0.078721 0.313000
v -0.105142 0.075542 0.313000
v -0.108321 0.071400 0.313000
v -0.110319 0.066576 0.313000
v -0.111000 0.061400 0.313000
v -0.111000 -0.061400 0.313000
v -0.110319 -0.066576 0.313000
v -0.108321 -0.071400 0.313000
v -0.105142 -0.075542 0.313000
v -0.101000 -0.078721 0.313000
v -0.096176 -0.080719 0.313000
v -0.091000 -0.081400 0.313000
v 0.091000 -0.081400 0.313000
v 0.096176 -0.080719 0.313000
v 0.101000 -0.078721 0.313000
v 0.105142 -0.075542 0.313000
v 0.108321 -0.071400 0.313000
v 0.110319 -0.066576 0.313000
v 0.111000 -0.061400 0.313000
v 0.057500 0.032000 0.313000
v 0.056887 0.036659 0.313000
v 0.055088 0.041000 0.313000
v 0.052228 0.044728 0.313000
v 0.048500 0.047588 0.313000
v 0.044159 0.049387 0.313000
v 0.039500 0.050000 0.313000
v -0.039500 0.050000 0.313000
v -0.044159 0.049387 0.313000
v -0.048500 0.047588 0.313000
v -0.052228 0.044728 0.313000
v -0.055088 0.041000 0.313000
v -0.056887 0.036659 0.313000
v -0.057500 0.032000 0.313000
v -0.057500 -0.032000 0.313000
v -0.056887 -0.036659 0.313000
v -0.055088 -0.041000 0.313000
v -0.052228 -0.044728 0.313000
v -0.048500 -0.047588 0.313000
v -0.044159 -0.049387 0.313000
v -0.039500 -0.050000 0.313000
v 0.039500 -0.050000 0.313000
v 0.044159 -0.049387 0.313000
v 0.048500 -0.047588 0.313000
v 0.052228 -0.044728 0.313000
v 0.055088 -0.041000 0.313000
v 0.056887 -0.036659 0.313000
v 0.057500 -0.032000 0.313000
v 0.000000 0.000000 0.313000
usemtl recorder_amber
f 29 2 1
f 29 3 2
f 29 4 3
f 29 5 4
f 29 6 5
f 29 7 6
f 29 8 7
f 29 9 8
f 29 10 9
f 29 11 10
f 29 12 11
f 29 13 12
f 29 14 13
f 29 15 14
f 29 16 15
f 29 17 16
f 29 18 17
f 29 19 18
f 29 20 19
f 29 21 20
f 29 22 21
f 29 23 22
f 29 24 23
f 29 25 24
f 29 26 25
f 29 27 26
f 29 28 27
f 1 30 31
f 1 31 2
f 2 31 32
f 2 32 3
f 3 32 33
f 3 33 4
f 4 33 34
f 4 34 5
f 5 34 35
f 5 35 6
f 6 35 36
f 6 36 7
f 7 36 37
f 7 37 8
f 8 37 38
f 8 38 9
f 9 38 39
f 9 39 10
f 10 39 40
f 10 40 11
f 11 40 41
f 11 41 12
f 12 41 42
f 12 42 13
f 13 42 43
f 13 43 14
f 14 43 44
f 14 44 15
f 15 44 45
f 15 45 16
f 16 45 46
f 16 46 17
f 17 46 47
f 17 47 18
f 18 47 48
f 18 48 19
f 19 48 49
f 19 49 20
f 20 49 50
f 20 50 21
f 21 50 51
f 21 51 22
f 22 51 52
f 22 52 23
f 23 52 53
f 23 53 24
f 24 53 54
f 24 54 25
f 25 54 55
f 25 55 26
f 26 55 56
f 26 56 27
f 27 56 57
f 27 57 28
f 30 58 59
f 30 59 31
f 31 59 60
f 31 60 32
f 32 60 61
f 32 61 33
f 33 61 62
f 33 62 34
f 34 62 63
f 34 63 35
f 35 63 64
f 35 64 36
f 36 64 65
f 36 65 37
f 37 65 66
f 37 66 38
f 38 66 67
f 38 67 39
f 39 67 68
f 39 68 40
f 40 68 69
f 40 69 41
f 41 69 70
f 41 70 42
f 42 70 71
f 42 71 43
f 43 71 72
f 43 72 44
f 44 72 73
f 44 73 45
f 45 73 74
f 45 74 46
f 46 74 75
f 46 75 47
f 47 75 76
f 47 76 48
f 48 76 77
f 48 77 49
f 49 77 78
f 49 78 50
f 50 78 79
f 50 79 51
f 51 79 80
f 51 80 52
f 52 80 81
f 52 81 53
f 53 81 82
f 53 82 54
f 54 82 83
f 54 83 55
f 55 83 84
f 55 84 56
f 56 84 85
f 56 85 57
f 58 86 87
f 58 87 59
f 59 87 88
f 59 88 60
f 60 88 89
f 60 89 61
f 61 89 90
f 61 90 62
f 62 90 91
f 62 91 63
f 63 91 92
f 63 92 64
f 64 92 93
f 64 93 65
f 65 93 94
f 65 94 66
f 66 94 95
f 66 95 67
f 67 95 96
f 67 96 68
f 68 96 97
f 68 97 69
f 69 97 98
f 69 98 70
f 70 98 99
f 70 99 71
f 71 99 100
f 71 100 72
f 72 100 101
f 72 101 73
f 73 101 102
f 73 102 74
f 74 102 103
f 74 103 75
f 75 103 104
f 75 104 76
f 76 104 105
f 76 105 77
f 77 105 106
f 77 106 78
f 78 106 107
f 78 107 79
f 79 107 108
f 79 108 80
f 80 108 109
f 80 109 81
f 81 109 110
f 81 110 82
f 82 110 111
f 82 111 83
f 83 111 112
f 83 112 84
f 84 112 113
f 84 113 85
f 86 114 115
f 86 115 87
f 87 115 116
f 87 116 88
f 88 116 117
f 88 117 89
f 89 117 118
f 89 118 90
f 90 118 119
f 90 119 91
f 91 119 120
f 91 120 92
f 92 120 121
f 92 121 93
f 93 121 122
f 93 122 94
f 94 122 123
f 94 123 95
f 95 123 124
f 95 124 96
f 96 124 125
f 96 125 97
f 97 125 126
f 97 126 98
f 98 126 127
f 98 127 99
f 99 127 128
f 99 128 100
f 100 128 129
f 100 129 101
f 101 129 130
f 101 130 102
f 102 130 131
f 102 131 103
f 103 131 132
f 103 132 104
f 104 132 133
f 104 133 105
f 105 133 134
f 105 134 106
f 106 134 135
f 106 135 107
f 107 135 136
f 107 136 108
f 108 136 137
f 108 137 109
f 109 137 138
f 109 138 110
f 110 138 139
f 110 139 111
f 111 139 140
f 111 140 112
f 112 140 141
f 112 141 113
f 142 114 115
f 142 115 116
f 142 116 117
f 142 117 118
f 142 118 119
f 142 119 120
f 142 120 121
f 142 121 122
f 142 122 123
f 142 123 124
f 142 124 125
f 142 125 126
f 142 126 127
f 142 127 128
f 142 128 129
f 142 129 130
f 142 130 131
f 142 131 132
f 142 132 133
f 142 133 134
f 142 134 135
f 142 135 136
f 142 136 137
f 142 137 138
f 142 138 139
f 142 139 140
f 142 140 141
