# ARC recorder handle (swept stadium tube) v5
mtllib recorder_body.mtl
o recorder_handle
v -0.044913 0.000000 0.009899
v -0.044930 0.002910 0.008954
v -0.044973 0.004708 0.006479
v -0.045027 0.004708 0.003421
v -0.045070 0.002910 0.000946
v -0.045087 0.000000 0.000001
v -0.045070 -0.002910 0.000946
v -0.045027 -0.004708 0.003421
v -0.044973 -0.004708 0.006479
v -0.044930 -0.002910 0.008954
v -0.030000 0.000000 0.009900
v -0.030000 0.002910 0.008955
v -0.030000 0.004708 0.006480
v -0.030000 0.004708 0.003420
v -0.030000 0.002910 0.000945
v -0.030000 0.000000 0.000000
v -0.030000 -0.002910 0.000945
v -0.030000 -0.004708 0.003420
v -0.030000 -0.004708 0.006480
v -0.030000 -0.002910 0.008955
v -0.015000 0.000000 0.009900
v -0.015000 0.002910 0.008955
v -0.015000 0.004708 0.006480
v -0.015000 0.004708 0.003420
v -0.015000 0.002910 0.000945
v -0.015000 0.000000 0.000000
v -0.015000 -0.002910 0.000945
v -0.015000 -0.004708 0.003420
v -0.015000 -0.004708 0.006480
v -0.015000 -0.002910 0.008955
v 0.000000 0.000000 0.009900
v 0.000000 0.002910 0.008955
v 0.000000 0.004708 0.006480
v 0.000000 0.004708 0.003420
v 0.000000 0.002910 0.000945
v 0.000000 0.000000 0.000000
v 0.000000 -0.002910 0.000945
v 0.000000 -0.004708 0.003420
v 0.000000 -0.004708 0.006480
v 0.000000 -0.002910 0.008955
v 0.015000 0.000000 0.009900
v 0.015000 0.002910 0.008955
v 0.015000 0.004708 0.006480
v 0.015000 0.004708 0.003420
v 0.015000 0.002910 0.000945
v 0.015000 0.000000 0.000000
v 0.015000 -0.002910 0.000945
v 0.015000 -0.004708 0.003420
v 0.015000 -0.004708 0.006480
v 0.015000 -0.002910 0.008955
v 0.030000 0.000000 0.009900
v 0.030000 0.002910 0.008955
v 0.030000 0.004708 0.006480
v 0.030000 0.004708 0.003420
v 0.030000 0.002910 0.000945
v 0.030000 0.000000 0.000000
v 0.030000 -0.002910 0.000945
v 0.030000 -0.004708 0.003420
v 0.030000 -0.004708 0.006480
v 0.030000 -0.002910 0.008955
v 0.044913 0.000000 0.009899
v 0.044930 0.002910 0.008954
v 0.044973 0.004708 0.006479
v 0.045027 0.004708 0.003421
v 0.045070 0.002910 0.000946
v 0.045087 0.000000 0.000001
v 0.045070 -0.002910 0.000946
v 0.045027 -0.004708 0.003421
v 0.044973 -0.004708 0.006479
v 0.044930 -0.002910 0.008954
v 0.045340 0.000000 0.009954
v 0.045632 0.002910 0.009055
v 0.046397 0.004708 0.006701
v 0.047342 0.004708 0.003791
v 0.048107 0.002910 0.001437
v 0.048399 0.000000 0.000538
v 0.048107 -0.002910 0.001437
v 0.047342 -0.004708 0.003791
v 0.046397 -0.004708 0.006701
v 0.045632 -0.002910 0.009055
v 0.045647 0.000000 0.010110
v 0.046202 0.002910 0.009345
v 0.047657 0.004708 0.007343
v 0.049455 0.004708 0.004868
v 0.050910 0.002910 0.002866
v 0.051466 0.000000 0.002101
v 0.050910 -0.002910 0.002866
v 0.049455 -0.004708 0.004868
v 0.047657 -0.004708 0.007343
v 0.046202 -0.002910 0.009345
v 0.045890 0.000000 0.010353
v 0.046655 0.002910 0.009798
v 0.048657 0.004708 0.008343
v 0.051132 0.004708 0.006545
v 0.053134 0.002910 0.005090
v 0.053899 0.000000 0.004534
v 0.053134 -0.002910 0.005090
v 0.051132 -0.004708 0.006545
v 0.048657 -0.004708 0.008343
v 0.046655 -0.002910 0.009798
v 0.046046 0.000000 0.010660
v 0.046945 0.002910 0.010368
v 0.049299 0.004708 0.009603
v 0.052209 0.004708 0.008658
v 0.054563 0.002910 0.007893
v 0.055462 0.000000 0.007601
v 0.054563 -0.002910 0.007893
v 0.052209 -0.004708 0.008658
v 0.049299 -0.004708 0.009603
v 0.046945 -0.002910 0.010368
v 0.046100 0.000000 0.011000
v 0.047045 0.002910 0.011000
v 0.049520 0.004708 0.011000
v 0.052580 0.004708 0.011000
v 0.055055 0.002910 0.011000
v 0.056000 0.000000 0.011000
v 0.055055 -0.002910 0.011000
v 0.052580 -0.004708 0.011000
v 0.049520 -0.004708 0.011000
v 0.047045 -0.002910 0.011000
v 0.046046 0.000000 0.011340
v 0.046945 0.002910 0.011632
v 0.049299 0.004708 0.012397
v 0.052209 0.004708 0.013342
v 0.054563 0.002910 0.014107
v 0.055462 0.000000 0.014399
v 0.054563 -0.002910 0.014107
v 0.052209 -0.004708 0.013342
v 0.049299 -0.004708 0.012397
v 0.046945 -0.002910 0.011632
v 0.045890 0.000000 0.011647
v 0.046655 0.002910 0.012202
v 0.048657 0.004708 0.013657
v 0.051132 0.004708 0.015455
v 0.053134 0.002910 0.016910
v 0.053899 0.000000 0.017466
v 0.053134 -0.002910 0.016910
v 0.051132 -0.004708 0.015455
v 0.048657 -0.004708 0.013657
v 0.046655 -0.002910 0.012202
v 0.045647 0.000000 0.011890
v 0.046202 0.002910 0.012655
v 0.047657 0.004708 0.014657
v 0.049455 0.004708 0.017132
v 0.050910 0.002910 0.019134
v 0.051466 0.000000 0.019899
v 0.050910 -0.002910 0.019134
v 0.049455 -0.004708 0.017132
v 0.047657 -0.004708 0.014657
v 0.046202 -0.002910 0.012655
v 0.045340 0.000000 0.012046
v 0.045632 0.002910 0.012945
v 0.046397 0.004708 0.015299
v 0.047342 0.004708 0.018209
v 0.048107 0.002910 0.020563
v 0.048399 0.000000 0.021462
v 0.048107 -0.002910 0.020563
v 0.047342 -0.004708 0.018209
v 0.046397 -0.004708 0.015299
v 0.045632 -0.002910 0.012945
v 0.044913 0.000000 0.012101
v 0.044930 0.002910 0.013046
v 0.044973 0.004708 0.015521
v 0.045027 0.004708 0.018579
v 0.045070 0.002910 0.021054
v 0.045087 0.000000 0.021999
v 0.045070 -0.002910 0.021054
v 0.045027 -0.004708 0.018579
v 0.044973 -0.004708 0.015521
v 0.044930 -0.002910 0.013046
v 0.030000 0.000000 0.012100
v 0.030000 0.002910 0.013045
v 0.030000 0.004708 0.015520
v 0.030000 0.004708 0.018580
v 0.030000 0.002910 0.021055
v 0.030000 0.000000 0.022000
v 0.030000 -0.002910 0.021055
v 0.030000 -0.004708 0.018580
v 0.030000 -0.004708 0.015520
v 0.030000 -0.002910 0.013045
v 0.015000 0.000000 0.012100
v 0.015000 0.002910 0.013045
v 0.015000 0.004708 0.015520
v 0.015000 0.004708 0.018580
v 0.015000 0.002910 0.021055
v 0.015000 0.000000 0.022000
v 0.015000 -0.002910 0.021055
v 0.015000 -0.004708 0.018580
v 0.015000 -0.004708 0.015520
v 0.015000 -0.002910 0.013045
v -0.000000 0.000000 0.012100
v -0.000000 0.002910 0.013045
v -0.000000 0.004708 0.015520
v -0.000000 0.004708 0.018580
v -0.000000 0.002910 0.021055
v -0.000000 0.000000 0.022000
v -0.000000 -0.002910 0.021055
v -0.000000 -0.004708 0.018580
v -0.000000 -0.004708 0.015520
v -0.000000 -0.002910 0.013045
v -0.015000 0.000000 0.012100
v -0.015000 0.002910 0.013045
v -0.015000 0.004708 0.015520
v -0.015000 0.004708 0.018580
v -0.015000 0.002910 0.021055
v -0.015000 0.000000 0.022000
v -0.015000 -0.002910 0.021055
v -0.015000 -0.004708 0.018580
v -0.015000 -0.004708 0.015520
v -0.015000 -0.002910 0.013045
v -0.030000 0.000000 0.012100
v -0.030000 0.002910 0.013045
v -0.030000 0.004708 0.015520
v -0.030000 0.004708 0.018580
v -0.030000 0.002910 0.021055
v -0.030000 0.000000 0.022000
v -0.030000 -0.002910 0.021055
v -0.030000 -0.004708 0.018580
v -0.030000 -0.004708 0.015520
v -0.030000 -0.002910 0.013045
v -0.044913 0.000000 0.012101
v -0.044930 0.002910 0.013046
v -0.044973 0.004708 0.015521
v -0.045027 0.004708 0.018579
v -0.045070 0.002910 0.021054
v -0.045087 0.000000 0.021999
v -0.045070 -0.002910 0.021054
v -0.045027 -0.004708 0.018579
v -0.044973 -0.004708 0.015521
v -0.044930 -0.002910 0.013046
v -0.045340 0.000000 0.012046
v -0.045632 0.002910 0.012945
v -0.046397 0.004708 0.015299
v -0.047342 0.004708 0.018209
v -0.048107 0.002910 0.020563
v -0.048399 0.000000 0.021462
v -0.048107 -0.002910 0.020563
v -0.047342 -0.004708 0.018209
v -0.046397 -0.004708 0.015299
v -0.045632 -0.002910 0.012945
v -0.045647 0.000000 0.011890
v -0.046202 0.002910 0.012655
v -0.047657 0.004708 0.014657
v -0.049455 0.004708 0.017132
v -0.050910 0.002910 0.019134
v -0.051466 0.000000 0.019899
v -0.050910 -0.002910 0.019134
v -0.049455 -0.004708 0.017132
v -0.047657 -0.004708 0.014657
v -0.046202 -0.002910 0.012655
v -0.045890 0.000000 0.011647
v -0.046655 0.002910 0.012202
v -0.048657 0.004708 0.013657
v -0.051132 0.004708 0.015455
v -0.053134 0.002910 0.016910
v -0.053899 0.000000 0.017466
v -0.053134 -0.002910 0.016910
v -0.051132 -0.004708 0.015455
v -0.048657 -0.004708 0.013657
v -0.046655 -0.002910 0.012202
v -0.046046 0.000000 0.011340
v -0.046945 0.002910 0.011632
v -0.049299 0.004708 0.012397
v -0.052209 0.004708 0.013342
v -0.054563 0.002910 0.014107
v -0.055462 0.000000 0.014399
v -0.054563 -0.002910 0.014107
v -0.052209 -0.004708 0.013342
v -0.049299 -0.004708 0.012397
v -0.046945 -0.002910 0.011632
v -0.046100 0.000000 0.011000
v -0.047045 0.002910 0.011000
v -0.049520 0.004708 0.011000
v -0.052580 0.004708 0.011000
v -0.055055 0.002910 0.011000
v -0.056000 0.000000 0.011000
v -0.055055 -0.002910 0.011000
v -0.052580 -0.004708 0.011000
v -0.049520 -0.004708 0.011000
v -0.047045 -0.002910 0.011000
v -0.046046 0.000000 0.010660
v -0.046945 0.002910 0.010368
v -0.049299 0.004708 0.009603
v -0.052209 0.004708 0.008658
v -0.054563 0.002910 0.007893
v -0.055462 0.000000 0.007601
v -0.054563 -0.002910 0.007893
v -0.052209 -0.004708 0.008658
v -0.049299 -0.004708 0.009603
v -0.046945 -0.002910 0.010368
v -0.045890 0.000000 0.010353
v -0.046655 0.002910 0.009798
v -0.048657 0.004708 0.008343
v -0.051132 0.004708 0.006545
v -0.053134 0.002910 0.005090
v -0.053899 0.000000 0.004534
v -0.053134 -0.002910 0.005090
v -0.051132 -0.004708 0.006545
v -0.048657 -0.004708 0.008343
v -0.046655 -0.002910 0.009798
v -0.045647 0.000000 0.010110
v -0.046202 0.002910 0.009345
v -0.047657 0.004708 0.007343
v -0.049455 0.004708 0.004868
v -0.050910 0.002910 0.002866
v -0.051466 0.000000 0.002101
v -0.050910 -0.002910 0.002866
v -0.049455 -0.004708 0.004868
v -0.047657 -0.004708 0.007343
v -0.046202 -0.002910 0.009345
v -0.045340 0.000000 0.009954
v -0.045632 0.002910 0.009055
v -0.046397 0.004708 0.006701
v -0.047342 0.004708 0.003791
v -0.048107 0.002910 0.001437
v -0.048399 0.000000 0.000538
v -0.048107 -0.002910 0.001437
v -0.047342 -0.004708 0.003791
v -0.046397 -0.004708 0.006701
v -0.045632 -0.002910 0.009055
usemtl recorder_amber
f 1 11 12
f 1 12 2
f 2 12 13
f 2 13 3
f 3 13 14
f 3 14 4
f 4 14 15
f 4 15 5
f 5 15 16
f 5 16 6
f 6 16 17
f 6 17 7
f 7 17 18
f 7 18 8
f 8 18 19
f 8 19 9
f 9 19 20
f 9 20 10
f 10 20 11
f 10 11 1
f 11 21 22
f 11 22 12
f 12 22 23
f 12 23 13
f 13 23 24
f 13 24 14
f 14 24 25
f 14 25 15
f 15 25 26
f 15 26 16
f 16 26 27
f 16 27 17
f 17 27 28
f 17 28 18
f 18 28 29
f 18 29 19
f 19 29 30
f 19 30 20
f 20 30 21
f 20 21 11
f 21 31 32
f 21 32 22
f 22 32 33
f 22 33 23
f 23 33 34
f 23 34 24
f 24 34 35
f 24 35 25
f 25 35 36
f 25 36 26
f 26 36 37
f 26 37 27
f 27 37 38
f 27 38 28
f 28 38 39
f 28 39 29
f 29 39 40
f 29 40 30
f 30 40 31
f 30 31 21
f 31 41 42
f 31 42 32
f 32 42 43
f 32 43 33
f 33 43 44
f 33 44 34
f 34 44 45
f 34 45 35
f 35 45 46
f 35 46 36
f 36 46 47
f 36 47 37
f 37 47 48
f 37 48 38
f 38 48 49
f 38 49 39
f 39 49 50
f 39 50 40
f 40 50 41
f 40 41 31
f 41 51 52
f 41 52 42
f 42 52 53
f 42 53 43
f 43 53 54
f 43 54 44
f 44 54 55
f 44 55 45
f 45 55 56
f 45 56 46
f 46 56 57
f 46 57 47
f 47 57 58
f 47 58 48
f 48 58 59
f 48 59 49
f 49 59 60
f 49 60 50
f 50 60 51
f 50 51 41
f 51 61 62
f 51 62 52
f 52 62 63
f 52 63 53
f 53 63 64
f 53 64 54
f 54 64 65
f 54 65 55
f 55 65 66
f 55 66 56
f 56 66 67
f 56 67 57
f 57 67 68
f 57 68 58
f 58 68 69
f 58 69 59
f 59 69 70
f 59 70 60
f 60 70 61
f 60 61 51
f 61 71 72
f 61 72 62
f 62 72 73
f 62 73 63
f 63 73 74
f 63 74 64
f 64 74 75
f 64 75 65
f 65 75 76
f 65 76 66
f 66 76 77
f 66 77 67
f 67 77 78
f 67 78 68
f 68 78 79
f 68 79 69
f 69 79 80
f 69 80 70
f 70 80 71
f 70 71 61
f 71 81 82
f 71 82 72
f 72 82 83
f 72 83 73
f 73 83 84
f 73 84 74
f 74 84 85
f 74 85 75
f 75 85 86
f 75 86 76
f 76 86 87
f 76 87 77
f 77 87 88
f 77 88 78
f 78 88 89
f 78 89 79
f 79 89 90
f 79 90 80
f 80 90 81
f 80 81 71
f 81 91 92
f 81 92 82
f 82 92 93
f 82 93 83
f 83 93 94
f 83 94 84
f 84 94 95
f 84 95 85
f 85 95 96
f 85 96 86
f 86 96 97
f 86 97 87
f 87 97 98
f 87 98 88
f 88 98 99
f 88 99 89
f 89 99 100
f 89 100 90
f 90 100 91
f 90 91 81
f 91 101 102
f 91 102 92
f 92 102 103
f 92 103 93
f 93 103 104
f 93 104 94
f 94 104 105
f 94 105 95
f 95 105 106
f 95 106 96
f 96 106 107
f 96 107 97
f 97 107 108
f 97 108 98
f 98 108 109
f 98 109 99
f 99 109 110
f 99 110 100
f 100 110 101
f 100 101 91
f 101 111 112
f 101 112 102
f 102 112 113
f 102 113 103
f 103 113 114
f 103 114 104
f 104 114 115
f 104 115 105
f 105 115 116
f 105 116 106
f 106 116 117
f 106 117 107
f 107 117 118
f 107 118 108
f 108 118 119
f 108 119 109
f 109 119 120
f 109 120 110
f 110 120 111
f 110 111 101
f 111 121 122
f 111 122 112
f 112 122 123
f 112 123 113
f 113 123 124
f 113 124 114
f 114 124 125
f 114 125 115
f 115 125 126
f 115 126 116
f 116 126 127
f 116 127 117
f 117 127 128
f 117 128 118
f 118 128 129
f 118 129 119
f 119 129 130
f 119 130 120
f 120 130 121
f 120 121 111
f 121 131 132
f 121 132 122
f 122 132 133
f 122 133 123
f 123 133 134
f 123 134 124
f 124 134 135
f 124 135 125
f 125 135 136
f 125 136 126
f 126 136 137
f 126 137 127
f 127 137 138
f 127 138 128
f 128 138 139
f 128 139 129
f 129 139 140
f 129 140 130
f 130 140 131
f 130 131 121
f 131 141 142
f 131 142 132
f 132 142 143
f 132 143 133
f 133 143 144
f 133 144 134
f 134 144 145
f 134 145 135
f 135 145 146
f 135 146 136
f 136 146 147
f 136 147 137
f 137 147 148
f 137 148 138
f 138 148 149
f 138 149 139
f 139 149 150
f 139 150 140
f 140 150 141
f 140 141 131
f 141 151 152
f 141 152 142
f 142 152 153
f 142 153 143
f 143 153 154
f 143 154 144
f 144 154 155
f 144 155 145
f 145 155 156
f 145 156 146
f 146 156 157
f 146 157 147
f 147 157 158
f 147 158 148
f 148 158 159
f 148 159 149
f 149 159 160
f 149 160 150
f 150 160 151
f 150 151 141
f 151 161 162
f 151 162 152
f 152 162 163
f 152 163 153
f 153 163 164
f 153 164 154
f 154 164 165
f 154 165 155
f 155 165 166
f 155 166 156
f 156 166 167
f 156 167 157
f 157 167 168
f 157 168 158
f 158 168 169
f 158 169 159
f 159 169 170
f 159 170 160
f 160 170 161
f 160 161 151
f 161 171 172
f 161 172 162
f 162 172 173
f 162 173 163
f 163 173 174
f 163 174 164
f 164 174 175
f 164 175 165
f 165 175 176
f 165 176 166
f 166 176 177
f 166 177 167
f 167 177 178
f 167 178 168
f 168 178 179
f 168 179 169
f 169 179 180
f 169 180 170
f 170 180 171
f 170 171 161
f 171 181 182
f 171 182 172
f 172 182 183
f 172 183 173
f 173 183 184
f 173 184 174
f 174 184 185
f 174 185 175
f 175 185 186
f 175 186 176
f 176 186 187
f 176 187 177
f 177 187 188
f 177 188 178
f 178 188 189
f 178 189 179
f 179 189 190
f 179 190 180
f 180 190 181
f 180 181 171
f 181 191 192
f 181 192 182
f 182 192 193
f 182 193 183
f 183 193 194
f 183 194 184
f 184 194 195
f 184 195 185
f 185 195 196
f 185 196 186
f 186 196 197
f 186 197 187
f 187 197 198
f 187 198 188
f 188 198 199
f 188 199 189
f 189 199 200
f 189 200 190
f 190 200 191
f 190 191 181
f 191 201 202
f 191 202 192
f 192 202 203
f 192 203 193
f 193 203 204
f 193 204 194
f 194 204 205
f 194 205 195
f 195 205 206
f 195 206 196
f 196 206 207
f 196 207 197
f 197 207 208
f 197 208 198
f 198 208 209
f 198 209 199
f 199 209 210
f 199 210 200
f 200 210 201
f 200 201 191
f 201 211 212
f 201 212 202
f 202 212 213
f 202 213 203
f 203 213 214
f 203 214 204
f 204 214 215
f 204 215 205
f 205 215 216
f 205 216 206
f 206 216 217
f 206 217 207
f 207 217 218
f 207 218 208
f 208 218 219
f 208 219 209
f 209 219 220
f 209 220 210
f 210 220 211
f 210 211 201
f 211 221 222
f 211 222 212
f 212 222 223
f 212 223 213
f 213 223 224
f 213 224 214
f 214 224 225
f 214 225 215
f 215 225 226
f 215 226 216
f 216 226 227
f 216 227 217
f 217 227 228
f 217 228 218
f 218 228 229
f 218 229 219
f 219 229 230
f 219 230 220
f 220 230 221
f 220 221 211
f 221 231 232
f 221 232 222
f 222 232 233
f 222 233 223
f 223 233 234
f 223 234 224
f 224 234 235
f 224 235 225
f 225 235 236
f 225 236 226
f 226 236 237
f 226 237 227
f 227 237 238
f 227 238 228
f 228 238 239
f 228 239 229
f 229 239 240
f 229 240 230
f 230 240 231
f 230 231 221
f 231 241 242
f 231 242 232
f 232 242 243
f 232 243 233
f 233 243 244
f 233 244 234
f 234 244 245
f 234 245 235
f 235 245 246
f 235 246 236
f 236 246 247
f 236 247 237
f 237 247 248
f 237 248 238
f 238 248 249
f 238 249 239
f 239 249 250
f 239 250 240
f 240 250 241
f 240 241 231
f 241 251 252
f 241 252 242
f 242 252 253
f 242 253 243
f 243 253 254
f 243 254 244
f 244 254 255
f 244 255 245
f 245 255 256
f 245 256 246
f 246 256 257
f 246 257 247
f 247 257 258
f 247 258 248
f 248 258 259
f 248 259 249
f 249 259 260
f 249 260 250
f 250 260 251
f 250 251 241
f 251 261 262
f 251 262 252
f 252 262 263
f 252 263 253
f 253 263 264
f 253 264 254
f 254 264 265
f 254 265 255
f 255 265 266
f 255 266 256
f 256 266 267
f 256 267 257
f 257 267 268
f 257 268 258
f 258 268 269
f 258 269 259
f 259 269 270
f 259 270 260
f 260 270 261
f 260 261 251
f 261 271 272
f 261 272 262
f 262 272 273
f 262 273 263
f 263 273 274
f 263 274 264
f 264 274 275
f 264 275 265
f 265 275 276
f 265 276 266
f 266 276 277
f 266 277 267
f 267 277 278
f 267 278 268
f 268 278 279
f 268 279 269
f 269 279 280
f 269 280 270
f 270 280 271
f 270 271 261
f 271 281 282
f 271 282 272
f 272 282 283
f 272 283 273
f 273 283 284
f 273 284 274
f 274 284 285
f 274 285 275
f 275 285 286
f 275 286 276
f 276 286 287
f 276 287 277
f 277 287 288
f 277 288 278
f 278 288 289
f 278 289 279
f 279 289 290
f 279 290 280
f 280 290 281
f 280 281 271
f 281 291 292
f 281 292 282
f 282 292 293
f 282 293 283
f 283 293 294
f 283 294 284
f 284 294 295
f 284 295 285
f 285 295 296
f 285 296 286
f 286 296 297
f 286 297 287
f 287 297 298
f 287 298 288
f 288 298 299
f 288 299 289
f 289 299 300
f 289 300 290
f 290 300 291
f 290 291 281
f 291 301 302
f 291 302 292
f 292 302 303
f 292 303 293
f 293 303 304
f 293 304 294
f 294 304 305
f 294 305 295
f 295 305 306
f 295 306 296
f 296 306 307
f 296 307 297
f 297 307 308
f 297 308 298
f 298 308 309
f 298 309 299
f 299 309 310
f 299 310 300
f 300 310 301
f 300 301 291
f 301 311 312
f 301 312 302
f 302 312 313
f 302 313 303
f 303 313 314
f 303 314 304
f 304 314 315
f 304 315 305
f 305 315 316
f 305 316 306
f 306 316 317
f 306 317 307
f 307 317 318
f 307 318 308
f 308 318 319
f 308 319 309
f 309 319 320
f 309 320 310
f 310 320 311
f 310 311 301
f 311 1 2
f 311 2 312
f 312 2 3
f 312 3 313
f 313 3 4
f 313 4 314
f 314 4 5
f 314 5 315
f 315 5 6
f 315 6 316
f 316 6 7
f 316 7 317
f 317 7 8
f 317 8 318
f 318 8 9
f 318 9 319
f 319 9 10
f 319 10 320
f 320 10 1
f 320 1 311
