# Blender 5.1.2
# www.blender.org
mtllib Emergency_kit.mtl
o ARC_Emergency_Kit
v -0.162500 -0.120000 0.047500
v -0.162500 -0.117500 0.050000
v -0.165000 -0.117500 0.047500
v -0.162500 -0.119810 0.048457
v -0.162500 -0.119268 0.049268
v -0.163457 -0.119810 0.047500
v -0.163481 -0.119580 0.048481
v -0.163431 -0.119141 0.049141
v -0.163943 -0.118943 0.048943
v -0.163457 -0.117500 0.049810
v -0.164268 -0.117500 0.049268
v -0.162500 -0.118457 0.049810
v -0.163481 -0.118481 0.049580
v -0.164141 -0.118431 0.049141
v -0.164810 -0.118457 0.047500
v -0.164268 -0.119268 0.047500
v -0.164810 -0.117500 0.048457
v -0.164580 -0.118481 0.048481
v -0.164141 -0.119141 0.048431
v -0.162500 0.117500 0.050000
v -0.162500 0.120000 0.047500
v -0.165000 0.117500 0.047500
v -0.162500 0.118457 0.049810
v -0.162500 0.119268 0.049268
v -0.163457 0.117500 0.049810
v -0.163423 0.118423 0.049533
v -0.163399 0.119162 0.049162
v -0.163938 0.118938 0.048938
v -0.163457 0.119810 0.047500
v -0.164268 0.119268 0.047500
v -0.162500 0.119810 0.048457
v -0.163423 0.119533 0.048423
v -0.164162 0.119162 0.048399
v -0.164810 0.117500 0.048457
v -0.164268 0.117500 0.049268
v -0.164810 0.118457 0.047500
v -0.164533 0.118423 0.048423
v -0.164162 0.118399 0.049162
v -0.162500 -0.120000 -0.047500
v -0.165000 -0.117500 -0.047500
v -0.162500 -0.117500 -0.050000
v -0.163457 -0.119810 -0.047500
v -0.164268 -0.119268 -0.047500
v -0.162500 -0.119810 -0.048457
v -0.163481 -0.119580 -0.048481
v -0.164141 -0.119141 -0.048431
v -0.163943 -0.118943 -0.048943
v -0.164810 -0.117500 -0.048457
v -0.164268 -0.117500 -0.049268
v -0.164810 -0.118457 -0.047500
v -0.164580 -0.118481 -0.048481
v -0.164141 -0.118431 -0.049141
v -0.162500 -0.118457 -0.049810
v -0.162500 -0.119268 -0.049268
v -0.163457 -0.117500 -0.049810
v -0.163481 -0.118481 -0.049580
v -0.163431 -0.119141 -0.049141
v -0.057500 0.075000 0.000000
v -0.060000 0.077500 0.000000
v -0.058457 0.075190 0.000000
v -0.059268 0.075732 0.000000
v -0.059810 0.076543 0.000000
v -0.162500 0.120000 -0.047500
v -0.162500 0.117500 -0.050000
v -0.165000 0.117500 -0.047500
v -0.162500 0.119810 -0.048457
v -0.162500 0.119268 -0.049268
v -0.163457 0.119810 -0.047500
v -0.163481 0.119580 -0.048481
v -0.163431 0.119141 -0.049141
v -0.163943 0.118943 -0.048943
v -0.163457 0.117500 -0.049810
v -0.164268 0.117500 -0.049268
v -0.162500 0.118457 -0.049810
v -0.163481 0.118481 -0.049580
v -0.164141 0.118431 -0.049141
v -0.164810 0.118457 -0.047500
v -0.164268 0.119268 -0.047500
v -0.164810 0.117500 -0.048457
v -0.164580 0.118481 -0.048481
v -0.164141 0.119141 -0.048431
v -0.060000 0.112500 0.000000
v -0.057500 0.115000 0.000000
v -0.059810 0.113457 0.000000
v -0.059268 0.114268 0.000000
v -0.058457 0.114810 0.000000
v 0.162500 -0.120000 0.047500
v 0.165000 -0.117500 0.047500
v 0.162500 -0.117500 0.050000
v 0.163457 -0.119810 0.047500
v 0.164268 -0.119268 0.047500
v 0.162500 -0.119810 0.048457
v 0.163481 -0.119580 0.048481
v 0.164141 -0.119141 0.048431
v 0.163943 -0.118943 0.048943
v 0.164810 -0.117500 0.048457
v 0.164268 -0.117500 0.049268
v 0.164810 -0.118457 0.047500
v 0.164580 -0.118481 0.048481
v 0.164141 -0.118431 0.049141
v 0.162500 -0.118457 0.049810
v 0.162500 -0.119268 0.049268
v 0.163457 -0.117500 0.049810
v 0.163481 -0.118481 0.049580
v 0.163431 -0.119141 0.049141
v 0.162500 0.120000 0.047500
v 0.162500 0.117500 0.050000
v 0.165000 0.117500 0.047500
v 0.162500 0.119810 0.048457
v 0.162500 0.119268 0.049268
v 0.163457 0.119810 0.047500
v 0.163481 0.119580 0.048481
v 0.163431 0.119141 0.049141
v 0.163943 0.118943 0.048943
v 0.163457 0.117500 0.049810
v 0.164268 0.117500 0.049268
v 0.162500 0.118457 0.049810
v 0.163481 0.118481 0.049580
v 0.164141 0.118431 0.049141
v 0.164810 0.118457 0.047500
v 0.164268 0.119268 0.047500
v 0.164810 0.117500 0.048457
v 0.164580 0.118481 0.048481
v 0.164141 0.119141 0.048431
v 0.165000 -0.117500 -0.047500
v 0.162500 -0.120000 -0.047500
v 0.162500 -0.117500 -0.050000
v 0.164810 -0.118457 -0.047500
v 0.164268 -0.119268 -0.047500
v 0.164810 -0.117500 -0.048457
v 0.164580 -0.118481 -0.048481
v 0.164141 -0.119141 -0.048431
v 0.163943 -0.118943 -0.048943
v 0.162500 -0.119810 -0.048457
v 0.162500 -0.119268 -0.049268
v 0.163457 -0.119810 -0.047500
v 0.163481 -0.119580 -0.048481
v 0.163431 -0.119141 -0.049141
v 0.163457 -0.117500 -0.049810
v 0.164268 -0.117500 -0.049268
v 0.162500 -0.118457 -0.049810
v 0.163481 -0.118481 -0.049580
v 0.164141 -0.118431 -0.049141
v 0.060000 0.077500 0.000000
v 0.057500 0.075000 0.000000
v 0.059810 0.076543 0.000000
v 0.059268 0.075732 0.000000
v 0.058457 0.075190 0.000000
v 0.165000 0.117500 -0.047500
v 0.162500 0.117500 -0.050000
v 0.162500 0.120000 -0.047500
v 0.164810 0.117500 -0.048457
v 0.164268 0.117500 -0.049268
v 0.164810 0.118457 -0.047500
v 0.164580 0.118481 -0.048481
v 0.164141 0.118431 -0.049141
v 0.163943 0.118943 -0.048943
v 0.162500 0.118457 -0.049810
v 0.162500 0.119268 -0.049268
v 0.163457 0.117500 -0.049810
v 0.163481 0.118481 -0.049580
v 0.163431 0.119141 -0.049141
v 0.163457 0.119810 -0.047500
v 0.164268 0.119268 -0.047500
v 0.162500 0.119810 -0.048457
v 0.163481 0.119580 -0.048481
v 0.164141 0.119141 -0.048431
v 0.057500 0.115000 0.000000
v 0.060000 0.112500 0.000000
v 0.058457 0.114810 0.000000
v 0.059268 0.114268 0.000000
v 0.059810 0.113457 0.000000
v -0.060000 0.112500 0.047500
v -0.057500 0.115000 0.047500
v -0.062500 0.117500 0.050000
v -0.059810 0.113457 0.047500
v -0.059268 0.114268 0.047500
v -0.060190 0.113647 0.048457
v -0.060000 0.114235 0.048423
v -0.059669 0.114669 0.048399
v -0.060000 0.115000 0.048938
v -0.058647 0.115190 0.048457
v -0.060000 0.115732 0.049268
v -0.058457 0.114810 0.047500
v -0.059235 0.115000 0.048423
v -0.060000 0.115331 0.049162
v -0.061543 0.116353 0.049810
v -0.060732 0.115000 0.049268
v -0.061353 0.116543 0.049810
v -0.060765 0.115765 0.049533
v -0.060331 0.115000 0.049162
v -0.057500 0.075000 0.047500
v -0.060000 0.077500 0.047500
v -0.062500 0.072500 0.050000
v -0.058457 0.075190 0.047500
v -0.059268 0.075732 0.047500
v -0.058647 0.074810 0.048457
v -0.059235 0.075000 0.048423
v -0.059669 0.075331 0.048399
v -0.060000 0.075000 0.048938
v -0.060190 0.076353 0.048457
v -0.060732 0.075000 0.049268
v -0.059810 0.076543 0.047500
v -0.060000 0.075765 0.048423
v -0.060331 0.075000 0.049162
v -0.061353 0.073457 0.049810
v -0.060000 0.074268 0.049268
v -0.061543 0.073647 0.049810
v -0.060765 0.074235 0.049533
v -0.060000 0.074669 0.049162
v 0.057500 0.075000 0.047500
v 0.062500 0.072500 0.050000
v 0.060000 0.077500 0.047500
v 0.058647 0.074810 0.048457
v 0.060000 0.074268 0.049268
v 0.058457 0.075190 0.047500
v 0.059235 0.075000 0.048423
v 0.060000 0.074669 0.049162
v 0.060000 0.075000 0.048938
v 0.061543 0.073647 0.049810
v 0.060732 0.075000 0.049268
v 0.061353 0.073457 0.049810
v 0.060765 0.074235 0.049533
v 0.060331 0.075000 0.049162
v 0.059810 0.076543 0.047500
v 0.059268 0.075732 0.047500
v 0.060190 0.076353 0.048457
v 0.060000 0.075765 0.048423
v 0.059669 0.075331 0.048399
v 0.060000 0.112500 0.047500
v 0.062500 0.117500 0.050000
v 0.057500 0.115000 0.047500
v 0.060190 0.113647 0.048457
v 0.060732 0.115000 0.049268
v 0.059810 0.113457 0.047500
v 0.060000 0.114235 0.048423
v 0.060331 0.115000 0.049162
v 0.060000 0.115000 0.048938
v 0.061353 0.116543 0.049810
v 0.060000 0.115732 0.049268
v 0.061543 0.116353 0.049810
v 0.060765 0.115765 0.049533
v 0.060000 0.115331 0.049162
v 0.058457 0.114810 0.047500
v 0.059268 0.114268 0.047500
v 0.058647 0.115190 0.048457
v 0.059235 0.115000 0.048423
v 0.059669 0.114669 0.048399
v -0.060000 0.077500 -0.047500
v -0.057500 0.075000 -0.047500
v -0.062500 0.072500 -0.050000
v -0.059810 0.076543 -0.047500
v -0.059268 0.075732 -0.047500
v -0.060190 0.076353 -0.048457
v -0.060000 0.075765 -0.048423
v -0.059669 0.075331 -0.048399
v -0.060000 0.075000 -0.048938
v -0.058647 0.074810 -0.048457
v -0.060000 0.074268 -0.049268
v -0.058457 0.075190 -0.047500
v -0.059235 0.075000 -0.048423
v -0.060000 0.074669 -0.049162
v -0.061543 0.073647 -0.049810
v -0.060732 0.075000 -0.049268
v -0.061353 0.073457 -0.049810
v -0.060765 0.074235 -0.049533
v -0.060331 0.075000 -0.049162
v -0.060000 0.112500 -0.047500
v -0.062500 0.117500 -0.050000
v -0.057500 0.115000 -0.047500
v -0.060190 0.113647 -0.048457
v -0.060732 0.115000 -0.049268
v -0.059810 0.113457 -0.047500
v -0.060000 0.114235 -0.048423
v -0.060331 0.115000 -0.049162
v -0.060000 0.115000 -0.048938
v -0.061353 0.116543 -0.049810
v -0.060000 0.115732 -0.049268
v -0.061543 0.116353 -0.049810
v -0.060765 0.115765 -0.049533
v -0.060000 0.115331 -0.049162
v -0.058457 0.114810 -0.047500
v -0.059268 0.114268 -0.047500
v -0.058647 0.115190 -0.048457
v -0.059235 0.115000 -0.048423
v -0.059669 0.114669 -0.048399
v 0.060000 0.077500 -0.047500
v 0.062500 0.072500 -0.050000
v 0.057500 0.075000 -0.047500
v 0.060190 0.076353 -0.048457
v 0.060732 0.075000 -0.049268
v 0.059810 0.076543 -0.047500
v 0.060000 0.075765 -0.048423
v 0.060331 0.075000 -0.049162
v 0.060000 0.075000 -0.048938
v 0.061353 0.073457 -0.049810
v 0.060000 0.074268 -0.049268
v 0.061543 0.073647 -0.049810
v 0.060765 0.074235 -0.049533
v 0.060000 0.074669 -0.049162
v 0.058457 0.075190 -0.047500
v 0.059268 0.075732 -0.047500
v 0.058647 0.074810 -0.048457
v 0.059235 0.075000 -0.048423
v 0.059669 0.075331 -0.048399
v 0.060000 0.112500 -0.047500
v 0.057500 0.115000 -0.047500
v 0.062500 0.117500 -0.050000
v 0.059810 0.113457 -0.047500
v 0.059268 0.114268 -0.047500
v 0.060190 0.113647 -0.048457
v 0.060000 0.114235 -0.048423
v 0.059669 0.114669 -0.048399
v 0.060000 0.115000 -0.048938
v 0.058647 0.115190 -0.048457
v 0.060000 0.115732 -0.049268
v 0.058457 0.114810 -0.047500
v 0.059235 0.115000 -0.048423
v 0.060000 0.115331 -0.049162
v 0.061543 0.116353 -0.049810
v 0.060732 0.115000 -0.049268
v 0.061353 0.116543 -0.049810
v 0.060765 0.115765 -0.049533
v 0.060331 0.115000 -0.049162
vn -0.2049 -0.9571 0.2049
vn -0.1818 -0.8152 0.5500
vn -0.5500 -0.8152 0.1818
vn -0.4931 -0.7167 0.4931
vn -0.2049 -0.2049 0.9571
vn -0.5499 -0.1818 0.8152
vn -0.1818 -0.5500 0.8152
vn -0.4931 -0.4931 0.7167
vn -0.9571 -0.2049 0.2049
vn -0.8152 -0.5500 0.1818
vn -0.8152 -0.1818 0.5499
vn -0.7167 -0.4931 0.4931
vn -0.2381 0.2382 0.9416
vn -0.2144 0.4981 0.8402
vn -0.4981 0.2144 0.8402
vn -0.4477 0.4476 0.7741
vn -0.2381 0.9416 0.2381
vn -0.4981 0.8402 0.2144
vn -0.2144 0.8402 0.4981
vn -0.4476 0.7741 0.4476
vn -0.9416 0.2382 0.2382
vn -0.8402 0.2144 0.4981
vn -0.8402 0.4981 0.2144
vn -0.7741 0.4477 0.4476
vn -0.2049 -0.9571 -0.2049
vn -0.5500 -0.8152 -0.1818
vn -0.1818 -0.8152 -0.5500
vn -0.4931 -0.7167 -0.4931
vn -0.9571 -0.2049 -0.2049
vn -0.8152 -0.1818 -0.5499
vn -0.8152 -0.5500 -0.1818
vn -0.7167 -0.4931 -0.4931
vn -0.2049 -0.2049 -0.9571
vn -0.1818 -0.5499 -0.8152
vn -0.5499 -0.1818 -0.8152
vn -0.4931 -0.4931 -0.7167
vn -0.2049 0.9571 -0.2049
vn -0.1818 0.8152 -0.5500
vn -0.5500 0.8152 -0.1818
vn -0.4931 0.7167 -0.4931
vn -0.2049 0.2049 -0.9571
vn -0.5499 0.1818 -0.8152
vn -0.1818 0.5500 -0.8152
vn -0.4931 0.4931 -0.7167
vn -0.9571 0.2049 -0.2049
vn -0.8152 0.5500 -0.1818
vn -0.8152 0.1818 -0.5499
vn -0.7167 0.4931 -0.4931
vn 0.2049 -0.9571 0.2049
vn 0.5500 -0.8152 0.1818
vn 0.1818 -0.8152 0.5500
vn 0.4931 -0.7167 0.4931
vn 0.9571 -0.2049 0.2049
vn 0.8152 -0.1818 0.5499
vn 0.8152 -0.5500 0.1818
vn 0.7167 -0.4931 0.4931
vn 0.2049 -0.2049 0.9571
vn 0.1818 -0.5499 0.8152
vn 0.5499 -0.1818 0.8152
vn 0.4931 -0.4931 0.7167
vn 0.2049 0.9571 0.2049
vn 0.1818 0.8152 0.5500
vn 0.5500 0.8152 0.1818
vn 0.4931 0.7167 0.4931
vn 0.2049 0.2049 0.9571
vn 0.5499 0.1818 0.8152
vn 0.1818 0.5500 0.8152
vn 0.4931 0.4931 0.7167
vn 0.9571 0.2049 0.2049
vn 0.8152 0.5500 0.1818
vn 0.8152 0.1818 0.5499
vn 0.7167 0.4931 0.4931
vn 0.9571 -0.2049 -0.2049
vn 0.8152 -0.5500 -0.1818
vn 0.8152 -0.1818 -0.5499
vn 0.7167 -0.4931 -0.4931
vn 0.2049 -0.9571 -0.2049
vn 0.1818 -0.8152 -0.5500
vn 0.5500 -0.8152 -0.1818
vn 0.4931 -0.7167 -0.4931
vn 0.2049 -0.2049 -0.9571
vn 0.5499 -0.1818 -0.8152
vn 0.1818 -0.5500 -0.8152
vn 0.4931 -0.4931 -0.7167
vn 0.9571 0.2049 -0.2049
vn 0.8152 0.1818 -0.5499
vn 0.8152 0.5500 -0.1818
vn 0.7167 0.4931 -0.4931
vn 0.2049 0.2049 -0.9571
vn 0.1818 0.5499 -0.8152
vn 0.5499 0.1818 -0.8152
vn 0.4931 0.4931 -0.7167
vn 0.2049 0.9571 -0.2049
vn 0.5500 0.8152 -0.1818
vn 0.1818 0.8152 -0.5500
vn 0.4931 0.7167 -0.4931
vn 0.8930 -0.2114 0.3973
vn 0.6962 -0.4782 0.5354
vn 0.5289 -0.3484 0.7739
vn 0.5601 -0.4625 0.6873
vn 0.2114 -0.8930 0.3973
vn 0.3484 -0.5289 0.7739
vn 0.4782 -0.6962 0.5354
vn 0.4625 -0.5601 0.6873
vn 0.1322 -0.1322 0.9824
vn 0.1447 -0.3187 0.9367
vn 0.3188 -0.1447 0.9367
vn 0.3410 -0.3409 0.8761
vn 0.2114 0.8930 0.3973
vn 0.4782 0.6962 0.5354
vn 0.3484 0.5289 0.7739
vn 0.4625 0.5601 0.6873
vn 0.8930 0.2114 0.3973
vn 0.5289 0.3484 0.7739
vn 0.6962 0.4782 0.5354
vn 0.5601 0.4625 0.6873
vn 0.1322 0.1322 0.9824
vn 0.3187 0.1447 0.9367
vn 0.1447 0.3187 0.9367
vn 0.3410 0.3409 0.8761
vn -0.2114 0.8930 0.3973
vn -0.3484 0.5289 0.7739
vn -0.4782 0.6962 0.5354
vn -0.4625 0.5601 0.6873
vn -0.1322 0.1322 0.9824
vn -0.1447 0.3187 0.9367
vn -0.3187 0.1447 0.9367
vn -0.3409 0.3409 0.8761
vn -0.8930 0.2114 0.3973
vn -0.6962 0.4782 0.5354
vn -0.5289 0.3484 0.7739
vn -0.5601 0.4625 0.6873
vn -0.8930 -0.2114 0.3973
vn -0.5289 -0.3484 0.7739
vn -0.6962 -0.4782 0.5354
vn -0.5601 -0.4625 0.6873
vn -0.1322 -0.1322 0.9824
vn -0.3187 -0.1447 0.9367
vn -0.1447 -0.3187 0.9367
vn -0.3409 -0.3409 0.8761
vn -0.2114 -0.8930 0.3973
vn -0.4782 -0.6962 0.5354
vn -0.3484 -0.5289 0.7739
vn -0.4625 -0.5601 0.6873
vn 0.8930 0.2114 -0.3973
vn 0.6962 0.4782 -0.5354
vn 0.5289 0.3484 -0.7739
vn 0.5601 0.4625 -0.6873
vn 0.2114 0.8930 -0.3973
vn 0.3484 0.5289 -0.7739
vn 0.4782 0.6962 -0.5354
vn 0.4625 0.5601 -0.6873
vn 0.1322 0.1322 -0.9824
vn 0.1447 0.3187 -0.9367
vn 0.3187 0.1447 -0.9367
vn 0.3409 0.3409 -0.8761
vn 0.8930 -0.2114 -0.3973
vn 0.5289 -0.3484 -0.7739
vn 0.6962 -0.4782 -0.5354
vn 0.5601 -0.4625 -0.6873
vn 0.1322 -0.1322 -0.9824
vn 0.3187 -0.1447 -0.9367
vn 0.1447 -0.3187 -0.9367
vn 0.3409 -0.3409 -0.8761
vn 0.2114 -0.8930 -0.3973
vn 0.4782 -0.6962 -0.5354
vn 0.3484 -0.5289 -0.7739
vn 0.4625 -0.5601 -0.6873
vn -0.8930 0.2114 -0.3973
vn -0.5289 0.3484 -0.7739
vn -0.6962 0.4782 -0.5354
vn -0.5601 0.4625 -0.6873
vn -0.1322 0.1322 -0.9824
vn -0.3187 0.1447 -0.9367
vn -0.1447 0.3187 -0.9367
vn -0.3410 0.3409 -0.8761
vn -0.2114 0.8930 -0.3973
vn -0.4782 0.6962 -0.5354
vn -0.3484 0.5289 -0.7739
vn -0.4625 0.5601 -0.6873
vn -0.8930 -0.2114 -0.3973
vn -0.6962 -0.4782 -0.5354
vn -0.5289 -0.3484 -0.7739
vn -0.5601 -0.4625 -0.6873
vn -0.2114 -0.8930 -0.3973
vn -0.3484 -0.5289 -0.7739
vn -0.4782 -0.6962 -0.5354
vn -0.4625 -0.5601 -0.6873
vn -0.1322 -0.1322 -0.9824
vn -0.1447 -0.3187 -0.9367
vn -0.3188 -0.1447 -0.9367
vn -0.3410 -0.3409 -0.8761
vn -0.9808 -0.1951 -0.0000
vn -0.8315 -0.5556 -0.0000
vn -0.5556 -0.8315 -0.0000
vn -0.1951 -0.9808 -0.0000
vn -0.1951 -0.0000 0.9808
vn -0.5556 -0.0000 0.8315
vn -0.8315 -0.0000 0.5556
vn -0.9808 -0.0000 0.1951
vn -0.1951 0.9808 -0.0000
vn -0.5556 0.8315 -0.0000
vn -0.8315 0.5556 -0.0000
vn -0.9808 0.1951 -0.0000
vn -0.9808 -0.0000 -0.1951
vn -0.8315 -0.0000 -0.5556
vn -0.5556 -0.0000 -0.8315
vn -0.1951 -0.0000 -0.9808
vn 0.1951 -0.0000 -0.9808
vn 0.5556 -0.0000 -0.8315
vn 0.8315 -0.0000 -0.5556
vn 0.9808 -0.0000 -0.1951
vn -0.0000 -0.1951 -0.9808
vn -0.0000 -0.5556 -0.8315
vn -0.0000 -0.8315 -0.5556
vn -0.0000 -0.9808 -0.1951
vn -0.0000 0.9808 -0.1951
vn -0.0000 0.8315 -0.5556
vn -0.0000 0.5556 -0.8315
vn -0.0000 0.1951 -0.9808
vn 0.1951 -0.9808 -0.0000
vn 0.5556 -0.8315 -0.0000
vn 0.8315 -0.5556 -0.0000
vn 0.9808 -0.1951 -0.0000
vn 0.9808 0.1951 -0.0000
vn 0.8315 0.5556 -0.0000
vn 0.5556 0.8315 -0.0000
vn 0.1951 0.9808 -0.0000
vn 0.9808 -0.0000 0.1951
vn 0.8315 -0.0000 0.5556
vn 0.5556 -0.0000 0.8315
vn 0.1951 -0.0000 0.9808
vn -0.0000 0.1951 0.9808
vn -0.0000 0.5556 0.8315
vn -0.0000 0.8315 0.5556
vn -0.0000 0.9808 0.1951
vn -0.0000 -0.9808 0.1951
vn -0.0000 -0.8315 0.5556
vn -0.0000 -0.5556 0.8315
vn -0.0000 -0.1951 0.9808
vn -0.0000 -1.0000 -0.0000
vn -1.0000 -0.0000 -0.0000
vn -0.0000 -0.0000 1.0000
vn -0.0000 -0.2676 0.9635
vn -0.0000 1.0000 -0.0000
vn -0.0000 -0.0000 -1.0000
vn 1.0000 -0.0000 -0.0000
vn -0.0000 -0.2676 -0.9635
vt 0.126894 0.743750
vt 0.126894 0.746142
vt 0.126151 0.746202
vt 0.126169 0.743750
vt 0.126894 0.750000
vt 0.126189 0.750000
vt 0.125000 0.746077
vt 0.125000 0.743750
vt 0.125800 0.750000
vt 0.377604 0.998106
vt 0.377604 0.998831
vt 0.376583 0.998849
vt 0.376608 0.998106
vt 0.377604 1.000000
vt 0.376634 1.000000
vt 0.375000 0.998811
vt 0.375000 0.998106
vt 0.376101 1.000000
vt 0.377604 0.006250
vt 0.376608 0.006250
vt 0.376583 0.003798
vt 0.377604 0.003858
vt 0.375000 0.006250
vt 0.375000 0.003923
vt 0.376634 0.000000
vt 0.377604 0.000000
vt 0.375000 0.002642
vt 0.622396 0.998106
vt 0.623392 0.998106
vt 0.623357 0.998805
vt 0.622396 0.998831
vt 0.625000 0.998106
vt 0.625000 0.998787
vt 0.623333 1.000000
vt 0.622396 1.000000
vt 0.625000 0.999195
vt 0.873106 0.743750
vt 0.873831 0.743750
vt 0.873805 0.746058
vt 0.873106 0.746142
vt 0.875000 0.743750
vt 0.875000 0.745999
vt 0.873787 0.750000
vt 0.873106 0.750000
vt 0.875000 0.747344
vt 0.622396 0.006250
vt 0.622396 0.003858
vt 0.623357 0.003942
vt 0.623392 0.006250
vt 0.622396 0.000000
vt 0.623333 0.000000
vt 0.625000 0.004001
vt 0.625000 0.006250
vt 0.623893 0.000000
vt 0.126894 0.506250
vt 0.126169 0.506250
vt 0.126151 0.503798
vt 0.126894 0.503858
vt 0.125000 0.506250
vt 0.125000 0.503923
vt 0.126189 0.500000
vt 0.126894 0.500000
vt 0.125000 0.502642
vt 0.377604 0.243750
vt 0.377604 0.246142
vt 0.376583 0.246202
vt 0.376608 0.243750
vt 0.377604 0.250000
vt 0.376634 0.250000
vt 0.375000 0.246077
vt 0.375000 0.243750
vt 0.375550 0.250400
vt 0.377604 0.251894
vt 0.376608 0.251894
vt 0.376583 0.251151
vt 0.377604 0.251169
vt 0.375000 0.251894
vt 0.375000 0.251189
vt 0.873106 0.506250
vt 0.873106 0.503858
vt 0.873849 0.503798
vt 0.873831 0.506250
vt 0.873106 0.500000
vt 0.873811 0.500000
vt 0.875000 0.503923
vt 0.875000 0.506250
vt 0.874200 0.500000
vt 0.622396 0.251894
vt 0.622396 0.251169
vt 0.623417 0.251151
vt 0.623392 0.251894
vt 0.622396 0.250000
vt 0.623366 0.250000
vt 0.625000 0.251189
vt 0.625000 0.251894
vt 0.624450 0.248679
vt 0.622396 0.243750
vt 0.623392 0.243750
vt 0.623417 0.246202
vt 0.622396 0.246142
vt 0.625000 0.243750
vt 0.625000 0.246077
vt 0.373106 0.743750
vt 0.373831 0.743750
vt 0.373849 0.746202
vt 0.373106 0.746142
vt 0.375000 0.743750
vt 0.375000 0.746077
vt 0.374406 0.750594
vt 0.374053 0.750947
vt 0.375367 0.749386
vt 0.377604 0.743750
vt 0.377604 0.746142
vt 0.376583 0.746202
vt 0.376608 0.743750
vt 0.377604 0.750000
vt 0.376634 0.750000
vt 0.377604 0.751894
vt 0.376608 0.751894
vt 0.376583 0.751151
vt 0.377604 0.751169
vt 0.626894 0.743750
vt 0.626894 0.746142
vt 0.626151 0.746202
vt 0.626169 0.743750
vt 0.625947 0.750947
vt 0.625594 0.750594
vt 0.625000 0.746077
vt 0.625000 0.743750
vt 0.624900 0.749119
vt 0.622396 0.751894
vt 0.622396 0.751169
vt 0.623417 0.751151
vt 0.623392 0.751894
vt 0.622396 0.750000
vt 0.623366 0.750000
vt 0.622396 0.743750
vt 0.623392 0.743750
vt 0.623417 0.746202
vt 0.622396 0.746142
vt 0.377604 0.506250
vt 0.376608 0.506250
vt 0.376583 0.503798
vt 0.377604 0.503858
vt 0.375000 0.506250
vt 0.375000 0.503923
vt 0.376634 0.500000
vt 0.377604 0.500000
vt 0.375100 0.500881
vt 0.373106 0.506250
vt 0.373106 0.503858
vt 0.373849 0.503798
vt 0.373831 0.506250
vt 0.374053 0.499053
vt 0.374406 0.499406
vt 0.377604 0.498106
vt 0.377604 0.498831
vt 0.376583 0.498849
vt 0.376608 0.498106
vt 0.622396 0.506250
vt 0.622396 0.503858
vt 0.623417 0.503798
vt 0.623392 0.506250
vt 0.622396 0.500000
vt 0.623366 0.500000
vt 0.625000 0.503923
vt 0.625000 0.506250
vt 0.624633 0.500614
vt 0.622396 0.498106
vt 0.623392 0.498106
vt 0.623417 0.498849
vt 0.622396 0.498831
vt 0.625947 0.499053
vt 0.625594 0.499406
vt 0.626894 0.506250
vt 0.626169 0.506250
vt 0.626151 0.503798
vt 0.626894 0.503858
vt 0.609375 0.052083
vt 0.615354 0.052083
vt 0.620219 0.048237
vt 0.616544 0.048097
vt 0.625000 0.052083
vt 0.625000 0.048336
vt 0.625000 0.041667
vt 0.625000 0.046093
vt 0.869792 0.697917
vt 0.872181 0.701903
vt 0.873406 0.701762
vt 0.871785 0.697917
vt 0.875000 0.708333
vt 0.875000 0.701664
vt 0.875000 0.697917
vt 0.622396 0.922348
vt 0.621201 0.921624
vt 0.620588 0.921034
vt 0.621399 0.921480
vt 0.619792 0.920455
vt 0.130208 0.697917
vt 0.128215 0.697917
vt 0.126594 0.701762
vt 0.127819 0.701903
vt 0.125000 0.697917
vt 0.125000 0.701664
vt 0.125000 0.708333
vt 0.125000 0.703907
vt 0.390625 0.052083
vt 0.383456 0.048097
vt 0.379781 0.048237
vt 0.384646 0.052083
vt 0.375000 0.041667
vt 0.375000 0.048336
vt 0.375000 0.052083
vt 0.575521 0.922348
vt 0.576517 0.921480
vt 0.577328 0.921034
vt 0.576716 0.921624
vt 0.578125 0.920455
vt 0.369792 0.697917
vt 0.372181 0.701903
vt 0.373406 0.701762
vt 0.371785 0.697917
vt 0.375000 0.708333
vt 0.375000 0.701664
vt 0.375000 0.697917
vt 0.375000 0.706120
vt 0.575521 0.827651
vt 0.576716 0.828376
vt 0.577328 0.828966
vt 0.576517 0.828521
vt 0.578125 0.829545
vt 0.390625 0.697917
vt 0.384646 0.697917
vt 0.379781 0.701762
vt 0.383456 0.701903
vt 0.609375 0.697917
vt 0.616544 0.701903
vt 0.620219 0.701762
vt 0.615354 0.697917
vt 0.625000 0.708333
vt 0.625000 0.701664
vt 0.625000 0.697917
vt 0.625000 0.706120
vt 0.622396 0.827652
vt 0.621399 0.828521
vt 0.620588 0.828966
vt 0.621201 0.828376
vt 0.619792 0.829545
vt 0.630208 0.697917
vt 0.628215 0.697917
vt 0.626594 0.701762
vt 0.627819 0.701903
vt 0.390625 0.197917
vt 0.384646 0.197917
vt 0.379781 0.201763
vt 0.383456 0.201903
vt 0.375000 0.197917
vt 0.375000 0.201664
vt 0.375000 0.208333
vt 0.375000 0.203907
vt 0.130208 0.552083
vt 0.127819 0.548097
vt 0.126594 0.548238
vt 0.128215 0.552083
vt 0.125000 0.541667
vt 0.125000 0.548336
vt 0.125000 0.552083
vt 0.575521 0.327652
vt 0.576716 0.328376
vt 0.577328 0.328966
vt 0.576517 0.328520
vt 0.578125 0.329545
vt 0.609375 0.197917
vt 0.616544 0.201903
vt 0.620219 0.201763
vt 0.615354 0.197917
vt 0.625000 0.208333
vt 0.625000 0.201664
vt 0.625000 0.197917
vt 0.622396 0.327652
vt 0.621399 0.328520
vt 0.620588 0.328966
vt 0.621201 0.328376
vt 0.619792 0.329545
vt 0.869792 0.552083
vt 0.871785 0.552083
vt 0.873406 0.548237
vt 0.872181 0.548097
vt 0.875000 0.552083
vt 0.875000 0.548336
vt 0.875000 0.541667
vt 0.875000 0.546093
vt 0.390625 0.552083
vt 0.383456 0.548097
vt 0.379781 0.548237
vt 0.384646 0.552083
vt 0.375000 0.541667
vt 0.375000 0.548336
vt 0.375000 0.552083
vt 0.375000 0.543880
vt 0.575521 0.422348
vt 0.576517 0.421480
vt 0.577328 0.421034
vt 0.576716 0.421624
vt 0.578125 0.420455
vt 0.369792 0.552083
vt 0.371785 0.552083
vt 0.373406 0.548237
vt 0.372181 0.548097
vt 0.609375 0.552083
vt 0.615354 0.552083
vt 0.620219 0.548237
vt 0.616544 0.548097
vt 0.625000 0.552083
vt 0.625000 0.548336
vt 0.625000 0.541667
vt 0.625000 0.543880
vt 0.630208 0.552083
vt 0.627819 0.548097
vt 0.626594 0.548237
vt 0.628215 0.552083
vt 0.622396 0.422348
vt 0.621201 0.421624
vt 0.620588 0.421034
vt 0.621399 0.421480
vt 0.619792 0.420455
vt 0.390625 0.250000
vt 0.384646 0.250000
vt 0.375000 0.250000
vt 0.125000 0.500000
vt 0.128215 0.500000
vt 0.130208 0.500000
vt 0.869792 0.500000
vt 0.871785 0.500000
vt 0.875000 0.500000
vt 0.625000 0.250000
vt 0.615354 0.250000
vt 0.609375 0.250000
vt 0.609375 0.500000
vt 0.615354 0.500000
vt 0.625000 0.500000
vt 0.628215 0.500000
vt 0.630208 0.500000
vt 0.369792 0.500000
vt 0.371785 0.500000
vt 0.375000 0.500000
vt 0.384646 0.500000
vt 0.390625 0.500000
vt 0.609375 0.000000
vt 0.615354 0.000000
vt 0.625000 0.000000
vt 0.875000 0.750000
vt 0.871785 0.750000
vt 0.869792 0.750000
vt 0.130208 0.750000
vt 0.128215 0.750000
vt 0.125000 0.750000
vt 0.375000 0.000000
vt 0.384646 0.000000
vt 0.390625 0.000000
vt 0.390625 0.750000
vt 0.384646 0.750000
vt 0.375000 0.750000
vt 0.371785 0.750000
vt 0.369792 0.750000
vt 0.630208 0.750000
vt 0.628215 0.750000
vt 0.625000 0.750000
vt 0.615354 0.750000
vt 0.609375 0.750000
s 0
usemtl 
f 1/1/1 4/2/1 7/3/1 6/4/1
f 4/2/2 5/5/2 8/6/2 7/3/2
f 6/4/3 7/3/3 19/7/3 16/8/3
f 7/3/4 8/6/4 9/9/4 19/7/4
f 2/10/5 10/11/5 13/12/5 12/13/5
f 10/11/6 11/14/6 14/15/6 13/12/6
f 12/13/7 13/12/7 8/16/7 5/17/7
f 13/12/8 14/15/8 9/18/8 8/16/8
f 3/19/9 15/20/9 18/21/9 17/22/9
f 15/20/10 16/23/10 19/24/10 18/21/10
f 17/22/11 18/21/11 14/25/11 11/26/11
f 18/21/12 19/24/12 9/27/12 14/25/12
f 20/28/13 23/29/13 26/30/13 25/31/13
f 23/29/14 24/32/14 27/33/14 26/30/14
f 25/31/15 26/30/15 38/34/15 35/35/15
f 26/30/16 27/33/16 28/36/16 38/34/16
f 21/37/17 29/38/17 32/39/17 31/40/17
f 29/38/18 30/41/18 33/42/18 32/39/18
f 31/40/19 32/39/19 27/43/19 24/44/19
f 32/39/20 33/42/20 28/45/20 27/43/20
f 22/46/21 34/47/21 37/48/21 36/49/21
f 34/47/22 35/50/22 38/51/22 37/48/22
f 36/49/23 37/48/23 33/52/23 30/53/23
f 37/48/24 38/51/24 28/54/24 33/52/24
f 39/55/25 42/56/25 45/57/25 44/58/25
f 42/56/26 43/59/26 46/60/26 45/57/26
f 44/58/27 45/57/27 57/61/27 54/62/27
f 45/57/28 46/60/28 47/63/28 57/61/28
f 40/64/29 48/65/29 51/66/29 50/67/29
f 48/65/30 49/68/30 52/69/30 51/66/30
f 50/67/31 51/66/31 46/70/31 43/71/31
f 51/66/32 52/69/32 47/72/32 46/70/32
f 41/73/33 53/74/33 56/75/33 55/76/33
f 53/74/34 54/77/34 57/78/34 56/75/34
f 55/76/35 56/75/35 52/69/35 49/68/35
f 56/75/36 57/78/36 47/72/36 52/69/36
f 63/79/37 66/80/37 69/81/37 68/82/37
f 66/80/38 67/83/38 70/84/38 69/81/38
f 68/82/39 69/81/39 81/85/39 78/86/39
f 69/81/40 70/84/40 71/87/40 81/85/40
f 64/88/41 72/89/41 75/90/41 74/91/41
f 72/89/42 73/92/42 76/93/42 75/90/42
f 74/91/43 75/90/43 70/94/43 67/95/43
f 75/90/44 76/93/44 71/96/44 70/94/44
f 65/97/45 77/98/45 80/99/45 79/100/45
f 77/98/46 78/101/46 81/102/46 80/99/46
f 79/100/47 80/99/47 76/93/47 73/92/47
f 80/99/48 81/102/48 71/96/48 76/93/48
f 87/103/49 90/104/49 93/105/49 92/106/49
f 90/104/50 91/107/50 94/108/50 93/105/50
f 92/106/51 93/105/51 105/109/51 102/110/51
f 93/105/52 94/108/52 95/111/52 105/109/52
f 88/112/53 96/113/53 99/114/53 98/115/53
f 96/113/54 97/116/54 100/117/54 99/114/54
f 98/115/55 99/114/55 94/108/55 91/107/55
f 99/114/56 100/117/56 95/111/56 94/108/56
f 89/118/57 101/119/57 104/120/57 103/121/57
f 101/119/58 102/110/58 105/109/58 104/120/58
f 103/121/59 104/120/59 100/117/59 97/116/59
f 104/120/60 105/109/60 95/111/60 100/117/60
f 106/122/61 109/123/61 112/124/61 111/125/61
f 109/123/62 110/126/62 113/127/62 112/124/62
f 111/125/63 112/124/63 124/128/63 121/129/63
f 112/124/64 113/127/64 114/130/64 124/128/64
f 107/131/65 115/132/65 118/133/65 117/134/65
f 115/132/66 116/135/66 119/136/66 118/133/66
f 117/134/67 118/133/67 113/127/67 110/126/67
f 118/133/68 119/136/68 114/130/68 113/127/68
f 108/137/69 120/138/69 123/139/69 122/140/69
f 120/138/70 121/129/70 124/128/70 123/139/70
f 122/140/71 123/139/71 119/136/71 116/135/71
f 123/139/72 124/128/72 114/130/72 119/136/72
f 125/141/73 128/142/73 131/143/73 130/144/73
f 128/142/74 129/145/74 132/146/74 131/143/74
f 130/144/75 131/143/75 143/147/75 140/148/75
f 131/143/76 132/146/76 133/149/76 143/147/76
f 126/150/77 134/151/77 137/152/77 136/153/77
f 134/151/78 135/154/78 138/155/78 137/152/78
f 136/153/79 137/152/79 132/146/79 129/145/79
f 137/152/80 138/155/80 133/149/80 132/146/80
f 127/156/81 139/157/81 142/158/81 141/159/81
f 139/157/82 140/148/82 143/147/82 142/158/82
f 141/159/83 142/158/83 138/155/83 135/154/83
f 142/158/84 143/147/84 133/149/84 138/155/84
f 149/160/85 152/161/85 155/162/85 154/163/85
f 152/161/86 153/164/86 156/165/86 155/162/86
f 154/163/87 155/162/87 167/166/87 164/167/87
f 155/162/88 156/165/88 157/168/88 167/166/88
f 150/169/89 158/170/89 161/171/89 160/172/89
f 158/170/90 159/173/90 162/174/90 161/171/90
f 160/172/91 161/171/91 156/165/91 153/164/91
f 161/171/92 162/174/92 157/168/92 156/165/92
f 151/175/93 163/176/93 166/177/93 165/178/93
f 163/176/94 164/167/94 167/166/94 166/177/94
f 165/178/95 166/177/95 162/174/95 159/173/95
f 166/177/96 167/166/96 157/168/96 162/174/96
f 173/179/97 176/180/97 179/181/97 178/182/97
f 176/180/98 177/183/98 180/184/98 179/181/98
f 178/182/99 179/181/99 191/185/99 188/185/99
f 179/181/100 180/184/100 181/186/100 191/185/100
f 174/187/101 182/188/101 185/189/101 184/190/101
f 182/188/102 183/191/102 186/191/102 185/189/102
f 184/190/103 185/189/103 180/192/103 177/193/103
f 185/189/104 186/191/104 181/191/104 180/192/104
f 175/194/105 187/195/105 190/196/105 189/197/105
f 187/195/106 188/198/106 191/198/106 190/196/106
f 189/197/107 190/196/107 186/198/107 183/198/107
f 190/196/108 191/198/108 181/198/108 186/198/108
f 192/199/109 195/200/109 198/201/109 197/202/109
f 195/200/110 196/203/110 199/204/110 198/201/110
f 197/202/111 198/201/111 210/205/111 207/205/111
f 198/201/112 199/204/112 200/206/112 210/205/112
f 193/207/113 201/208/113 204/209/113 203/210/113
f 201/208/114 202/211/114 205/211/114 204/209/114
f 203/210/115 204/209/115 199/212/115 196/213/115
f 204/209/116 205/211/116 200/211/116 199/212/116
f 194/214/117 206/215/117 209/216/117 208/217/117
f 206/215/118 207/218/118 210/218/118 209/216/118
f 208/217/119 209/216/119 205/218/119 202/218/119
f 209/216/120 210/218/120 200/218/120 205/218/120
f 211/219/121 214/220/121 217/221/121 216/222/121
f 214/220/122 215/223/122 218/223/122 217/221/122
f 216/222/123 217/221/123 229/224/123 226/225/123
f 217/221/124 218/223/124 219/226/124 229/224/124
f 212/227/125 220/228/125 223/229/125 222/230/125
f 220/228/126 221/231/126 224/231/126 223/229/126
f 222/230/127 223/229/127 218/231/127 215/231/127
f 223/229/128 224/231/128 219/231/128 218/231/128
f 213/232/129 225/233/129 228/234/129 227/235/129
f 225/233/130 226/225/130 229/224/130 228/234/130
f 227/235/131 228/234/131 224/223/131 221/223/131
f 228/234/132 229/224/132 219/226/132 224/223/132
f 230/236/133 233/237/133 236/238/133 235/239/133
f 233/237/134 234/240/134 237/240/134 236/238/134
f 235/239/135 236/238/135 248/241/135 245/242/135
f 236/238/136 237/240/136 238/243/136 248/241/136
f 231/244/137 239/245/137 242/246/137 241/247/137
f 239/245/138 240/248/138 243/248/138 242/246/138
f 241/247/139 242/246/139 237/248/139 234/248/139
f 242/246/140 243/248/140 238/248/140 237/248/140
f 232/249/141 244/250/141 247/251/141 246/252/141
f 244/250/142 245/242/142 248/241/142 247/251/142
f 246/252/143 247/251/143 243/240/143 240/240/143
f 247/251/144 248/241/144 238/243/144 243/240/144
f 249/253/145 252/254/145 255/255/145 254/256/145
f 252/254/146 253/257/146 256/258/146 255/255/146
f 254/256/147 255/255/147 267/259/147 264/259/147
f 255/255/148 256/258/148 257/260/148 267/259/148
f 250/261/149 258/262/149 261/263/149 260/264/149
f 258/262/150 259/265/150 262/265/150 261/263/150
f 260/264/151 261/263/151 256/266/151 253/267/151
f 261/263/152 262/265/152 257/265/152 256/266/152
f 251/268/153 263/269/153 266/270/153 265/271/153
f 263/269/154 264/272/154 267/272/154 266/270/154
f 265/271/155 266/270/155 262/272/155 259/272/155
f 266/270/156 267/272/156 257/272/156 262/272/156
f 268/273/157 271/274/157 274/275/157 273/276/157
f 271/274/158 272/277/158 275/277/158 274/275/158
f 273/276/159 274/275/159 286/278/159 283/279/159
f 274/275/160 275/277/160 276/277/160 286/278/160
f 269/280/161 277/281/161 280/282/161 279/283/161
f 277/281/162 278/284/162 281/284/162 280/282/162
f 279/283/163 280/282/163 275/284/163 272/284/163
f 280/282/164 281/284/164 276/284/164 275/284/164
f 270/285/165 282/286/165 285/287/165 284/288/165
f 282/286/166 283/289/166 286/290/166 285/287/166
f 284/288/167 285/287/167 281/291/167 278/291/167
f 285/287/168 286/290/168 276/292/168 281/291/168
f 287/293/169 290/294/169 293/295/169 292/296/169
f 290/294/170 291/297/170 294/297/170 293/295/170
f 292/296/171 293/295/171 305/298/171 302/299/171
f 293/295/172 294/297/172 295/300/172 305/298/172
f 288/301/173 296/302/173 299/303/173 298/304/173
f 296/302/174 297/305/174 300/305/174 299/303/174
f 298/304/175 299/303/175 294/305/175 291/305/175
f 299/303/176 300/305/176 295/305/176 294/305/176
f 289/306/177 301/307/177 304/308/177 303/309/177
f 301/307/178 302/299/178 305/298/178 304/308/178
f 303/309/179 304/308/179 300/297/179 297/297/179
f 304/308/180 305/298/180 295/300/180 300/297/180
f 306/310/181 309/311/181 312/312/181 311/313/181
f 309/311/182 310/314/182 313/315/182 312/312/182
f 311/313/183 312/312/183 324/316/183 321/316/183
f 312/312/184 313/315/184 314/317/184 324/316/184
f 307/318/185 315/319/185 318/320/185 317/321/185
f 315/319/186 316/316/186 319/316/186 318/320/186
f 317/321/187 318/320/187 313/315/187 310/314/187
f 318/320/188 319/316/188 314/317/188 313/315/188
f 308/322/189 320/323/189 323/324/189 322/325/189
f 320/323/190 321/326/190 324/326/190 323/324/190
f 322/325/191 323/324/191 319/326/191 316/326/191
f 323/324/192 324/326/192 314/326/192 319/326/192
f 3/19/193 40/64/193 50/67/193 15/20/193
f 15/20/194 50/67/194 43/71/194 16/23/194
f 16/8/195 43/59/195 42/56/195 6/4/195
f 6/4/196 42/56/196 39/55/196 1/1/196
f 2/10/197 20/28/197 25/31/197 10/11/197
f 10/11/198 25/31/198 35/35/198 11/14/198
f 11/26/199 35/50/199 34/47/199 17/22/199
f 17/22/200 34/47/200 22/46/200 3/19/200
f 21/37/201 63/79/201 68/82/201 29/38/201
f 29/38/202 68/82/202 78/86/202 30/41/202
f 30/53/203 78/101/203 77/98/203 36/49/203
f 36/49/204 77/98/204 65/97/204 22/46/204
f 40/64/205 65/97/205 79/100/205 48/65/205
f 48/65/206 79/100/206 73/92/206 49/68/206
f 49/68/207 73/92/207 72/89/207 55/76/207
f 55/76/208 72/89/208 64/88/208 41/73/208
f 287/293/205 306/310/205 311/313/205 290/294/205
f 290/294/206 311/313/206 321/316/206 291/297/206
f 291/305/207 321/326/207 320/323/207 298/304/207
f 298/304/208 320/323/208 308/322/208 288/301/208
f 127/156/209 150/169/209 160/172/209 139/157/209
f 139/157/210 160/172/210 153/164/210 140/148/210
f 140/148/211 153/164/211 152/161/211 130/144/211
f 130/144/212 152/161/212 149/160/212 125/141/212
f 41/73/213 127/156/213 141/159/213 53/74/213
f 53/74/214 141/159/214 135/154/214 54/77/214
f 54/62/215 135/154/215 134/151/215 44/58/215
f 44/58/216 134/151/216 126/150/216 39/55/216
f 251/268/209 269/280/209 279/283/209 263/269/209
f 263/269/210 279/283/210 272/284/210 264/272/210
f 264/259/211 272/277/211 271/274/211 254/256/211
f 254/256/212 271/274/212 268/273/212 249/253/212
f 250/261/217 289/306/217 303/309/217 258/262/217
f 258/262/218 303/309/218 297/297/218 259/265/218
f 259/272/219 297/305/219 296/302/219 265/271/219
f 265/271/220 296/302/220 288/301/220 251/268/220
f 63/79/217 151/175/217 165/178/217 66/80/217
f 66/80/218 165/178/218 159/173/218 67/83/218
f 67/95/219 159/173/219 158/170/219 74/91/219
f 74/91/220 158/170/220 150/169/220 64/88/220
f 269/280/213 308/322/213 322/325/213 277/281/213
f 277/281/214 322/325/214 316/326/214 278/284/214
f 278/291/215 316/316/215 315/319/215 284/288/215
f 284/288/216 315/319/216 307/318/216 270/285/216
f 87/103/221 126/150/221 136/153/221 90/104/221
f 90/104/222 136/153/222 129/145/222 91/107/222
f 91/107/223 129/145/223 128/142/223 98/115/223
f 98/115/224 128/142/224 125/141/224 88/112/224
f 108/137/225 149/160/225 154/163/225 120/138/225
f 120/138/226 154/163/226 164/167/226 121/129/226
f 121/129/227 164/167/227 163/176/227 111/125/227
f 111/125/228 163/176/228 151/175/228 106/122/228
f 88/112/229 108/137/229 122/140/229 96/113/229
f 96/113/230 122/140/230 116/135/230 97/116/230
f 97/116/231 116/135/231 115/132/231 103/121/231
f 103/121/232 115/132/232 107/131/232 89/118/232
f 194/214/233 212/227/233 222/230/233 206/215/233
f 206/215/234 222/230/234 215/231/234 207/218/234
f 207/205/235 215/223/235 214/220/235 197/202/235
f 197/202/236 214/220/236 211/219/236 192/199/236
f 175/194/232 194/214/232 208/217/232 187/195/232
f 187/195/231 208/217/231 202/218/231 188/198/231
f 188/185/230 202/211/230 201/208/230 178/182/230
f 178/182/229 201/208/229 193/207/229 173/179/229
f 1/1/237 87/103/237 92/106/237 4/2/237
f 4/2/238 92/106/238 102/110/238 5/5/238
f 5/17/239 102/110/239 101/119/239 12/13/239
f 12/13/240 101/119/240 89/118/240 2/10/240
f 212/227/197 231/244/197 241/247/197 220/228/197
f 220/228/198 241/247/198 234/248/198 221/231/198
f 221/223/199 234/240/199 233/237/199 227/235/199
f 227/235/200 233/237/200 230/236/200 213/232/200
f 174/187/237 232/249/237 246/252/237 182/188/237
f 182/188/238 246/252/238 240/240/238 183/191/238
f 183/198/239 240/248/239 239/245/239 189/197/239
f 189/197/240 239/245/240 231/244/240 175/194/240
f 20/28/233 107/131/233 117/134/233 23/29/233
f 23/29/234 117/134/234 110/126/234 24/32/234
f 24/44/235 110/126/235 109/123/235 31/40/235
f 31/40/236 109/123/236 106/122/236 21/37/236
f 59/327/225 193/207/225 203/210/225 62/328/225
f 62/328/226 203/210/226 196/213/226 61/329/226
f 61/330/227 196/203/227 195/200/227 60/331/227
f 60/331/228 195/200/228 192/199/228 58/332/228
f 83/333/221 174/187/221 184/190/221 86/334/221
f 86/334/222 184/190/222 177/193/222 85/335/222
f 85/336/223 177/183/223 176/180/223 84/337/223
f 84/337/224 176/180/224 173/179/224 82/338/224
f 169/339/193 230/236/193 235/239/193 172/340/193
f 172/340/194 235/239/194 245/242/194 171/341/194
f 171/341/195 245/242/195 244/250/195 170/342/195
f 170/342/196 244/250/196 232/249/196 168/343/196
f 145/344/201 211/219/201 216/222/201 148/345/201
f 148/345/202 216/222/202 226/225/202 147/346/202
f 147/346/203 226/225/203 225/233/203 146/347/203
f 146/347/204 225/233/204 213/232/204 144/348/204
f 82/349/224 268/273/224 273/276/224 84/350/224
f 84/350/223 273/276/223 283/279/223 85/351/223
f 85/352/222 283/289/222 282/286/222 86/353/222
f 86/353/221 282/286/221 270/285/221 83/354/221
f 58/355/228 250/261/228 260/264/228 60/356/228
f 60/356/227 260/264/227 253/267/227 61/357/227
f 61/358/226 253/257/226 252/254/226 62/359/226
f 62/359/225 252/254/225 249/253/225 59/360/225
f 144/361/204 287/293/204 292/296/204 146/362/204
f 146/362/203 292/296/203 302/299/203 147/363/203
f 147/363/202 302/299/202 301/307/202 148/364/202
f 148/364/201 301/307/201 289/306/201 145/365/201
f 168/366/196 307/318/196 317/321/196 170/367/196
f 170/367/195 317/321/195 310/314/195 171/368/195
f 171/368/194 310/314/194 309/311/194 172/369/194
f 172/369/193 309/311/193 306/310/193 169/370/193
f 39/55/241 126/150/241 87/103/241 1/1/241
f 3/19/242 22/46/242 65/97/242 40/64/242
f 194/214/243 175/194/243 20/28/243 2/10/243 89/118/243 107/131/243 231/244/243 212/227/243
f 231/244/244 107/131/244 20/28/244 175/194/244
f 151/175/245 63/79/245 21/37/245 106/122/245
f 308/322/246 150/169/246 127/156/246 41/73/246 64/88/246 269/280/246 251/268/246 288/301/246
f 211/219/245 145/344/245 58/332/245 192/199/245
f 59/327/247 82/338/247 173/179/247 193/207/247
f 250/261/245 58/355/245 145/365/245 289/306/245
f 268/273/247 82/349/247 59/360/247 249/253/247
f 64/88/248 150/169/248 308/322/248 269/280/248
f 174/187/241 83/333/241 168/343/241 232/249/241
f 168/366/241 83/354/241 270/285/241 307/318/241
f 125/141/247 149/160/247 108/137/247 88/112/247
f 287/293/242 144/361/242 169/370/242 306/310/242
f 169/339/242 144/348/242 213/232/242 230/236/242
o TopStrip
v -0.170000 0.117000 0.003000
v -0.170000 0.123000 0.003000
v -0.170000 0.117000 -0.003000
v -0.170000 0.123000 -0.003000
v 0.170000 0.117000 0.003000
v 0.170000 0.123000 0.003000
v 0.170000 0.117000 -0.003000
v 0.170000 0.123000 -0.003000
vn -1.0000 -0.0000 -0.0000
vn -0.0000 -0.0000 -1.0000
vn 1.0000 -0.0000 -0.0000
vn -0.0000 -0.0000 1.0000
vn -0.0000 -1.0000 -0.0000
vn -0.0000 1.0000 -0.0000
vt 0.375000 0.000000
vt 0.625000 0.000000
vt 0.625000 0.250000
vt 0.375000 0.250000
vt 0.625000 0.500000
vt 0.375000 0.500000
vt 0.625000 0.750000
vt 0.375000 0.750000
vt 0.625000 1.000000
vt 0.375000 1.000000
vt 0.125000 0.500000
vt 0.125000 0.750000
vt 0.875000 0.500000
vt 0.875000 0.750000
s 0
usemtl BlackStrip.003
f 325/371/249 326/372/249 328/373/249 327/374/249
f 327/374/250 328/373/250 332/375/250 331/376/250
f 331/376/251 332/375/251 330/377/251 329/378/251
f 329/378/252 330/377/252 326/379/252 325/380/252
f 327/381/253 331/376/253 329/378/253 325/382/253
f 332/375/254 328/383/254 326/384/254 330/377/254
o BottomStrip
v -0.170000 -0.123000 0.003000
v -0.170000 -0.117000 0.003000
v -0.170000 -0.123000 -0.003000
v -0.170000 -0.117000 -0.003000
v 0.170000 -0.123000 0.003000
v 0.170000 -0.117000 0.003000
v 0.170000 -0.123000 -0.003000
v 0.170000 -0.117000 -0.003000
vn -1.0000 -0.0000 -0.0000
vn -0.0000 -0.0000 -1.0000
vn 1.0000 -0.0000 -0.0000
vn -0.0000 -0.0000 1.0000
vn -0.0000 -1.0000 -0.0000
vn -0.0000 1.0000 -0.0000
vt 0.375000 0.000000
vt 0.625000 0.000000
vt 0.625000 0.250000
vt 0.375000 0.250000
vt 0.625000 0.500000
vt 0.375000 0.500000
vt 0.625000 0.750000
vt 0.375000 0.750000
vt 0.625000 1.000000
vt 0.375000 1.000000
vt 0.125000 0.500000
vt 0.125000 0.750000
vt 0.875000 0.500000
vt 0.875000 0.750000
s 0
usemtl BlackStrip.003
f 333/385/255 334/386/255 336/387/255 335/388/255
f 335/388/256 336/387/256 340/389/256 339/390/256
f 339/390/257 340/389/257 338/391/257 337/392/257
f 337/392/258 338/391/258 334/393/258 333/394/258
f 335/395/259 339/390/259 337/392/259 333/396/259
f 340/389/260 336/397/260 334/398/260 338/391/260
o LeftStrip
v -0.168000 -0.125000 0.003000
v -0.168000 0.125000 0.003000
v -0.168000 -0.125000 -0.003000
v -0.168000 0.125000 -0.003000
v -0.162000 -0.125000 0.003000
v -0.162000 0.125000 0.003000
v -0.162000 -0.125000 -0.003000
v -0.162000 0.125000 -0.003000
vn -1.0000 -0.0000 -0.0000
vn -0.0000 -0.0000 -1.0000
vn 1.0000 -0.0000 -0.0000
vn -0.0000 -0.0000 1.0000
vn -0.0000 -1.0000 -0.0000
vn -0.0000 1.0000 -0.0000
vt 0.375000 0.000000
vt 0.625000 0.000000
vt 0.625000 0.250000
vt 0.375000 0.250000
vt 0.625000 0.500000
vt 0.375000 0.500000
vt 0.625000 0.750000
vt 0.375000 0.750000
vt 0.625000 1.000000
vt 0.375000 1.000000
vt 0.125000 0.500000
vt 0.125000 0.750000
vt 0.875000 0.500000
vt 0.875000 0.750000
s 0
usemtl BlackStrip.003
f 341/399/261 342/400/261 344/401/261 343/402/261
f 343/402/262 344/401/262 348/403/262 347/404/262
f 347/404/263 348/403/263 346/405/263 345/406/263
f 345/406/264 346/405/264 342/407/264 341/408/264
f 343/409/265 347/404/265 345/406/265 341/410/265
f 348/403/266 344/411/266 342/412/266 346/405/266
o RightStrip
v 0.162000 -0.125000 0.003000
v 0.162000 0.125000 0.003000
v 0.162000 -0.125000 -0.003000
v 0.162000 0.125000 -0.003000
v 0.168000 -0.125000 0.003000
v 0.168000 0.125000 0.003000
v 0.168000 -0.125000 -0.003000
v 0.168000 0.125000 -0.003000
vn -1.0000 -0.0000 -0.0000
vn -0.0000 -0.0000 -1.0000
vn 1.0000 -0.0000 -0.0000
vn -0.0000 -0.0000 1.0000
vn -0.0000 -1.0000 -0.0000
vn -0.0000 1.0000 -0.0000
vt 0.375000 0.000000
vt 0.625000 0.000000
vt 0.625000 0.250000
vt 0.375000 0.250000
vt 0.625000 0.500000
vt 0.375000 0.500000
vt 0.625000 0.750000
vt 0.375000 0.750000
vt 0.625000 1.000000
vt 0.375000 1.000000
vt 0.125000 0.500000
vt 0.125000 0.750000
vt 0.875000 0.500000
vt 0.875000 0.750000
s 0
usemtl BlackStrip.003
f 349/413/267 350/414/267 352/415/267 351/416/267
f 351/416/268 352/415/268 356/417/268 355/418/268
f 355/418/269 356/417/269 354/419/269 353/420/269
f 353/420/270 354/419/270 350/421/270 349/422/270
f 351/423/271 355/418/271 353/420/271 349/424/271
f 356/417/272 352/425/272 350/426/272 354/419/272
o Cube
v -0.097500 -0.030000 0.052000
v -0.097500 0.030000 0.052000
v -0.097500 -0.030000 0.050000
v -0.097500 0.030000 0.050000
v -0.082500 -0.030000 0.052000
v -0.082500 0.030000 0.052000
v -0.082500 -0.030000 0.050000
v -0.082500 0.030000 0.050000
vn -1.0000 -0.0000 -0.0000
vn -0.0000 -0.0000 -1.0000
vn 1.0000 -0.0000 -0.0000
vn -0.0000 -0.0000 1.0000
vn -0.0000 -1.0000 -0.0000
vn -0.0000 1.0000 -0.0000
vt 0.375000 0.000000
vt 0.625000 0.000000
vt 0.625000 0.250000
vt 0.375000 0.250000
vt 0.625000 0.500000
vt 0.375000 0.500000
vt 0.625000 0.750000
vt 0.375000 0.750000
vt 0.625000 1.000000
vt 0.375000 1.000000
vt 0.125000 0.500000
vt 0.125000 0.750000
vt 0.875000 0.500000
vt 0.875000 0.750000
s 0
usemtl MedicalRed.008
f 357/427/273 358/428/273 360/429/273 359/430/273
f 359/430/274 360/429/274 364/431/274 363/432/274
f 363/432/275 364/431/275 362/433/275 361/434/275
f 361/434/276 362/433/276 358/435/276 357/436/276
f 359/437/277 363/432/277 361/434/277 357/438/277
f 364/431/278 360/439/278 358/440/278 362/433/278
o Cube.001
v -0.120000 -0.007500 0.052000
v -0.120000 0.007500 0.052000
v -0.120000 -0.007500 0.050000
v -0.120000 0.007500 0.050000
v -0.060000 -0.007500 0.052000
v -0.060000 0.007500 0.052000
v -0.060000 -0.007500 0.050000
v -0.060000 0.007500 0.050000
vn -0.0330 -0.1321 0.9907
vn -0.0330 0.1321 0.9907
vn -0.0330 -0.1321 -0.9907
vn -0.0330 0.1321 -0.9907
vn 0.0330 -0.1321 0.9907
vn 0.0330 0.1321 0.9907
vn 0.0330 -0.1321 -0.9907
vn 0.0330 0.1321 -0.9907
vt 0.375000 0.000000
vt 0.625000 0.000000
vt 0.625000 0.250000
vt 0.375000 0.250000
vt 0.625000 0.500000
vt 0.375000 0.500000
vt 0.625000 0.750000
vt 0.375000 0.750000
vt 0.625000 1.000000
vt 0.375000 1.000000
vt 0.125000 0.500000
vt 0.125000 0.750000
vt 0.875000 0.500000
vt 0.875000 0.750000
s 1
usemtl MedicalRed.008
f 365/441/279 366/442/280 368/443/282 367/444/281
f 367/444/281 368/443/282 372/445/286 371/446/285
f 371/446/285 372/445/286 370/447/284 369/448/283
f 369/448/283 370/447/284 366/449/280 365/450/279
f 367/451/281 371/446/285 369/448/283 365/452/279
f 372/445/286 368/453/282 366/454/280 370/447/284
