# Blender 5.1.2
# www.blender.org
mtllib fuel_trail.mtl
o Plane
v 16.330105 0.026978 2.046815
v 16.221657 0.156327 5.526619
v 16.262108 -0.078808 -3.597188
v 15.842537 0.121187 3.146352
v 15.810678 0.165277 6.530016
v 16.018183 0.350850 11.899805
v 16.196661 0.309469 10.426620
v 16.218651 0.156943 5.583895
v 15.903943 0.035373 1.255960
v 16.206726 -0.004744 -0.404706
v 16.138557 -0.039711 -2.233294
v 16.371492 -0.086481 -3.591866
v 16.323263 -0.075955 -3.101695
v 16.346577 -0.024605 -1.708289
v 16.340500 -0.012247 0.163012
v 16.327892 0.110352 3.486156
v 16.318386 0.142653 4.516338
v 16.287060 0.152548 5.173342
v 16.108130 0.156796 5.575222
v 15.982711 0.153434 5.268984
v 15.881907 0.140462 4.486834
v 15.896209 0.034357 1.163013
v 16.012867 0.015776 -0.954693
v 16.144779 -0.055771 -2.700177
v 16.078474 0.372259 12.271523
v 16.124201 0.364251 12.093170
v 16.161444 0.336889 11.439796
v 15.810699 0.213084 7.905460
v 15.860762 0.262773 9.435909
v 15.937937 0.313250 10.851780
v 16.119593 0.151931 5.123614
v 15.997126 0.151902 5.126290
v 15.883327 0.157000 5.604079
v 16.234325 0.258751 9.138870
v 16.261143 0.220076 7.785053
v 16.260979 0.183937 6.543808
v 16.052557 0.013674 -1.240337
v 15.973232 0.014038 -0.213332
v 15.919094 0.022820 0.672484
v 15.943667 0.033675 1.338393
v 16.018353 0.022432 1.033823
v 16.111822 0.005440 0.418520
v 16.285080 -0.004968 -1.347722
v 16.337883 -0.055351 -2.273644
v 16.367620 -0.079320 -3.058551
v 16.343204 -0.085609 -3.724566
v 16.291233 -0.080213 -3.520367
v 16.220732 -0.066460 -3.005832
v 16.292055 0.015823 1.717371
v 16.240858 0.092389 3.148502
v 16.178396 0.140589 4.415291
v 16.253344 -0.006807 0.037002
v 16.161842 0.028609 1.781718
v 16.073410 0.121657 3.524664
v 16.205839 0.000610 -1.431948
v 16.086088 0.007342 0.413082
v 15.978669 0.067296 2.422649
v 16.017027 0.310828 10.679983
v 16.092588 0.304691 10.351437
v 16.164227 0.293150 9.811710
v 15.960374 0.251903 9.022264
v 16.061081 0.239173 8.610610
v 16.161041 0.223572 8.197502
v 15.916715 0.198309 7.314829
v 16.029530 0.187426 6.868655
v 16.145910 0.181969 6.633104
v 15.999185 0.013512 0.336586
v 16.087297 0.005002 -0.104824
v 16.184193 -0.000863 -0.684238
v 16.065508 0.009672 -0.728281
v 16.157803 0.005280 -1.243297
v 16.247694 -0.019243 -1.759697
v 16.140448 -0.018741 -1.856958
v 16.223194 -0.052744 -2.382189
v 16.298613 -0.067590 -2.770143
vn -0.0823 -0.9961 0.0314
vn -0.0811 -0.9961 0.0346
vn -0.0798 -0.9960 0.0394
vn -0.0779 -0.9960 0.0428
vn -0.0819 -0.9959 0.0381
vn -0.0669 -0.9977 0.0078
vn -0.0835 -0.9958 0.0362
vn -0.0254 -0.9990 0.0368
vn 0.0317 -0.9985 0.0449
vn -0.0068 -0.9995 0.0299
vn 0.0074 -0.9999 0.0139
vn 0.0083 -0.9998 0.0165
vn 0.0077 -0.9999 0.0147
vn 0.0085 -0.9998 0.0170
vn 0.0534 -0.9981 0.0301
vn -0.2254 -0.9738 0.0301
vn -0.0851 -0.9963 0.0143
vn -0.0298 -0.9994 0.0197
vn -0.0324 -0.9988 0.0358
vn -0.1407 -0.9899 0.0187
vn -0.0775 -0.9969 0.0105
vn -0.0394 0.9986 -0.0352
vn -0.0342 0.9988 -0.0354
vn -0.0421 0.9985 -0.0355
vn -0.0409 0.9985 -0.0351
vn -0.0617 0.9973 -0.0395
vn -0.0111 0.9995 -0.0303
vn -0.0131 0.9995 -0.0281
vn -0.0167 0.9996 -0.0241
vn 0.0122 0.9995 -0.0284
vn 0.0098 0.9996 -0.0257
vn 0.0049 0.9997 -0.0222
vn -0.0889 0.9955 -0.0326
vn -0.0314 0.9989 -0.0354
vn 0.0195 0.9993 -0.0308
vn 0.0875 0.9957 -0.0310
vn -0.0104 0.9993 -0.0365
vn -0.0567 0.9980 -0.0273
vn 0.0078 0.9997 -0.0233
vn 0.0065 0.9997 -0.0225
vn 0.0026 0.9998 -0.0202
vn -0.0187 0.9996 -0.0219
vn -0.1057 0.9940 -0.0276
vn -0.0298 0.9991 -0.0318
vn -0.0272 0.9991 -0.0311
vn -0.0369 0.9987 -0.0339
vn 0.0934 0.9956 0.0042
vn 0.1751 0.9845 0.0026
vn -0.0114 0.9992 -0.0388
vn -0.0462 0.9976 -0.0519
vn 0.0531 0.9984 -0.0182
vn 0.0551 0.9984 -0.0150
vn 0.0538 0.9984 -0.0171
vn 0.0556 0.9984 -0.0143
vn 0.0884 0.9961 -0.0050
vn 0.1100 0.9939 0.0049
vn -0.0020 0.9994 -0.0345
vn 0.1250 0.9916 -0.0343
vn 0.1074 0.9941 -0.0133
vn 0.0769 0.9969 -0.0175
vn 0.1562 0.9875 -0.0223
vn -0.1023 0.9932 -0.0548
vn 0.2135 0.9769 0.0022
vn 0.0680 0.9977 -0.0023
vt 0.250000 0.250000
vt 0.500000 0.250000
vt 0.500000 0.500000
vt 0.250000 0.500000
vt 0.750000 0.250000
vt 0.750000 0.500000
vt 0.500000 0.750000
vt 0.250000 0.750000
vt 0.750000 0.750000
vt 0.000000 0.000000
vt 0.250000 0.000000
vt 0.000000 0.250000
vt 0.500000 0.000000
vt 0.750000 0.000000
vt 1.000000 0.000000
vt 1.000000 0.250000
vt 1.000000 0.500000
vt 1.000000 0.750000
vt 1.000000 1.000000
vt 0.750000 1.000000
vt 0.500000 1.000000
vt 0.250000 1.000000
vt 0.000000 0.750000
vt 0.000000 1.000000
vt 0.000000 0.500000
s 1
usemtl Material.002
f 49/1/1 50/2/2 53/3/3 52/4/1
f 50/2/2 51/5/4 54/6/5 53/3/3
f 52/4/6 53/3/6 56/7/6 55/8/6
f 53/3/3 54/6/5 57/9/7 56/7/7
f 1/10/8 16/11/8 49/1/8 15/12/8
f 16/11/9 17/13/9 50/2/9 49/1/9
f 17/13/10 18/14/10 51/5/10 50/2/10
f 18/14/11 2/15/11 19/16/12 51/5/13
f 51/5/13 19/16/12 20/17/14 54/6/14
f 54/6/15 20/17/15 21/18/15 57/9/15
f 57/9/16 21/18/16 4/19/16 22/20/16
f 56/7/17 57/9/17 22/20/17 23/21/17
f 55/8/18 56/7/18 23/21/18 24/22/18
f 13/23/19 55/8/19 24/22/19 3/24/19
f 14/25/20 52/4/20 55/8/20 13/23/20
f 15/12/21 49/1/21 52/4/21 14/25/21
f 58/1/22 59/2/23 62/3/24 61/4/25
f 59/2/26 60/5/26 63/6/26 62/3/26
f 61/4/27 62/3/27 65/7/28 64/8/29
f 62/3/30 63/6/30 66/9/31 65/7/32
f 6/10/33 25/11/33 58/1/33 30/12/33
f 25/11/34 26/13/34 59/2/23 58/1/22
f 26/13/35 27/14/35 60/5/35 59/2/35
f 27/14/36 7/15/36 34/16/36 60/5/36
f 60/5/37 34/16/37 35/17/37 63/6/37
f 63/6/38 35/17/38 36/18/38 66/9/38
f 66/9/31 36/18/39 8/19/39 31/20/40
f 65/7/32 66/9/31 31/20/40 32/21/41
f 64/8/29 65/7/28 32/21/42 33/22/42
f 28/23/43 64/8/43 33/22/43 5/24/43
f 29/25/44 61/4/25 64/8/45 28/23/45
f 30/12/46 58/1/22 61/4/25 29/25/44
f 67/1/47 68/2/47 71/3/47 70/4/47
f 68/2/48 69/5/48 72/6/48 71/3/48
f 70/4/49 71/3/49 74/7/49 73/8/49
f 71/3/50 72/6/50 75/9/50 74/7/50
f 9/10/51 40/11/52 67/1/53 39/12/51
f 40/11/52 41/13/54 68/2/54 67/1/53
f 41/13/55 42/14/55 69/5/55 68/2/55
f 42/14/56 10/15/56 43/16/56 69/5/56
f 69/5/57 43/16/57 44/17/57 72/6/57
f 72/6/58 44/17/58 45/18/58 75/9/58
f 75/9/59 45/18/59 12/19/59 46/20/59
f 74/7/60 75/9/60 46/20/60 47/21/60
f 73/8/61 74/7/61 47/21/61 48/22/61
f 37/23/62 73/8/62 48/22/62 11/24/62
f 38/25/63 70/4/63 73/8/63 37/23/63
f 39/12/64 67/1/64 70/4/64 38/25/64
o Plane.001
v 15.568076 -0.054795 -5.482454
v 16.163656 -0.084107 -4.060945
v 15.232466 -0.078046 -6.884286
v 15.841547 -0.088096 -5.679750
v 15.227084 -0.070657 -6.735107
v 15.290545 -0.062834 -6.422564
v 15.410035 -0.056844 -5.987879
v 15.749307 -0.059053 -4.959219
v 15.925776 -0.066970 -4.496563
v 16.071653 -0.076153 -4.174402
v 16.171289 -0.088286 -4.246285
v 16.112329 -0.089687 -4.631153
v 15.997337 -0.089257 -5.138163
v 15.658067 -0.087048 -6.166822
v 15.477098 -0.085551 -6.557154
v 15.326720 -0.082790 -6.806991
v 15.615006 -0.063888 -5.482819
v 15.813606 -0.071615 -5.011711
v 15.998610 -0.079905 -4.603045
v 15.495991 -0.069547 -5.974711
v 15.701436 -0.076261 -5.526859
v 15.906882 -0.082974 -5.079006
v 15.401877 -0.076020 -6.412318
v 15.589267 -0.080906 -6.042006
v 15.790254 -0.085228 -5.609252
vn 0.1225 0.9917 -0.0383
vn 0.1006 0.9945 -0.0284
vn 0.0975 0.9947 -0.0327
vn 0.0786 0.9966 -0.0238
vn 0.1894 0.9800 -0.0604
vn 0.1553 0.9868 -0.0459
vn 0.1268 0.9914 -0.0337
vn 0.1038 0.9943 -0.0239
vn 0.0809 0.9965 -0.0193
vn 0.0595 0.9981 -0.0150
vn 0.0405 0.9991 -0.0112
vn 0.0553 0.9983 -0.0186
vn 0.0732 0.9969 -0.0276
vn 0.0938 0.9949 -0.0379
vn 0.1215 0.9916 -0.0444
vn 0.1538 0.9867 -0.0520
vt 0.250000 0.250000
vt 0.500000 0.250000
vt 0.500000 0.500000
vt 0.250000 0.500000
vt 0.750000 0.250000
vt 0.750000 0.500000
vt 0.500000 0.750000
vt 0.250000 0.750000
vt 0.750000 0.750000
vt 0.000000 0.000000
vt 0.250000 0.000000
vt 0.000000 0.250000
vt 0.500000 0.000000
vt 0.750000 0.000000
vt 1.000000 0.000000
vt 1.000000 0.250000
vt 1.000000 0.500000
vt 1.000000 0.750000
vt 1.000000 1.000000
vt 0.750000 1.000000
vt 0.500000 1.000000
vt 0.250000 1.000000
vt 0.000000 0.750000
vt 0.000000 1.000000
vt 0.000000 0.500000
s 1
usemtl Material.002
f 92/26/65 93/27/65 96/28/65 95/29/65
f 93/27/66 94/30/66 97/31/66 96/28/66
f 95/29/67 96/28/67 99/32/67 98/33/67
f 96/28/68 97/31/68 100/34/68 99/32/68
f 76/35/69 83/36/69 92/26/69 82/37/69
f 83/36/70 84/38/70 93/27/70 92/26/70
f 84/38/71 85/39/71 94/30/71 93/27/71
f 85/39/72 77/40/72 86/41/72 94/30/72
f 94/30/73 86/41/73 87/42/73 97/31/73
f 97/31/74 87/42/74 88/43/74 100/34/74
f 100/34/75 88/43/75 79/44/75 89/45/75
f 99/32/76 100/34/76 89/45/76 90/46/76
f 98/33/77 99/32/77 90/46/77 91/47/77
f 80/48/78 98/33/78 91/47/78 78/49/78
f 81/50/79 95/29/79 98/33/79 80/48/79
f 82/37/80 92/26/80 95/29/80 81/50/80
o Plane.002
v 15.862709 0.187143 6.190109
v 16.361021 0.180044 5.299051
v 15.884382 0.153437 3.530584
v 16.402727 0.114595 3.163969
v 15.805861 0.162405 4.197941
v 15.809263 0.144387 5.005061
v 15.814313 0.186411 5.703113
v 15.977265 0.195982 6.329117
v 16.112341 0.197037 6.182827
v 16.248890 0.191402 5.813144
v 16.368692 0.270762 4.638103
v 16.402731 0.155120 4.459826
v 16.459654 0.141178 3.587542
v 16.292982 0.103642 2.930003
v 16.165718 0.110159 2.890807
v 16.033340 0.132509 3.074955
v 15.968898 0.186647 5.567817
v 16.126080 0.184561 5.367505
v 16.283936 0.181402 5.067852
v 15.957316 0.176773 4.760569
v 16.129999 0.173616 4.543781
v 16.241652 0.040724 4.876798
v 15.969461 0.156384 3.925376
v 16.140327 0.152746 3.728113
v 16.307499 0.149832 3.620858
vn -0.0623 0.9978 -0.0218
vn -0.0102 0.9999 -0.0137
vn -0.0002 0.9999 -0.0128
vn -0.0560 0.9984 -0.0031
vn 0.0714 0.9968 -0.0359
vn 0.3882 0.9127 -0.1280
vn 0.4602 0.8753 -0.1482
vn -0.0105 0.9996 -0.0251
vn 0.2072 0.9780 0.0221
vn 0.3005 0.9531 0.0355
vn 0.4018 0.9142 0.0537
vn -0.0336 0.9994 -0.0065
vn -0.0129 0.9998 -0.0139
vn -0.0031 0.9999 -0.0145
vn -0.1400 0.9888 0.0525
vn -0.9069 0.3814 -0.1792
vn -0.3758 0.9266 -0.0114
vn -0.4762 0.8790 -0.0233
vn -0.8858 0.4289 -0.1774
vn -0.2855 0.9580 0.0264
vn 0.0432 0.9968 -0.0679
vn 0.0186 0.9982 -0.0579
vn 0.0387 0.9986 -0.0373
vn 0.0458 0.9988 -0.0173
vn -0.1388 0.9897 -0.0339
vn -0.0874 0.9962 -0.0019
vn -0.1473 0.9886 -0.0325
vt 0.249094 0.239801
vt 0.499396 0.243201
vt 0.498792 0.486401
vt 0.248188 0.479602
vt 0.749698 0.246600
vt 0.749396 0.493201
vt 0.498188 0.729602
vt 0.247281 0.719403
vt 0.749094 0.739801
vt 0.000000 0.000000
vt 0.250000 0.000000
vt -0.001208 0.236401
vt 0.500000 0.000000
vt 0.750000 0.000000
vt 1.000000 0.000000
vt 1.000000 0.250000
vt 1.000000 0.500000
vt 1.000000 0.750000
vt 1.000000 1.000000
vt 0.748792 0.986401
vt 0.497584 0.972803
vt 0.246375 0.959204
vt -0.003625 0.709204
vt -0.004833 0.945606
vt -0.002416 0.472803
s 1
usemtl Material.002
f 117/51/81 118/52/82 121/53/83 120/54/84
f 118/52/85 119/55/86 122/56/87 121/53/87
f 120/54/88 121/53/89 124/57/90 123/58/88
f 121/53/89 122/56/91 125/59/91 124/57/90
f 101/60/92 108/61/92 117/51/92 107/62/92
f 108/61/93 109/63/93 118/52/82 117/51/81
f 109/63/94 110/64/94 119/55/86 118/52/85
f 110/64/95 102/65/95 111/66/96 119/55/97
f 119/55/97 111/66/96 112/67/98 122/56/99
f 122/56/99 112/67/98 113/68/100 125/59/100
f 125/59/101 113/68/101 104/69/101 114/70/101
f 124/57/102 125/59/102 114/70/102 115/71/102
f 123/58/103 124/57/103 115/71/103 116/72/103
f 105/73/104 123/58/104 116/72/104 103/74/104
f 106/75/105 120/54/84 123/58/106 105/73/106
f 107/62/107 117/51/81 120/54/84 106/75/105
