# Blender 5.1.2
# www.blender.org
mtllib repair_tool.mtl
o Plane
v -0.100000 0.000000 0.100000
v 0.100000 0.000000 0.100000
v -0.100000 0.000000 -0.100000
v 0.100000 0.000000 -0.100000
v -0.100000 0.000000 -0.090476
v -0.100000 0.000000 -0.080952
v -0.100000 0.000000 -0.071429
v -0.100000 0.000000 -0.061905
v -0.100000 0.000000 -0.052381
v -0.100000 0.000000 -0.042857
v -0.100000 0.000000 -0.033333
v -0.100000 0.000000 -0.023810
v -0.100000 0.000000 -0.014286
v -0.100000 0.000000 -0.004762
v -0.100000 0.000000 0.004762
v -0.100000 0.000000 0.014286
v -0.100000 0.000000 0.023810
v -0.100000 0.000000 0.033333
v -0.100000 0.000000 0.042857
v -0.100000 0.000000 0.052381
v -0.100000 0.000000 0.061905
v -0.100000 0.000000 0.071429
v -0.100000 0.000000 0.080952
v -0.100000 0.000000 0.090476
v -0.090476 0.000000 0.100000
v -0.080952 0.000000 0.100000
v -0.071429 0.000000 0.100000
v -0.061905 0.000000 0.100000
v -0.052381 0.000000 0.100000
v -0.042857 0.000000 0.100000
v -0.033333 0.000000 0.100000
v -0.023810 0.000000 0.100000
v -0.014286 0.000000 0.100000
v -0.004762 0.000000 0.100000
v 0.004762 0.000000 0.100000
v 0.014286 0.000000 0.100000
v 0.023810 0.000000 0.100000
v 0.033333 0.000000 0.100000
v 0.042857 0.000000 0.100000
v 0.052381 0.000000 0.100000
v 0.061905 0.000000 0.100000
v 0.071429 0.000000 0.100000
v 0.080952 0.000000 0.100000
v 0.090476 0.000000 0.100000
v 0.100000 0.000000 0.090476
v 0.100000 0.000000 0.080952
v 0.100000 0.000000 0.071429
v 0.100000 0.000000 0.061905
v 0.100000 0.000000 0.052381
v 0.100000 0.000000 0.042857
v 0.100000 0.000000 0.033333
v 0.100000 0.000000 0.023810
v 0.100000 0.000000 0.014286
v 0.100000 0.000000 0.004762
v 0.100000 0.000000 -0.004762
v 0.100000 0.000000 -0.014286
v 0.100000 0.000000 -0.023810
v 0.100000 0.000000 -0.033333
v 0.100000 0.000000 -0.042857
v 0.100000 0.000000 -0.052381
v 0.100000 0.000000 -0.061905
v 0.100000 0.000000 -0.071429
v 0.100000 0.000000 -0.080952
v 0.100000 0.000000 -0.090476
v 0.090476 0.000000 -0.100000
v 0.080952 0.000000 -0.100000
v 0.071429 0.000000 -0.100000
v 0.061905 0.000000 -0.100000
v 0.052381 0.000000 -0.100000
v 0.042857 0.000000 -0.100000
v 0.033333 0.000000 -0.100000
v 0.023810 0.000000 -0.100000
v 0.014286 0.000000 -0.100000
v 0.004762 0.000000 -0.100000
v -0.004762 0.000000 -0.100000
v -0.014286 0.000000 -0.100000
v -0.023810 0.000000 -0.100000
v -0.033333 0.000000 -0.100000
v -0.042857 0.000000 -0.100000
v -0.052381 0.000000 -0.100000
v -0.061905 0.000000 -0.100000
v -0.071429 0.000000 -0.100000
v -0.080952 0.000000 -0.100000
v -0.090476 0.000000 -0.100000
v -0.090476 0.000000 0.090476
v -0.090476 0.000000 0.080952
v -0.090476 0.000000 0.071429
v -0.090476 0.000000 0.061905
v -0.090476 0.000000 0.052381
v -0.090476 0.000000 0.042857
v -0.090476 0.000000 0.033333
v -0.090476 0.000000 0.023810
v -0.090476 0.000000 0.014286
v -0.090476 0.000000 0.004762
v -0.090476 0.000000 -0.004762
v -0.090476 0.000000 -0.014286
v -0.090476 0.000000 -0.023810
v -0.090476 0.000000 -0.033333
v -0.090476 0.000000 -0.042857
v -0.090476 0.000000 -0.052381
v -0.090476 0.000000 -0.061905
v -0.090476 0.000000 -0.071429
v -0.090476 0.000000 -0.080952
v -0.090476 0.000000 -0.090476
v -0.080952 0.000000 0.090476
v -0.080952 0.000000 0.080952
v -0.080952 0.000000 0.071429
v -0.080952 0.000000 0.061905
v -0.080952 0.000000 0.052381
v -0.080952 0.000000 0.042857
v -0.080952 0.000000 0.033333
v -0.080952 0.000000 0.023810
v -0.080952 0.000000 0.014286
v -0.080952 0.000000 0.004762
v -0.080952 0.000000 -0.004762
v -0.080952 0.000000 -0.014286
v -0.080952 0.000000 -0.023810
v -0.080952 0.000000 -0.033333
v -0.080952 0.000000 -0.042857
v -0.080952 0.000000 -0.052381
v -0.080952 0.000000 -0.061905
v -0.080952 0.000000 -0.071429
v -0.080952 0.000000 -0.080952
v -0.080952 0.000000 -0.090476
v -0.071429 0.000000 0.090476
v -0.071429 0.000000 0.080952
v -0.071429 0.000000 0.071429
v -0.071429 0.000000 0.061905
v -0.071429 0.000000 0.052381
v -0.071429 0.000000 0.042857
v -0.071429 0.000000 0.033333
v -0.071429 0.000000 0.023810
v -0.071429 0.000000 0.014286
v -0.071429 0.000000 0.004762
v -0.071429 0.000000 -0.004762
v -0.071429 0.000000 -0.014286
v -0.071429 0.000000 -0.023810
v -0.071429 0.000000 -0.033333
v -0.071429 0.000000 -0.042857
v -0.071429 0.000000 -0.052381
v -0.071429 0.000000 -0.061905
v -0.071429 0.000000 -0.071429
v -0.071429 0.000000 -0.080952
v -0.071429 0.000000 -0.090476
v -0.061905 0.000000 0.090476
v -0.061905 0.000000 0.080952
v -0.061905 0.000000 0.071429
v -0.061905 0.000000 0.061905
v -0.061905 0.000000 0.052381
v -0.061905 0.000000 0.042857
v -0.061905 0.000000 0.033333
v -0.061905 0.000000 0.023810
v -0.061905 0.000000 0.014286
v -0.061905 0.000000 0.004762
v -0.061905 0.000000 -0.004762
v -0.061905 0.000000 -0.014286
v -0.061905 0.000000 -0.023810
v -0.061905 0.000000 -0.033333
v -0.061905 0.000000 -0.042857
v -0.061905 0.000000 -0.052381
v -0.061905 0.000000 -0.061905
v -0.061905 0.000000 -0.071429
v -0.061905 0.000000 -0.080952
v -0.061905 0.000000 -0.090476
v -0.052381 0.000000 0.090476
v -0.052381 0.000000 0.080952
v -0.052381 0.000000 0.071429
v -0.052381 0.000000 0.061905
v -0.052381 0.000000 0.052381
v -0.052381 0.000000 0.042857
v -0.052381 0.000000 0.033333
v -0.052381 0.000000 0.023810
v -0.052381 0.000000 0.014286
v -0.052381 0.000000 0.004762
v -0.052381 0.000000 -0.004762
v -0.052381 0.000000 -0.014286
v -0.052381 0.000000 -0.023810
v -0.052381 0.000000 -0.033333
v -0.052381 0.000000 -0.042857
v -0.052381 0.000000 -0.052381
v -0.052381 0.000000 -0.061905
v -0.052381 0.000000 -0.071429
v -0.052381 0.000000 -0.080952
v -0.052381 0.000000 -0.090476
v -0.042857 0.000000 0.090476
v -0.042857 0.000000 0.080952
v -0.042857 0.000000 0.071429
v -0.042857 0.000000 0.061905
v -0.042857 0.000000 0.052381
v -0.042857 0.000000 0.042857
v -0.042857 0.000000 0.033333
v -0.042857 0.000000 0.023810
v -0.042857 0.000000 0.014286
v -0.042857 0.000000 0.004762
v -0.042857 0.000000 -0.004762
v -0.042857 0.000000 -0.014286
v -0.042857 0.000000 -0.023810
v -0.042857 0.000000 -0.033333
v -0.042857 0.000000 -0.042857
v -0.042857 0.000000 -0.052381
v -0.042857 0.000000 -0.061905
v -0.042857 0.000000 -0.071429
v -0.042857 0.000000 -0.080952
v -0.042857 0.000000 -0.090476
v -0.033333 0.000000 0.090476
v -0.033333 0.000000 0.080952
v -0.033333 0.000000 0.071429
v -0.033333 0.000000 0.061905
v -0.033333 0.000000 0.052381
v -0.033333 0.000000 0.042857
v -0.033333 0.000000 0.033333
v -0.033333 0.000000 0.023810
v -0.033333 0.000000 0.014286
v -0.033333 0.000000 0.004762
v -0.033333 0.000000 -0.004762
v -0.033333 0.000000 -0.014286
v -0.033333 0.000000 -0.023810
v -0.033333 0.000000 -0.033333
v -0.033333 0.000000 -0.042857
v -0.033333 0.000000 -0.052381
v -0.033333 0.000000 -0.061905
v -0.033333 0.000000 -0.071429
v -0.033333 0.000000 -0.080952
v -0.033333 0.000000 -0.090476
v -0.023810 0.000000 0.090476
v -0.023810 0.000000 0.080952
v -0.023810 0.000000 0.071429
v -0.023810 0.000000 0.061905
v -0.023810 0.000000 0.052381
v -0.023810 0.000000 0.042857
v -0.023810 0.000000 0.033333
v -0.023810 0.000000 0.023810
v -0.023810 0.000000 0.014286
v -0.023810 0.000000 0.004762
v -0.023810 0.000000 -0.004762
v -0.023810 0.000000 -0.014286
v -0.023810 0.000000 -0.023810
v -0.023810 0.000000 -0.033333
v -0.023810 0.000000 -0.042857
v -0.023810 0.000000 -0.052381
v -0.023810 0.000000 -0.061905
v -0.023810 0.000000 -0.071429
v -0.023810 0.000000 -0.080952
v -0.023810 0.000000 -0.090476
v -0.014286 0.000000 0.090476
v -0.014286 0.000000 0.080952
v -0.014286 0.000000 0.071429
v -0.014286 0.000000 0.061905
v -0.014286 0.000000 0.052381
v -0.014286 0.000000 0.042857
v -0.014286 0.000000 0.033333
v -0.014286 0.000000 0.023810
v -0.014286 0.000000 0.014286
v -0.014286 0.000000 0.004762
v -0.014286 0.000000 -0.004762
v -0.014286 0.000000 -0.014286
v -0.014286 0.000000 -0.023810
v -0.014286 0.000000 -0.033333
v -0.014286 0.000000 -0.042857
v -0.014286 0.000000 -0.052381
v -0.014286 0.000000 -0.061905
v -0.014286 0.000000 -0.071429
v -0.014286 0.000000 -0.080952
v -0.014286 0.000000 -0.090476
v -0.004762 0.000000 0.090476
v -0.004762 0.000000 0.080952
v -0.004762 0.000000 0.071429
v -0.004762 0.000000 0.061905
v -0.004762 0.000000 0.052381
v -0.004762 0.000000 0.042857
v -0.004762 0.000000 0.033333
v -0.004762 0.000000 0.023810
v -0.004762 0.000000 0.014286
v -0.004762 0.000000 0.004762
v -0.004762 0.000000 -0.004762
v -0.004762 0.000000 -0.014286
v -0.004762 0.000000 -0.023810
v -0.004762 0.000000 -0.033333
v -0.004762 0.000000 -0.042857
v -0.004762 0.000000 -0.052381
v -0.004762 0.000000 -0.061905
v -0.004762 0.000000 -0.071429
v -0.004762 0.000000 -0.080952
v -0.004762 0.000000 -0.090476
v 0.004762 0.000000 0.090476
v 0.004762 0.000000 0.080952
v 0.004762 0.000000 0.071429
v 0.004762 0.000000 0.061905
v 0.004762 0.000000 0.052381
v 0.004762 0.000000 0.042857
v 0.004762 0.000000 0.033333
v 0.004762 0.000000 0.023810
v 0.004762 0.000000 0.014286
v 0.004762 0.000000 0.004762
v 0.004762 0.000000 -0.004762
v 0.004762 0.000000 -0.014286
v 0.004762 0.000000 -0.023810
v 0.004762 0.000000 -0.033333
v 0.004762 0.000000 -0.042857
v 0.004762 0.000000 -0.052381
v 0.004762 0.000000 -0.061905
v 0.004762 0.000000 -0.071429
v 0.004762 0.000000 -0.080952
v 0.004762 0.000000 -0.090476
v 0.014286 0.000000 0.090476
v 0.014286 0.000000 0.080952
v 0.014286 0.000000 0.071429
v 0.014286 0.000000 0.061905
v 0.014286 0.000000 0.052381
v 0.014286 0.000000 0.042857
v 0.014286 0.000000 0.033333
v 0.014286 0.000000 0.023810
v 0.014286 0.000000 0.014286
v 0.014286 0.000000 0.004762
v 0.014286 0.000000 -0.004762
v 0.014286 0.000000 -0.014286
v 0.014286 0.000000 -0.023810
v 0.014286 0.000000 -0.033333
v 0.014286 0.000000 -0.042857
v 0.014286 0.000000 -0.052381
v 0.014286 0.000000 -0.061905
v 0.014286 0.000000 -0.071429
v 0.014286 0.000000 -0.080952
v 0.014286 0.000000 -0.090476
v 0.023810 0.000000 0.090476
v 0.023810 0.000000 0.080952
v 0.023810 0.000000 0.071429
v 0.023810 0.000000 0.061905
v 0.023810 0.000000 0.052381
v 0.023810 0.000000 0.042857
v 0.023810 0.000000 0.033333
v 0.023810 0.000000 0.023810
v 0.023810 0.000000 0.014286
v 0.023810 0.000000 0.004762
v 0.023810 0.000000 -0.004762
v 0.023810 0.000000 -0.014286
v 0.023810 0.000000 -0.023810
v 0.023810 0.000000 -0.033333
v 0.023810 0.000000 -0.042857
v 0.023810 0.000000 -0.052381
v 0.023810 0.000000 -0.061905
v 0.023810 0.000000 -0.071429
v 0.023810 0.000000 -0.080952
v 0.023810 0.000000 -0.090476
v 0.033333 0.000000 0.090476
v 0.033333 0.000000 0.080952
v 0.033333 0.000000 0.071429
v 0.033333 0.000000 0.061905
v 0.033333 0.000000 0.052381
v 0.033333 0.000000 0.042857
v 0.033333 0.000000 0.033333
v 0.033333 0.000000 0.023810
v 0.033333 0.000000 0.014286
v 0.033333 0.000000 0.004762
v 0.033333 0.000000 -0.004762
v 0.033333 0.000000 -0.014286
v 0.033333 0.000000 -0.023810
v 0.033333 0.000000 -0.033333
v 0.033333 0.000000 -0.042857
v 0.033333 0.000000 -0.052381
v 0.033333 0.000000 -0.061905
v 0.033333 0.000000 -0.071429
v 0.033333 0.000000 -0.080952
v 0.033333 0.000000 -0.090476
v 0.042857 0.000000 0.090476
v 0.042857 0.000000 0.080952
v 0.042857 0.000000 0.071429
v 0.042857 0.000000 0.061905
v 0.042857 0.000000 0.052381
v 0.042857 0.000000 0.042857
v 0.042857 0.000000 0.033333
v 0.042857 0.000000 0.023810
v 0.042857 0.000000 0.014286
v 0.042857 0.000000 0.004762
v 0.042857 0.000000 -0.004762
v 0.042857 0.000000 -0.014286
v 0.042857 0.000000 -0.023810
v 0.042857 0.000000 -0.033333
v 0.042857 0.000000 -0.042857
v 0.042857 0.000000 -0.052381
v 0.042857 0.000000 -0.061905
v 0.042857 0.000000 -0.071429
v 0.042857 0.000000 -0.080952
v 0.042857 0.000000 -0.090476
v 0.052381 0.000000 0.090476
v 0.052381 0.000000 0.080952
v 0.052381 0.000000 0.071429
v 0.052381 0.000000 0.061905
v 0.052381 0.000000 0.052381
v 0.052381 0.000000 0.042857
v 0.052381 0.000000 0.033333
v 0.052381 0.000000 0.023810
v 0.052381 0.000000 0.014286
v 0.052381 0.000000 0.004762
v 0.052381 0.000000 -0.004762
v 0.052381 0.000000 -0.014286
v 0.052381 0.000000 -0.023810
v 0.052381 0.000000 -0.033333
v 0.052381 0.000000 -0.042857
v 0.052381 0.000000 -0.052381
v 0.052381 0.000000 -0.061905
v 0.052381 0.000000 -0.071429
v 0.052381 0.000000 -0.080952
v 0.052381 0.000000 -0.090476
v 0.061905 0.000000 0.090476
v 0.061905 0.000000 0.080952
v 0.061905 0.000000 0.071429
v 0.061905 0.000000 0.061905
v 0.061905 0.000000 0.052381
v 0.061905 0.000000 0.042857
v 0.061905 0.000000 0.033333
v 0.061905 0.000000 0.023810
v 0.061905 0.000000 0.014286
v 0.061905 0.000000 0.004762
v 0.061905 0.000000 -0.004762
v 0.061905 0.000000 -0.014286
v 0.061905 0.000000 -0.023810
v 0.061905 0.000000 -0.033333
v 0.061905 0.000000 -0.042857
v 0.061905 0.000000 -0.052381
v 0.061905 0.000000 -0.061905
v 0.061905 0.000000 -0.071429
v 0.061905 0.000000 -0.080952
v 0.061905 0.000000 -0.090476
v 0.071429 0.000000 0.090476
v 0.071429 0.000000 0.080952
v 0.071429 0.000000 0.071429
v 0.071429 0.000000 0.061905
v 0.071429 0.000000 0.052381
v 0.071429 0.000000 0.042857
v 0.071429 0.000000 0.033333
v 0.071429 0.000000 0.023810
v 0.071429 0.000000 0.014286
v 0.071429 0.000000 0.004762
v 0.071429 0.000000 -0.004762
v 0.071429 0.000000 -0.014286
v 0.071429 0.000000 -0.023810
v 0.071429 0.000000 -0.033333
v 0.071429 0.000000 -0.042857
v 0.071429 0.000000 -0.052381
v 0.071429 0.000000 -0.061905
v 0.071429 0.000000 -0.071429
v 0.071429 0.000000 -0.080952
v 0.071429 0.000000 -0.090476
v 0.080952 0.000000 0.090476
v 0.080952 0.000000 0.080952
v 0.080952 0.000000 0.071429
v 0.080952 0.000000 0.061905
v 0.080952 0.000000 0.052381
v 0.080952 0.000000 0.042857
v 0.080952 0.000000 0.033333
v 0.080952 0.000000 0.023810
v 0.080952 0.000000 0.014286
v 0.080952 0.000000 0.004762
v 0.080952 0.000000 -0.004762
v 0.080952 0.000000 -0.014286
v 0.080952 0.000000 -0.023810
v 0.080952 0.000000 -0.033333
v 0.080952 0.000000 -0.042857
v 0.080952 0.000000 -0.052381
v 0.080952 0.000000 -0.061905
v 0.080952 0.000000 -0.071429
v 0.080952 0.000000 -0.080952
v 0.080952 0.000000 -0.090476
v 0.090476 0.000000 0.090476
v 0.090476 0.000000 0.080952
v 0.090476 0.000000 0.071429
v 0.090476 0.000000 0.061905
v 0.090476 0.000000 0.052381
v 0.090476 0.000000 0.042857
v 0.090476 0.000000 0.033333
v 0.090476 0.000000 0.023810
v 0.090476 0.000000 0.014286
v 0.090476 0.000000 0.004762
v 0.090476 0.000000 -0.004762
v 0.090476 0.000000 -0.014286
v 0.090476 0.000000 -0.023810
v 0.090476 0.000000 -0.033333
v 0.090476 0.000000 -0.042857
v 0.090476 0.000000 -0.052381
v 0.090476 0.000000 -0.061905
v 0.090476 0.000000 -0.071429
v 0.090476 0.000000 -0.080952
v 0.090476 0.000000 -0.090476
v -0.100000 -0.002500 0.100000
v 0.100000 -0.002500 0.100000
v -0.100000 -0.002500 -0.100000
v 0.100000 -0.002500 -0.100000
v -0.100000 -0.002500 -0.090476
v -0.100000 -0.002500 -0.080952
v -0.100000 -0.002500 -0.071429
v -0.100000 -0.002500 -0.061905
v -0.100000 -0.002500 -0.052381
v -0.100000 -0.002500 -0.042857
v -0.100000 -0.002500 -0.033333
v -0.100000 -0.002500 -0.023810
v -0.100000 -0.002500 -0.014286
v -0.100000 -0.002500 -0.004762
v -0.100000 -0.002500 0.004762
v -0.100000 -0.002500 0.014286
v -0.100000 -0.002500 0.023810
v -0.100000 -0.002500 0.033333
v -0.100000 -0.002500 0.042857
v -0.100000 -0.002500 0.052381
v -0.100000 -0.002500 0.061905
v -0.100000 -0.002500 0.071429
v -0.100000 -0.002500 0.080952
v -0.100000 -0.002500 0.090476
v -0.090476 -0.002500 0.100000
v -0.080952 -0.002500 0.100000
v -0.071429 -0.002500 0.100000
v -0.061905 -0.002500 0.100000
v -0.052381 -0.002500 0.100000
v -0.042857 -0.002500 0.100000
v -0.033333 -0.002500 0.100000
v -0.023810 -0.002500 0.100000
v -0.014286 -0.002500 0.100000
v -0.004762 -0.002500 0.100000
v 0.004762 -0.002500 0.100000
v 0.014286 -0.002500 0.100000
v 0.023810 -0.002500 0.100000
v 0.033333 -0.002500 0.100000
v 0.042857 -0.002500 0.100000
v 0.052381 -0.002500 0.100000
v 0.061905 -0.002500 0.100000
v 0.071429 -0.002500 0.100000
v 0.080952 -0.002500 0.100000
v 0.090476 -0.002500 0.100000
v 0.100000 -0.002500 0.090476
v 0.100000 -0.002500 0.080952
v 0.100000 -0.002500 0.071429
v 0.100000 -0.002500 0.061905
v 0.100000 -0.002500 0.052381
v 0.100000 -0.002500 0.042857
v 0.100000 -0.002500 0.033333
v 0.100000 -0.002500 0.023810
v 0.100000 -0.002500 0.014286
v 0.100000 -0.002500 0.004762
v 0.100000 -0.002500 -0.004762
v 0.100000 -0.002500 -0.014286
v 0.100000 -0.002500 -0.023810
v 0.100000 -0.002500 -0.033333
v 0.100000 -0.002500 -0.042857
v 0.100000 -0.002500 -0.052381
v 0.100000 -0.002500 -0.061905
v 0.100000 -0.002500 -0.071429
v 0.100000 -0.002500 -0.080952
v 0.100000 -0.002500 -0.090476
v 0.090476 -0.002500 -0.100000
v 0.080952 -0.002500 -0.100000
v 0.071429 -0.002500 -0.100000
v 0.061905 -0.002500 -0.100000
v 0.052381 -0.002500 -0.100000
v 0.042857 -0.002500 -0.100000
v 0.033333 -0.002500 -0.100000
v 0.023810 -0.002500 -0.100000
v 0.014286 -0.002500 -0.100000
v 0.004762 -0.002500 -0.100000
v -0.004762 -0.002500 -0.100000
v -0.014286 -0.002500 -0.100000
v -0.023810 -0.002500 -0.100000
v -0.033333 -0.002500 -0.100000
v -0.042857 -0.002500 -0.100000
v -0.052381 -0.002500 -0.100000
v -0.061905 -0.002500 -0.100000
v -0.071429 -0.002500 -0.100000
v -0.080952 -0.002500 -0.100000
v -0.090476 -0.002500 -0.100000
v -0.090476 -0.002500 0.090476
v -0.090476 -0.002500 0.080952
v -0.090476 -0.002500 0.071429
v -0.090476 -0.002500 0.061905
v -0.090476 -0.002500 0.052381
v -0.090476 -0.002500 0.042857
v -0.090476 -0.002500 0.033333
v -0.090476 -0.002500 0.023810
v -0.090476 -0.002500 0.014286
v -0.090476 -0.002500 0.004762
v -0.090476 -0.002500 -0.004762
v -0.090476 -0.002500 -0.014286
v -0.090476 -0.002500 -0.023810
v -0.090476 -0.002500 -0.033333
v -0.090476 -0.002500 -0.042857
v -0.090476 -0.002500 -0.052381
v -0.090476 -0.002500 -0.061905
v -0.090476 -0.002500 -0.071429
v -0.090476 -0.002500 -0.080952
v -0.090476 -0.002500 -0.090476
v -0.080952 -0.002500 0.090476
v -0.080952 -0.002500 0.080952
v -0.080952 -0.002500 0.071429
v -0.080952 -0.002500 0.061905
v -0.080952 -0.002500 0.052381
v -0.080952 -0.002500 0.042857
v -0.080952 -0.002500 0.033333
v -0.080952 -0.002500 0.023810
v -0.080952 -0.002500 0.014286
v -0.080952 -0.002500 0.004762
v -0.080952 -0.002500 -0.004762
v -0.080952 -0.002500 -0.014286
v -0.080952 -0.002500 -0.023810
v -0.080952 -0.002500 -0.033333
v -0.080952 -0.002500 -0.042857
v -0.080952 -0.002500 -0.052381
v -0.080952 -0.002500 -0.061905
v -0.080952 -0.002500 -0.071429
v -0.080952 -0.002500 -0.080952
v -0.080952 -0.002500 -0.090476
v -0.071429 -0.002500 0.090476
v -0.071429 -0.002500 0.080952
v -0.071429 -0.002500 0.071429
v -0.071429 -0.002500 0.061905
v -0.071429 -0.002500 0.052381
v -0.071429 -0.002500 0.042857
v -0.071429 -0.002500 0.033333
v -0.071429 -0.002500 0.023810
v -0.071429 -0.002500 0.014286
v -0.071429 -0.002500 0.004762
v -0.071429 -0.002500 -0.004762
v -0.071429 -0.002500 -0.014286
v -0.071429 -0.002500 -0.023810
v -0.071429 -0.002500 -0.033333
v -0.071429 -0.002500 -0.042857
v -0.071429 -0.002500 -0.052381
v -0.071429 -0.002500 -0.061905
v -0.071429 -0.002500 -0.071429
v -0.071429 -0.002500 -0.080952
v -0.071429 -0.002500 -0.090476
v -0.061905 -0.002500 0.090476
v -0.061905 -0.002500 0.080952
v -0.061905 -0.002500 0.071429
v -0.061905 -0.002500 0.061905
v -0.061905 -0.002500 0.052381
v -0.061905 -0.002500 0.042857
v -0.061905 -0.002500 0.033333
v -0.061905 -0.002500 0.023810
v -0.061905 -0.002500 0.014286
v -0.061905 -0.002500 0.004762
v -0.061905 -0.002500 -0.004762
v -0.061905 -0.002500 -0.014286
v -0.061905 -0.002500 -0.023810
v -0.061905 -0.002500 -0.033333
v -0.061905 -0.002500 -0.042857
v -0.061905 -0.002500 -0.052381
v -0.061905 -0.002500 -0.061905
v -0.061905 -0.002500 -0.071429
v -0.061905 -0.002500 -0.080952
v -0.061905 -0.002500 -0.090476
v -0.052381 -0.002500 0.090476
v -0.052381 -0.002500 0.080952
v -0.052381 -0.002500 0.071429
v -0.052381 -0.002500 0.061905
v -0.052381 -0.002500 0.052381
v -0.052381 -0.002500 0.042857
v -0.052381 -0.002500 0.033333
v -0.052381 -0.002500 0.023810
v -0.052381 -0.002500 0.014286
v -0.052381 -0.002500 0.004762
v -0.052381 -0.002500 -0.004762
v -0.052381 -0.002500 -0.014286
v -0.052381 -0.002500 -0.023810
v -0.052381 -0.002500 -0.033333
v -0.052381 -0.002500 -0.042857
v -0.052381 -0.002500 -0.052381
v -0.052381 -0.002500 -0.061905
v -0.052381 -0.002500 -0.071429
v -0.052381 -0.002500 -0.080952
v -0.052381 -0.002500 -0.090476
v -0.042857 -0.002500 0.090476
v -0.042857 -0.002500 0.080952
v -0.042857 -0.002500 0.071429
v -0.042857 -0.002500 0.061905
v -0.042857 -0.002500 0.052381
v -0.042857 -0.002500 0.042857
v -0.042857 -0.002500 0.033333
v -0.042857 -0.002500 0.023810
v -0.042857 -0.002500 0.014286
v -0.042857 -0.002500 0.004762
v -0.042857 -0.002500 -0.004762
v -0.042857 -0.002500 -0.014286
v -0.042857 -0.002500 -0.023810
v -0.042857 -0.002500 -0.033333
v -0.042857 -0.002500 -0.042857
v -0.042857 -0.002500 -0.052381
v -0.042857 -0.002500 -0.061905
v -0.042857 -0.002500 -0.071429
v -0.042857 -0.002500 -0.080952
v -0.042857 -0.002500 -0.090476
v -0.033333 -0.002500 0.090476
v -0.033333 -0.002500 0.080952
v -0.033333 -0.002500 0.071429
v -0.033333 -0.002500 0.061905
v -0.033333 -0.002500 0.052381
v -0.033333 -0.002500 0.042857
v -0.033333 -0.002500 0.033333
v -0.033333 -0.002500 0.023810
v -0.033333 -0.002500 0.014286
v -0.033333 -0.002500 0.004762
v -0.033333 -0.002500 -0.004762
v -0.033333 -0.002500 -0.014286
v -0.033333 -0.002500 -0.023810
v -0.033333 -0.002500 -0.033333
v -0.033333 -0.002500 -0.042857
v -0.033333 -0.002500 -0.052381
v -0.033333 -0.002500 -0.061905
v -0.033333 -0.002500 -0.071429
v -0.033333 -0.002500 -0.080952
v -0.033333 -0.002500 -0.090476
v -0.023810 -0.002500 0.090476
v -0.023810 -0.002500 0.080952
v -0.023810 -0.002500 0.071429
v -0.023810 -0.002500 0.061905
v -0.023810 -0.002500 0.052381
v -0.023810 -0.002500 0.042857
v -0.023810 -0.002500 0.033333
v -0.023810 -0.002500 0.023810
v -0.023810 -0.002500 0.014286
v -0.023810 -0.002500 0.004762
v -0.023810 -0.002500 -0.004762
v -0.023810 -0.002500 -0.014286
v -0.023810 -0.002500 -0.023810
v -0.023810 -0.002500 -0.033333
v -0.023810 -0.002500 -0.042857
v -0.023810 -0.002500 -0.052381
v -0.023810 -0.002500 -0.061905
v -0.023810 -0.002500 -0.071429
v -0.023810 -0.002500 -0.080952
v -0.023810 -0.002500 -0.090476
v -0.014286 -0.002500 0.090476
v -0.014286 -0.002500 0.080952
v -0.014286 -0.002500 0.071429
v -0.014286 -0.002500 0.061905
v -0.014286 -0.002500 0.052381
v -0.014286 -0.002500 0.042857
v -0.014286 -0.002500 0.033333
v -0.014286 -0.002500 0.023810
v -0.014286 -0.002500 0.014286
v -0.014286 -0.002500 0.004762
v -0.014286 -0.002500 -0.004762
v -0.014286 -0.002500 -0.014286
v -0.014286 -0.002500 -0.023810
v -0.014286 -0.002500 -0.033333
v -0.014286 -0.002500 -0.042857
v -0.014286 -0.002500 -0.052381
v -0.014286 -0.002500 -0.061905
v -0.014286 -0.002500 -0.071429
v -0.014286 -0.002500 -0.080952
v -0.014286 -0.002500 -0.090476
v -0.004762 -0.002500 0.090476
v -0.004762 -0.002500 0.080952
v -0.004762 -0.002500 0.071429
v -0.004762 -0.002500 0.061905
v -0.004762 -0.002500 0.052381
v -0.004762 -0.002500 0.042857
v -0.004762 -0.002500 0.033333
v -0.004762 -0.002500 0.023810
v -0.004762 -0.002500 0.014286
v -0.004762 -0.002500 0.004762
v -0.004762 -0.002500 -0.004762
v -0.004762 -0.002500 -0.014286
v -0.004762 -0.002500 -0.023810
v -0.004762 -0.002500 -0.033333
v -0.004762 -0.002500 -0.042857
v -0.004762 -0.002500 -0.052381
v -0.004762 -0.002500 -0.061905
v -0.004762 -0.002500 -0.071429
v -0.004762 -0.002500 -0.080952
v -0.004762 -0.002500 -0.090476
v 0.004762 -0.002500 0.090476
v 0.004762 -0.002500 0.080952
v 0.004762 -0.002500 0.071429
v 0.004762 -0.002500 0.061905
v 0.004762 -0.002500 0.052381
v 0.004762 -0.002500 0.042857
v 0.004762 -0.002500 0.033333
v 0.004762 -0.002500 0.023810
v 0.004762 -0.002500 0.014286
v 0.004762 -0.002500 0.004762
v 0.004762 -0.002500 -0.004762
v 0.004762 -0.002500 -0.014286
v 0.004762 -0.002500 -0.023810
v 0.004762 -0.002500 -0.033333
v 0.004762 -0.002500 -0.042857
v 0.004762 -0.002500 -0.052381
v 0.004762 -0.002500 -0.061905
v 0.004762 -0.002500 -0.071429
v 0.004762 -0.002500 -0.080952
v 0.004762 -0.002500 -0.090476
v 0.014286 -0.002500 0.090476
v 0.014286 -0.002500 0.080952
v 0.014286 -0.002500 0.071429
v 0.014286 -0.002500 0.061905
v 0.014286 -0.002500 0.052381
v 0.014286 -0.002500 0.042857
v 0.014286 -0.002500 0.033333
v 0.014286 -0.002500 0.023810
v 0.014286 -0.002500 0.014286
v 0.014286 -0.002500 0.004762
v 0.014286 -0.002500 -0.004762
v 0.014286 -0.002500 -0.014286
v 0.014286 -0.002500 -0.023810
v 0.014286 -0.002500 -0.033333
v 0.014286 -0.002500 -0.042857
v 0.014286 -0.002500 -0.052381
v 0.014286 -0.002500 -0.061905
v 0.014286 -0.002500 -0.071429
v 0.014286 -0.002500 -0.080952
v 0.014286 -0.002500 -0.090476
v 0.023810 -0.002500 0.090476
v 0.023810 -0.002500 0.080952
v 0.023810 -0.002500 0.071429
v 0.023810 -0.002500 0.061905
v 0.023810 -0.002500 0.052381
v 0.023810 -0.002500 0.042857
v 0.023810 -0.002500 0.033333
v 0.023810 -0.002500 0.023810
v 0.023810 -0.002500 0.014286
v 0.023810 -0.002500 0.004762
v 0.023810 -0.002500 -0.004762
v 0.023810 -0.002500 -0.014286
v 0.023810 -0.002500 -0.023810
v 0.023810 -0.002500 -0.033333
v 0.023810 -0.002500 -0.042857
v 0.023810 -0.002500 -0.052381
v 0.023810 -0.002500 -0.061905
v 0.023810 -0.002500 -0.071429
v 0.023810 -0.002500 -0.080952
v 0.023810 -0.002500 -0.090476
v 0.033333 -0.002500 0.090476
v 0.033333 -0.002500 0.080952
v 0.033333 -0.002500 0.071429
v 0.033333 -0.002500 0.061905
v 0.033333 -0.002500 0.052381
v 0.033333 -0.002500 0.042857
v 0.033333 -0.002500 0.033333
v 0.033333 -0.002500 0.023810
v 0.033333 -0.002500 0.014286
v 0.033333 -0.002500 0.004762
v 0.033333 -0.002500 -0.004762
v 0.033333 -0.002500 -0.014286
v 0.033333 -0.002500 -0.023810
v 0.033333 -0.002500 -0.033333
v 0.033333 -0.002500 -0.042857
v 0.033333 -0.002500 -0.052381
v 0.033333 -0.002500 -0.061905
v 0.033333 -0.002500 -0.071429
v 0.033333 -0.002500 -0.080952
v 0.033333 -0.002500 -0.090476
v 0.042857 -0.002500 0.090476
v 0.042857 -0.002500 0.080952
v 0.042857 -0.002500 0.071429
v 0.042857 -0.002500 0.061905
v 0.042857 -0.002500 0.052381
v 0.042857 -0.002500 0.042857
v 0.042857 -0.002500 0.033333
v 0.042857 -0.002500 0.023810
v 0.042857 -0.002500 0.014286
v 0.042857 -0.002500 0.004762
v 0.042857 -0.002500 -0.004762
v 0.042857 -0.002500 -0.014286
v 0.042857 -0.002500 -0.023810
v 0.042857 -0.002500 -0.033333
v 0.042857 -0.002500 -0.042857
v 0.042857 -0.002500 -0.052381
v 0.042857 -0.002500 -0.061905
v 0.042857 -0.002500 -0.071429
v 0.042857 -0.002500 -0.080952
v 0.042857 -0.002500 -0.090476
v 0.052381 -0.002500 0.090476
v 0.052381 -0.002500 0.080952
v 0.052381 -0.002500 0.071429
v 0.052381 -0.002500 0.061905
v 0.052381 -0.002500 0.052381
v 0.052381 -0.002500 0.042857
v 0.052381 -0.002500 0.033333
v 0.052381 -0.002500 0.023810
v 0.052381 -0.002500 0.014286
v 0.052381 -0.002500 0.004762
v 0.052381 -0.002500 -0.004762
v 0.052381 -0.002500 -0.014286
v 0.052381 -0.002500 -0.023810
v 0.052381 -0.002500 -0.033333
v 0.052381 -0.002500 -0.042857
v 0.052381 -0.002500 -0.052381
v 0.052381 -0.002500 -0.061905
v 0.052381 -0.002500 -0.071429
v 0.052381 -0.002500 -0.080952
v 0.052381 -0.002500 -0.090476
v 0.061905 -0.002500 0.090476
v 0.061905 -0.002500 0.080952
v 0.061905 -0.002500 0.071429
v 0.061905 -0.002500 0.061905
v 0.061905 -0.002500 0.052381
v 0.061905 -0.002500 0.042857
v 0.061905 -0.002500 0.033333
v 0.061905 -0.002500 0.023810
v 0.061905 -0.002500 0.014286
v 0.061905 -0.002500 0.004762
v 0.061905 -0.002500 -0.004762
v 0.061905 -0.002500 -0.014286
v 0.061905 -0.002500 -0.023810
v 0.061905 -0.002500 -0.033333
v 0.061905 -0.002500 -0.042857
v 0.061905 -0.002500 -0.052381
v 0.061905 -0.002500 -0.061905
v 0.061905 -0.002500 -0.071429
v 0.061905 -0.002500 -0.080952
v 0.061905 -0.002500 -0.090476
v 0.071429 -0.002500 0.090476
v 0.071429 -0.002500 0.080952
v 0.071429 -0.002500 0.071429
v 0.071429 -0.002500 0.061905
v 0.071429 -0.002500 0.052381
v 0.071429 -0.002500 0.042857
v 0.071429 -0.002500 0.033333
v 0.071429 -0.002500 0.023810
v 0.071429 -0.002500 0.014286
v 0.071429 -0.002500 0.004762
v 0.071429 -0.002500 -0.004762
v 0.071429 -0.002500 -0.014286
v 0.071429 -0.002500 -0.023810
v 0.071429 -0.002500 -0.033333
v 0.071429 -0.002500 -0.042857
v 0.071429 -0.002500 -0.052381
v 0.071429 -0.002500 -0.061905
v 0.071429 -0.002500 -0.071429
v 0.071429 -0.002500 -0.080952
v 0.071429 -0.002500 -0.090476
v 0.080952 -0.002500 0.090476
v 0.080952 -0.002500 0.080952
v 0.080952 -0.002500 0.071429
v 0.080952 -0.002500 0.061905
v 0.080952 -0.002500 0.052381
v 0.080952 -0.002500 0.042857
v 0.080952 -0.002500 0.033333
v 0.080952 -0.002500 0.023810
v 0.080952 -0.002500 0.014286
v 0.080952 -0.002500 0.004762
v 0.080952 -0.002500 -0.004762
v 0.080952 -0.002500 -0.014286
v 0.080952 -0.002500 -0.023810
v 0.080952 -0.002500 -0.033333
v 0.080952 -0.002500 -0.042857
v 0.080952 -0.002500 -0.052381
v 0.080952 -0.002500 -0.061905
v 0.080952 -0.002500 -0.071429
v 0.080952 -0.002500 -0.080952
v 0.080952 -0.002500 -0.090476
v 0.090476 -0.002500 0.090476
v 0.090476 -0.002500 0.080952
v 0.090476 -0.002500 0.071429
v 0.090476 -0.002500 0.061905
v 0.090476 -0.002500 0.052381
v 0.090476 -0.002500 0.042857
v 0.090476 -0.002500 0.033333
v 0.090476 -0.002500 0.023810
v 0.090476 -0.002500 0.014286
v 0.090476 -0.002500 0.004762
v 0.090476 -0.002500 -0.004762
v 0.090476 -0.002500 -0.014286
v 0.090476 -0.002500 -0.023810
v 0.090476 -0.002500 -0.033333
v 0.090476 -0.002500 -0.042857
v 0.090476 -0.002500 -0.052381
v 0.090476 -0.002500 -0.061905
v 0.090476 -0.002500 -0.071429
v 0.090476 -0.002500 -0.080952
v 0.090476 -0.002500 -0.090476
vn -0.0000 1.0000 -0.0000
vn -0.0000 -1.0000 -0.0000
vn -1.0000 -0.0000 -0.0000
vn -0.0000 -0.0000 1.0000
vn 1.0000 -0.0000 -0.0000
vn -0.0000 -0.0000 -1.0000
vt 0.952381 0.952381
vt 1.000000 0.952381
vt 1.000000 1.000000
vt 0.952381 1.000000
vt 0.000000 0.952381
vt 0.047619 0.952381
vt 0.047619 1.000000
vt 0.000000 1.000000
vt 0.095238 0.952381
vt 0.095238 1.000000
vt 0.142857 0.952381
vt 0.142857 1.000000
vt 0.190476 0.952381
vt 0.190476 1.000000
vt 0.238095 0.952381
vt 0.238095 1.000000
vt 0.285714 0.952381
vt 0.285714 1.000000
vt 0.333333 0.952381
vt 0.333333 1.000000
vt 0.380952 0.952381
vt 0.380952 1.000000
vt 0.428571 0.952381
vt 0.428571 1.000000
vt 0.476190 0.952381
vt 0.476190 1.000000
vt 0.523810 0.952381
vt 0.523810 1.000000
vt 0.571429 0.952381
vt 0.571429 1.000000
vt 0.619048 0.952381
vt 0.619048 1.000000
vt 0.666667 0.952381
vt 0.666667 1.000000
vt 0.714286 0.952381
vt 0.714286 1.000000
vt 0.761905 0.952381
vt 0.761905 1.000000
vt 0.809524 0.952381
vt 0.809524 1.000000
vt 0.857143 0.952381
vt 0.857143 1.000000
vt 0.904762 0.952381
vt 0.904762 1.000000
vt 0.000000 0.000000
vt 0.047619 0.000000
vt 0.047619 0.047619
vt 0.000000 0.047619
vt 0.047619 0.095238
vt 0.000000 0.095238
vt 0.047619 0.142857
vt 0.000000 0.142857
vt 0.047619 0.190476
vt 0.000000 0.190476
vt 0.047619 0.238095
vt 0.000000 0.238095
vt 0.047619 0.285714
vt 0.000000 0.285714
vt 0.047619 0.333333
vt 0.000000 0.333333
vt 0.047619 0.380952
vt 0.000000 0.380952
vt 0.047619 0.428571
vt 0.000000 0.428571
vt 0.047619 0.476190
vt 0.000000 0.476190
vt 0.047619 0.523810
vt 0.000000 0.523810
vt 0.047619 0.571429
vt 0.000000 0.571429
vt 0.047619 0.619048
vt 0.000000 0.619048
vt 0.047619 0.666667
vt 0.000000 0.666667
vt 0.047619 0.714286
vt 0.000000 0.714286
vt 0.047619 0.761905
vt 0.000000 0.761905
vt 0.047619 0.809524
vt 0.000000 0.809524
vt 0.047619 0.857143
vt 0.000000 0.857143
vt 0.047619 0.904762
vt 0.000000 0.904762
vt 0.095238 0.000000
vt 0.095238 0.047619
vt 0.095238 0.095238
vt 0.095238 0.142857
vt 0.095238 0.190476
vt 0.095238 0.238095
vt 0.095238 0.285714
vt 0.095238 0.333333
vt 0.095238 0.380952
vt 0.095238 0.428571
vt 0.095238 0.476190
vt 0.095238 0.523810
vt 0.095238 0.571429
vt 0.095238 0.619048
vt 0.095238 0.666667
vt 0.095238 0.714286
vt 0.095238 0.761905
vt 0.095238 0.809524
vt 0.095238 0.857143
vt 0.095238 0.904762
vt 0.142857 0.000000
vt 0.142857 0.047619
vt 0.142857 0.095238
vt 0.142857 0.142857
vt 0.142857 0.190476
vt 0.142857 0.238095
vt 0.142857 0.285714
vt 0.142857 0.333333
vt 0.142857 0.380952
vt 0.142857 0.428571
vt 0.142857 0.476190
vt 0.142857 0.523810
vt 0.142857 0.571429
vt 0.142857 0.619048
vt 0.142857 0.666667
vt 0.142857 0.714286
vt 0.142857 0.761905
vt 0.142857 0.809524
vt 0.142857 0.857143
vt 0.142857 0.904762
vt 0.190476 0.000000
vt 0.190476 0.047619
vt 0.190476 0.095238
vt 0.190476 0.142857
vt 0.190476 0.190476
vt 0.190476 0.238095
vt 0.190476 0.285714
vt 0.190476 0.333333
vt 0.190476 0.380952
vt 0.190476 0.428571
vt 0.190476 0.476190
vt 0.190476 0.523810
vt 0.190476 0.571429
vt 0.190476 0.619048
vt 0.190476 0.666667
vt 0.190476 0.714286
vt 0.190476 0.761905
vt 0.190476 0.809524
vt 0.190476 0.857143
vt 0.190476 0.904762
vt 0.238095 0.000000
vt 0.238095 0.047619
vt 0.238095 0.095238
vt 0.238095 0.142857
vt 0.238095 0.190476
vt 0.238095 0.238095
vt 0.238095 0.285714
vt 0.238095 0.333333
vt 0.238095 0.380952
vt 0.238095 0.428571
vt 0.238095 0.476190
vt 0.238095 0.523810
vt 0.238095 0.571429
vt 0.238095 0.619048
vt 0.238095 0.666667
vt 0.238095 0.714286
vt 0.238095 0.761905
vt 0.238095 0.809524
vt 0.238095 0.857143
vt 0.238095 0.904762
vt 0.285714 0.000000
vt 0.285714 0.047619
vt 0.285714 0.095238
vt 0.285714 0.142857
vt 0.285714 0.190476
vt 0.285714 0.238095
vt 0.285714 0.285714
vt 0.285714 0.333333
vt 0.285714 0.380952
vt 0.285714 0.428571
vt 0.285714 0.476190
vt 0.285714 0.523810
vt 0.285714 0.571429
vt 0.285714 0.619048
vt 0.285714 0.666667
vt 0.285714 0.714286
vt 0.285714 0.761905
vt 0.285714 0.809524
vt 0.285714 0.857143
vt 0.285714 0.904762
vt 0.333333 0.000000
vt 0.333333 0.047619
vt 0.333333 0.095238
vt 0.333333 0.142857
vt 0.333333 0.190476
vt 0.333333 0.238095
vt 0.333333 0.285714
vt 0.333333 0.333333
vt 0.333333 0.380952
vt 0.333333 0.428571
vt 0.333333 0.476190
vt 0.333333 0.523810
vt 0.333333 0.571429
vt 0.333333 0.619048
vt 0.333333 0.666667
vt 0.333333 0.714286
vt 0.333333 0.761905
vt 0.333333 0.809524
vt 0.333333 0.857143
vt 0.333333 0.904762
vt 0.380952 0.000000
vt 0.380952 0.047619
vt 0.380952 0.095238
vt 0.380952 0.142857
vt 0.380952 0.190476
vt 0.380952 0.238095
vt 0.380952 0.285714
vt 0.380952 0.333333
vt 0.380952 0.380952
vt 0.380952 0.428571
vt 0.380952 0.476190
vt 0.380952 0.523810
vt 0.380952 0.571429
vt 0.380952 0.619048
vt 0.380952 0.666667
vt 0.380952 0.714286
vt 0.380952 0.761905
vt 0.380952 0.809524
vt 0.380952 0.857143
vt 0.380952 0.904762
vt 0.428571 0.000000
vt 0.428571 0.047619
vt 0.428571 0.095238
vt 0.428571 0.142857
vt 0.428571 0.190476
vt 0.428571 0.238095
vt 0.428571 0.285714
vt 0.428571 0.333333
vt 0.428571 0.380952
vt 0.428571 0.428571
vt 0.428571 0.476190
vt 0.428571 0.523810
vt 0.428571 0.571429
vt 0.428571 0.619048
vt 0.428571 0.666667
vt 0.428571 0.714286
vt 0.428571 0.761905
vt 0.428571 0.809524
vt 0.428571 0.857143
vt 0.428571 0.904762
vt 0.476190 0.000000
vt 0.476191 0.047619
vt 0.476191 0.095238
vt 0.476191 0.142857
vt 0.476190 0.190476
vt 0.476190 0.238095
vt 0.476190 0.285714
vt 0.476190 0.333333
vt 0.476190 0.380952
vt 0.476190 0.428571
vt 0.476190 0.476190
vt 0.476190 0.523810
vt 0.476190 0.571429
vt 0.476190 0.619048
vt 0.476190 0.666667
vt 0.476190 0.714286
vt 0.476190 0.761905
vt 0.476190 0.809524
vt 0.476190 0.857143
vt 0.476190 0.904762
vt 0.523810 0.000000
vt 0.523810 0.047619
vt 0.523810 0.095238
vt 0.523810 0.142857
vt 0.523810 0.190476
vt 0.523810 0.238095
vt 0.523810 0.285714
vt 0.523810 0.333333
vt 0.523810 0.380952
vt 0.523810 0.428571
vt 0.523810 0.476190
vt 0.523810 0.523810
vt 0.523810 0.571429
vt 0.523810 0.619048
vt 0.523810 0.666667
vt 0.523810 0.714286
vt 0.523810 0.761905
vt 0.523810 0.809524
vt 0.523810 0.857143
vt 0.523810 0.904762
vt 0.571429 0.000000
vt 0.571429 0.047619
vt 0.571429 0.095238
vt 0.571429 0.142857
vt 0.571429 0.190476
vt 0.571429 0.238095
vt 0.571429 0.285714
vt 0.571429 0.333333
vt 0.571429 0.380952
vt 0.571429 0.428571
vt 0.571429 0.476190
vt 0.571429 0.523810
vt 0.571429 0.571429
vt 0.571429 0.619048
vt 0.571429 0.666667
vt 0.571429 0.714286
vt 0.571429 0.761905
vt 0.571429 0.809524
vt 0.571429 0.857143
vt 0.571429 0.904762
vt 0.619048 0.000000
vt 0.619048 0.047619
vt 0.619048 0.095238
vt 0.619048 0.142857
vt 0.619048 0.190476
vt 0.619048 0.238095
vt 0.619048 0.285714
vt 0.619048 0.333333
vt 0.619048 0.380952
vt 0.619048 0.428571
vt 0.619048 0.476190
vt 0.619048 0.523810
vt 0.619048 0.571429
vt 0.619048 0.619048
vt 0.619048 0.666667
vt 0.619048 0.714286
vt 0.619048 0.761905
vt 0.619048 0.809524
vt 0.619048 0.857143
vt 0.619048 0.904762
vt 0.666667 0.000000
vt 0.666667 0.047619
vt 0.666667 0.095238
vt 0.666667 0.142857
vt 0.666667 0.190476
vt 0.666667 0.238095
vt 0.666667 0.285714
vt 0.666667 0.333333
vt 0.666667 0.380952
vt 0.666667 0.428571
vt 0.666667 0.476190
vt 0.666667 0.523810
vt 0.666667 0.571429
vt 0.666667 0.619048
vt 0.666667 0.666667
vt 0.666667 0.714286
vt 0.666667 0.761905
vt 0.666667 0.809524
vt 0.666667 0.857143
vt 0.666667 0.904762
vt 0.714286 0.000000
vt 0.714286 0.047619
vt 0.714286 0.095238
vt 0.714286 0.142857
vt 0.714286 0.190476
vt 0.714286 0.238095
vt 0.714286 0.285714
vt 0.714286 0.333333
vt 0.714286 0.380952
vt 0.714286 0.428571
vt 0.714286 0.476190
vt 0.714286 0.523810
vt 0.714286 0.571429
vt 0.714286 0.619048
vt 0.714286 0.666667
vt 0.714286 0.714286
vt 0.714286 0.761905
vt 0.714286 0.809524
vt 0.714286 0.857143
vt 0.714286 0.904762
vt 0.761905 0.000000
vt 0.761905 0.047619
vt 0.761905 0.095238
vt 0.761905 0.142857
vt 0.761905 0.190476
vt 0.761905 0.238095
vt 0.761905 0.285714
vt 0.761905 0.333333
vt 0.761905 0.380952
vt 0.761905 0.428571
vt 0.761905 0.476190
vt 0.761905 0.523810
vt 0.761905 0.571429
vt 0.761905 0.619048
vt 0.761905 0.666667
vt 0.761905 0.714286
vt 0.761905 0.761905
vt 0.761905 0.809524
vt 0.761905 0.857143
vt 0.761905 0.904762
vt 0.809524 0.000000
vt 0.809524 0.047619
vt 0.809524 0.095238
vt 0.809524 0.142857
vt 0.809524 0.190476
vt 0.809524 0.238095
vt 0.809524 0.285714
vt 0.809524 0.333333
vt 0.809524 0.380952
vt 0.809524 0.428571
vt 0.809524 0.476190
vt 0.809524 0.523810
vt 0.809524 0.571429
vt 0.809524 0.619048
vt 0.809524 0.666667
vt 0.809524 0.714286
vt 0.809524 0.761905
vt 0.809524 0.809524
vt 0.809524 0.857143
vt 0.809524 0.904762
vt 0.857143 0.000000
vt 0.857143 0.047619
vt 0.857143 0.095238
vt 0.857143 0.142857
vt 0.857143 0.190476
vt 0.857143 0.238095
vt 0.857143 0.285714
vt 0.857143 0.333333
vt 0.857143 0.380952
vt 0.857143 0.428571
vt 0.857143 0.476190
vt 0.857143 0.523810
vt 0.857143 0.571429
vt 0.857143 0.619048
vt 0.857143 0.666667
vt 0.857143 0.714286
vt 0.857143 0.761905
vt 0.857143 0.809524
vt 0.857143 0.857143
vt 0.857143 0.904762
vt 0.904762 0.000000
vt 0.904762 0.047619
vt 0.904762 0.095238
vt 0.904762 0.142857
vt 0.904762 0.190476
vt 0.904762 0.238095
vt 0.904762 0.285714
vt 0.904762 0.333333
vt 0.904762 0.380952
vt 0.904762 0.428571
vt 0.904762 0.476190
vt 0.904762 0.523810
vt 0.904762 0.571429
vt 0.904762 0.619048
vt 0.904762 0.666667
vt 0.904762 0.714286
vt 0.904762 0.761905
vt 0.904762 0.809524
vt 0.904762 0.857143
vt 0.904762 0.904762
vt 0.952381 0.000000
vt 0.952381 0.047619
vt 0.952381 0.095238
vt 0.952381 0.142857
vt 0.952381 0.190476
vt 0.952381 0.238095
vt 0.952381 0.285714
vt 0.952381 0.333333
vt 0.952381 0.380952
vt 0.952381 0.428571
vt 0.952381 0.476190
vt 0.952381 0.523810
vt 0.952381 0.571429
vt 0.952381 0.619048
vt 0.952381 0.666667
vt 0.952381 0.714286
vt 0.952381 0.761905
vt 0.952381 0.809524
vt 0.952381 0.857143
vt 0.952381 0.904762
vt 1.000000 0.000000
vt 1.000000 0.047619
vt 1.000000 0.095238
vt 1.000000 0.142857
vt 1.000000 0.190476
vt 1.000000 0.238095
vt 1.000000 0.285714
vt 1.000000 0.333333
vt 1.000000 0.380952
vt 1.000000 0.428571
vt 1.000000 0.476190
vt 1.000000 0.523810
vt 1.000000 0.571429
vt 1.000000 0.619048
vt 1.000000 0.666667
vt 1.000000 0.714286
vt 1.000000 0.761905
vt 1.000000 0.809524
vt 1.000000 0.857143
vt 1.000000 0.904762
s 0
usemtl Material.001
f 484/1/1 64/2/1 4/3/1 65/4/1
f 5/5/1 104/6/1 84/7/1 3/8/1
f 104/6/1 124/9/1 83/10/1 84/7/1
f 124/9/1 144/11/1 82/12/1 83/10/1
f 144/11/1 164/13/1 81/14/1 82/12/1
f 164/13/1 184/15/1 80/16/1 81/14/1
f 184/15/1 204/17/1 79/18/1 80/16/1
f 204/17/1 224/19/1 78/20/1 79/18/1
f 224/19/1 244/21/1 77/22/1 78/20/1
f 244/21/1 264/23/1 76/24/1 77/22/1
f 264/23/1 284/25/1 75/26/1 76/24/1
f 284/25/1 304/27/1 74/28/1 75/26/1
f 304/27/1 324/29/1 73/30/1 74/28/1
f 324/29/1 344/31/1 72/32/1 73/30/1
f 344/31/1 364/33/1 71/34/1 72/32/1
f 364/33/1 384/35/1 70/36/1 71/34/1
f 384/35/1 404/37/1 69/38/1 70/36/1
f 404/37/1 424/39/1 68/40/1 69/38/1
f 424/39/1 444/41/1 67/42/1 68/40/1
f 444/41/1 464/43/1 66/44/1 67/42/1
f 464/43/1 484/1/1 65/4/1 66/44/1
f 1/45/1 25/46/1 85/47/1 24/48/1
f 24/48/1 85/47/1 86/49/1 23/50/1
f 23/50/1 86/49/1 87/51/1 22/52/1
f 22/52/1 87/51/1 88/53/1 21/54/1
f 21/54/1 88/53/1 89/55/1 20/56/1
f 20/56/1 89/55/1 90/57/1 19/58/1
f 19/58/1 90/57/1 91/59/1 18/60/1
f 18/60/1 91/59/1 92/61/1 17/62/1
f 17/62/1 92/61/1 93/63/1 16/64/1
f 16/64/1 93/63/1 94/65/1 15/66/1
f 15/66/1 94/65/1 95/67/1 14/68/1
f 14/68/1 95/67/1 96/69/1 13/70/1
f 13/70/1 96/69/1 97/71/1 12/72/1
f 12/72/1 97/71/1 98/73/1 11/74/1
f 11/74/1 98/73/1 99/75/1 10/76/1
f 10/76/1 99/75/1 100/77/1 9/78/1
f 9/78/1 100/77/1 101/79/1 8/80/1
f 8/80/1 101/79/1 102/81/1 7/82/1
f 7/82/1 102/81/1 103/83/1 6/84/1
f 6/84/1 103/83/1 104/6/1 5/5/1
f 25/46/1 26/85/1 105/86/1 85/47/1
f 85/47/1 105/86/1 106/87/1 86/49/1
f 86/49/1 106/87/1 107/88/1 87/51/1
f 87/51/1 107/88/1 108/89/1 88/53/1
f 88/53/1 108/89/1 109/90/1 89/55/1
f 89/55/1 109/90/1 110/91/1 90/57/1
f 90/57/1 110/91/1 111/92/1 91/59/1
f 91/59/1 111/92/1 112/93/1 92/61/1
f 92/61/1 112/93/1 113/94/1 93/63/1
f 93/63/1 113/94/1 114/95/1 94/65/1
f 94/65/1 114/95/1 115/96/1 95/67/1
f 95/67/1 115/96/1 116/97/1 96/69/1
f 96/69/1 116/97/1 117/98/1 97/71/1
f 97/71/1 117/98/1 118/99/1 98/73/1
f 98/73/1 118/99/1 119/100/1 99/75/1
f 99/75/1 119/100/1 120/101/1 100/77/1
f 100/77/1 120/101/1 121/102/1 101/79/1
f 101/79/1 121/102/1 122/103/1 102/81/1
f 102/81/1 122/103/1 123/104/1 103/83/1
f 103/83/1 123/104/1 124/9/1 104/6/1
f 26/85/1 27/105/1 125/106/1 105/86/1
f 105/86/1 125/106/1 126/107/1 106/87/1
f 106/87/1 126/107/1 127/108/1 107/88/1
f 107/88/1 127/108/1 128/109/1 108/89/1
f 108/89/1 128/109/1 129/110/1 109/90/1
f 109/90/1 129/110/1 130/111/1 110/91/1
f 110/91/1 130/111/1 131/112/1 111/92/1
f 111/92/1 131/112/1 132/113/1 112/93/1
f 112/93/1 132/113/1 133/114/1 113/94/1
f 113/94/1 133/114/1 134/115/1 114/95/1
f 114/95/1 134/115/1 135/116/1 115/96/1
f 115/96/1 135/116/1 136/117/1 116/97/1
f 116/97/1 136/117/1 137/118/1 117/98/1
f 117/98/1 137/118/1 138/119/1 118/99/1
f 118/99/1 138/119/1 139/120/1 119/100/1
f 119/100/1 139/120/1 140/121/1 120/101/1
f 120/101/1 140/121/1 141/122/1 121/102/1
f 121/102/1 141/122/1 142/123/1 122/103/1
f 122/103/1 142/123/1 143/124/1 123/104/1
f 123/104/1 143/124/1 144/11/1 124/9/1
f 27/105/1 28/125/1 145/126/1 125/106/1
f 125/106/1 145/126/1 146/127/1 126/107/1
f 126/107/1 146/127/1 147/128/1 127/108/1
f 127/108/1 147/128/1 148/129/1 128/109/1
f 128/109/1 148/129/1 149/130/1 129/110/1
f 129/110/1 149/130/1 150/131/1 130/111/1
f 130/111/1 150/131/1 151/132/1 131/112/1
f 131/112/1 151/132/1 152/133/1 132/113/1
f 132/113/1 152/133/1 153/134/1 133/114/1
f 133/114/1 153/134/1 154/135/1 134/115/1
f 134/115/1 154/135/1 155/136/1 135/116/1
f 135/116/1 155/136/1 156/137/1 136/117/1
f 136/117/1 156/137/1 157/138/1 137/118/1
f 137/118/1 157/138/1 158/139/1 138/119/1
f 138/119/1 158/139/1 159/140/1 139/120/1
f 139/120/1 159/140/1 160/141/1 140/121/1
f 140/121/1 160/141/1 161/142/1 141/122/1
f 141/122/1 161/142/1 162/143/1 142/123/1
f 142/123/1 162/143/1 163/144/1 143/124/1
f 143/124/1 163/144/1 164/13/1 144/11/1
f 28/125/1 29/145/1 165/146/1 145/126/1
f 145/126/1 165/146/1 166/147/1 146/127/1
f 146/127/1 166/147/1 167/148/1 147/128/1
f 147/128/1 167/148/1 168/149/1 148/129/1
f 148/129/1 168/149/1 169/150/1 149/130/1
f 149/130/1 169/150/1 170/151/1 150/131/1
f 150/131/1 170/151/1 171/152/1 151/132/1
f 151/132/1 171/152/1 172/153/1 152/133/1
f 152/133/1 172/153/1 173/154/1 153/134/1
f 153/134/1 173/154/1 174/155/1 154/135/1
f 154/135/1 174/155/1 175/156/1 155/136/1
f 155/136/1 175/156/1 176/157/1 156/137/1
f 156/137/1 176/157/1 177/158/1 157/138/1
f 157/138/1 177/158/1 178/159/1 158/139/1
f 158/139/1 178/159/1 179/160/1 159/140/1
f 159/140/1 179/160/1 180/161/1 160/141/1
f 160/141/1 180/161/1 181/162/1 161/142/1
f 161/142/1 181/162/1 182/163/1 162/143/1
f 162/143/1 182/163/1 183/164/1 163/144/1
f 163/144/1 183/164/1 184/15/1 164/13/1
f 29/145/1 30/165/1 185/166/1 165/146/1
f 165/146/1 185/166/1 186/167/1 166/147/1
f 166/147/1 186/167/1 187/168/1 167/148/1
f 167/148/1 187/168/1 188/169/1 168/149/1
f 168/149/1 188/169/1 189/170/1 169/150/1
f 169/150/1 189/170/1 190/171/1 170/151/1
f 170/151/1 190/171/1 191/172/1 171/152/1
f 171/152/1 191/172/1 192/173/1 172/153/1
f 172/153/1 192/173/1 193/174/1 173/154/1
f 173/154/1 193/174/1 194/175/1 174/155/1
f 174/155/1 194/175/1 195/176/1 175/156/1
f 175/156/1 195/176/1 196/177/1 176/157/1
f 176/157/1 196/177/1 197/178/1 177/158/1
f 177/158/1 197/178/1 198/179/1 178/159/1
f 178/159/1 198/179/1 199/180/1 179/160/1
f 179/160/1 199/180/1 200/181/1 180/161/1
f 180/161/1 200/181/1 201/182/1 181/162/1
f 181/162/1 201/182/1 202/183/1 182/163/1
f 182/163/1 202/183/1 203/184/1 183/164/1
f 183/164/1 203/184/1 204/17/1 184/15/1
f 30/165/1 31/185/1 205/186/1 185/166/1
f 185/166/1 205/186/1 206/187/1 186/167/1
f 186/167/1 206/187/1 207/188/1 187/168/1
f 187/168/1 207/188/1 208/189/1 188/169/1
f 188/169/1 208/189/1 209/190/1 189/170/1
f 189/170/1 209/190/1 210/191/1 190/171/1
f 190/171/1 210/191/1 211/192/1 191/172/1
f 191/172/1 211/192/1 212/193/1 192/173/1
f 192/173/1 212/193/1 213/194/1 193/174/1
f 193/174/1 213/194/1 214/195/1 194/175/1
f 194/175/1 214/195/1 215/196/1 195/176/1
f 195/176/1 215/196/1 216/197/1 196/177/1
f 196/177/1 216/197/1 217/198/1 197/178/1
f 197/178/1 217/198/1 218/199/1 198/179/1
f 198/179/1 218/199/1 219/200/1 199/180/1
f 199/180/1 219/200/1 220/201/1 200/181/1
f 200/181/1 220/201/1 221/202/1 201/182/1
f 201/182/1 221/202/1 222/203/1 202/183/1
f 202/183/1 222/203/1 223/204/1 203/184/1
f 203/184/1 223/204/1 224/19/1 204/17/1
f 31/185/1 32/205/1 225/206/1 205/186/1
f 205/186/1 225/206/1 226/207/1 206/187/1
f 206/187/1 226/207/1 227/208/1 207/188/1
f 207/188/1 227/208/1 228/209/1 208/189/1
f 208/189/1 228/209/1 229/210/1 209/190/1
f 209/190/1 229/210/1 230/211/1 210/191/1
f 210/191/1 230/211/1 231/212/1 211/192/1
f 211/192/1 231/212/1 232/213/1 212/193/1
f 212/193/1 232/213/1 233/214/1 213/194/1
f 213/194/1 233/214/1 234/215/1 214/195/1
f 214/195/1 234/215/1 235/216/1 215/196/1
f 215/196/1 235/216/1 236/217/1 216/197/1
f 216/197/1 236/217/1 237/218/1 217/198/1
f 217/198/1 237/218/1 238/219/1 218/199/1
f 218/199/1 238/219/1 239/220/1 219/200/1
f 219/200/1 239/220/1 240/221/1 220/201/1
f 220/201/1 240/221/1 241/222/1 221/202/1
f 221/202/1 241/222/1 242/223/1 222/203/1
f 222/203/1 242/223/1 243/224/1 223/204/1
f 223/204/1 243/224/1 244/21/1 224/19/1
f 32/205/1 33/225/1 245/226/1 225/206/1
f 225/206/1 245/226/1 246/227/1 226/207/1
f 226/207/1 246/227/1 247/228/1 227/208/1
f 227/208/1 247/228/1 248/229/1 228/209/1
f 228/209/1 248/229/1 249/230/1 229/210/1
f 229/210/1 249/230/1 250/231/1 230/211/1
f 230/211/1 250/231/1 251/232/1 231/212/1
f 231/212/1 251/232/1 252/233/1 232/213/1
f 232/213/1 252/233/1 253/234/1 233/214/1
f 233/214/1 253/234/1 254/235/1 234/215/1
f 234/215/1 254/235/1 255/236/1 235/216/1
f 235/216/1 255/236/1 256/237/1 236/217/1
f 236/217/1 256/237/1 257/238/1 237/218/1
f 237/218/1 257/238/1 258/239/1 238/219/1
f 238/219/1 258/239/1 259/240/1 239/220/1
f 239/220/1 259/240/1 260/241/1 240/221/1
f 240/221/1 260/241/1 261/242/1 241/222/1
f 241/222/1 261/242/1 262/243/1 242/223/1
f 242/223/1 262/243/1 263/244/1 243/224/1
f 243/224/1 263/244/1 264/23/1 244/21/1
f 33/225/1 34/245/1 265/246/1 245/226/1
f 245/226/1 265/246/1 266/247/1 246/227/1
f 246/227/1 266/247/1 267/248/1 247/228/1
f 247/228/1 267/248/1 268/249/1 248/229/1
f 248/229/1 268/249/1 269/250/1 249/230/1
f 249/230/1 269/250/1 270/251/1 250/231/1
f 250/231/1 270/251/1 271/252/1 251/232/1
f 251/232/1 271/252/1 272/253/1 252/233/1
f 252/233/1 272/253/1 273/254/1 253/234/1
f 253/234/1 273/254/1 274/255/1 254/235/1
f 254/235/1 274/255/1 275/256/1 255/236/1
f 255/236/1 275/256/1 276/257/1 256/237/1
f 256/237/1 276/257/1 277/258/1 257/238/1
f 257/238/1 277/258/1 278/259/1 258/239/1
f 258/239/1 278/259/1 279/260/1 259/240/1
f 259/240/1 279/260/1 280/261/1 260/241/1
f 260/241/1 280/261/1 281/262/1 261/242/1
f 261/242/1 281/262/1 282/263/1 262/243/1
f 262/243/1 282/263/1 283/264/1 263/244/1
f 263/244/1 283/264/1 284/25/1 264/23/1
f 34/245/1 35/265/1 285/266/1 265/246/1
f 265/246/1 285/266/1 286/267/1 266/247/1
f 266/247/1 286/267/1 287/268/1 267/248/1
f 267/248/1 287/268/1 288/269/1 268/249/1
f 268/249/1 288/269/1 289/270/1 269/250/1
f 269/250/1 289/270/1 290/271/1 270/251/1
f 270/251/1 290/271/1 291/272/1 271/252/1
f 271/252/1 291/272/1 292/273/1 272/253/1
f 272/253/1 292/273/1 293/274/1 273/254/1
f 273/254/1 293/274/1 294/275/1 274/255/1
f 274/255/1 294/275/1 295/276/1 275/256/1
f 275/256/1 295/276/1 296/277/1 276/257/1
f 276/257/1 296/277/1 297/278/1 277/258/1
f 277/258/1 297/278/1 298/279/1 278/259/1
f 278/259/1 298/279/1 299/280/1 279/260/1
f 279/260/1 299/280/1 300/281/1 280/261/1
f 280/261/1 300/281/1 301/282/1 281/262/1
f 281/262/1 301/282/1 302/283/1 282/263/1
f 282/263/1 302/283/1 303/284/1 283/264/1
f 283/264/1 303/284/1 304/27/1 284/25/1
f 35/265/1 36/285/1 305/286/1 285/266/1
f 285/266/1 305/286/1 306/287/1 286/267/1
f 286/267/1 306/287/1 307/288/1 287/268/1
f 287/268/1 307/288/1 308/289/1 288/269/1
f 288/269/1 308/289/1 309/290/1 289/270/1
f 289/270/1 309/290/1 310/291/1 290/271/1
f 290/271/1 310/291/1 311/292/1 291/272/1
f 291/272/1 311/292/1 312/293/1 292/273/1
f 292/273/1 312/293/1 313/294/1 293/274/1
f 293/274/1 313/294/1 314/295/1 294/275/1
f 294/275/1 314/295/1 315/296/1 295/276/1
f 295/276/1 315/296/1 316/297/1 296/277/1
f 296/277/1 316/297/1 317/298/1 297/278/1
f 297/278/1 317/298/1 318/299/1 298/279/1
f 298/279/1 318/299/1 319/300/1 299/280/1
f 299/280/1 319/300/1 320/301/1 300/281/1
f 300/281/1 320/301/1 321/302/1 301/282/1
f 301/282/1 321/302/1 322/303/1 302/283/1
f 302/283/1 322/303/1 323/304/1 303/284/1
f 303/284/1 323/304/1 324/29/1 304/27/1
f 36/285/1 37/305/1 325/306/1 305/286/1
f 305/286/1 325/306/1 326/307/1 306/287/1
f 306/287/1 326/307/1 327/308/1 307/288/1
f 307/288/1 327/308/1 328/309/1 308/289/1
f 308/289/1 328/309/1 329/310/1 309/290/1
f 309/290/1 329/310/1 330/311/1 310/291/1
f 310/291/1 330/311/1 331/312/1 311/292/1
f 311/292/1 331/312/1 332/313/1 312/293/1
f 312/293/1 332/313/1 333/314/1 313/294/1
f 313/294/1 333/314/1 334/315/1 314/295/1
f 314/295/1 334/315/1 335/316/1 315/296/1
f 315/296/1 335/316/1 336/317/1 316/297/1
f 316/297/1 336/317/1 337/318/1 317/298/1
f 317/298/1 337/318/1 338/319/1 318/299/1
f 318/299/1 338/319/1 339/320/1 319/300/1
f 319/300/1 339/320/1 340/321/1 320/301/1
f 320/301/1 340/321/1 341/322/1 321/302/1
f 321/302/1 341/322/1 342/323/1 322/303/1
f 322/303/1 342/323/1 343/324/1 323/304/1
f 323/304/1 343/324/1 344/31/1 324/29/1
f 37/305/1 38/325/1 345/326/1 325/306/1
f 325/306/1 345/326/1 346/327/1 326/307/1
f 326/307/1 346/327/1 347/328/1 327/308/1
f 327/308/1 347/328/1 348/329/1 328/309/1
f 328/309/1 348/329/1 349/330/1 329/310/1
f 329/310/1 349/330/1 350/331/1 330/311/1
f 330/311/1 350/331/1 351/332/1 331/312/1
f 331/312/1 351/332/1 352/333/1 332/313/1
f 332/313/1 352/333/1 353/334/1 333/314/1
f 333/314/1 353/334/1 354/335/1 334/315/1
f 334/315/1 354/335/1 355/336/1 335/316/1
f 335/316/1 355/336/1 356/337/1 336/317/1
f 336/317/1 356/337/1 357/338/1 337/318/1
f 337/318/1 357/338/1 358/339/1 338/319/1
f 338/319/1 358/339/1 359/340/1 339/320/1
f 339/320/1 359/340/1 360/341/1 340/321/1
f 340/321/1 360/341/1 361/342/1 341/322/1
f 341/322/1 361/342/1 362/343/1 342/323/1
f 342/323/1 362/343/1 363/344/1 343/324/1
f 343/324/1 363/344/1 364/33/1 344/31/1
f 38/325/1 39/345/1 365/346/1 345/326/1
f 345/326/1 365/346/1 366/347/1 346/327/1
f 346/327/1 366/347/1 367/348/1 347/328/1
f 347/328/1 367/348/1 368/349/1 348/329/1
f 348/329/1 368/349/1 369/350/1 349/330/1
f 349/330/1 369/350/1 370/351/1 350/331/1
f 350/331/1 370/351/1 371/352/1 351/332/1
f 351/332/1 371/352/1 372/353/1 352/333/1
f 352/333/1 372/353/1 373/354/1 353/334/1
f 353/334/1 373/354/1 374/355/1 354/335/1
f 354/335/1 374/355/1 375/356/1 355/336/1
f 355/336/1 375/356/1 376/357/1 356/337/1
f 356/337/1 376/357/1 377/358/1 357/338/1
f 357/338/1 377/358/1 378/359/1 358/339/1
f 358/339/1 378/359/1 379/360/1 359/340/1
f 359/340/1 379/360/1 380/361/1 360/341/1
f 360/341/1 380/361/1 381/362/1 361/342/1
f 361/342/1 381/362/1 382/363/1 362/343/1
f 362/343/1 382/363/1 383/364/1 363/344/1
f 363/344/1 383/364/1 384/35/1 364/33/1
f 39/345/1 40/365/1 385/366/1 365/346/1
f 365/346/1 385/366/1 386/367/1 366/347/1
f 366/347/1 386/367/1 387/368/1 367/348/1
f 367/348/1 387/368/1 388/369/1 368/349/1
f 368/349/1 388/369/1 389/370/1 369/350/1
f 369/350/1 389/370/1 390/371/1 370/351/1
f 370/351/1 390/371/1 391/372/1 371/352/1
f 371/352/1 391/372/1 392/373/1 372/353/1
f 372/353/1 392/373/1 393/374/1 373/354/1
f 373/354/1 393/374/1 394/375/1 374/355/1
f 374/355/1 394/375/1 395/376/1 375/356/1
f 375/356/1 395/376/1 396/377/1 376/357/1
f 376/357/1 396/377/1 397/378/1 377/358/1
f 377/358/1 397/378/1 398/379/1 378/359/1
f 378/359/1 398/379/1 399/380/1 379/360/1
f 379/360/1 399/380/1 400/381/1 380/361/1
f 380/361/1 400/381/1 401/382/1 381/362/1
f 381/362/1 401/382/1 402/383/1 382/363/1
f 382/363/1 402/383/1 403/384/1 383/364/1
f 383/364/1 403/384/1 404/37/1 384/35/1
f 40/365/1 41/385/1 405/386/1 385/366/1
f 385/366/1 405/386/1 406/387/1 386/367/1
f 386/367/1 406/387/1 407/388/1 387/368/1
f 387/368/1 407/388/1 408/389/1 388/369/1
f 388/369/1 408/389/1 409/390/1 389/370/1
f 389/370/1 409/390/1 410/391/1 390/371/1
f 390/371/1 410/391/1 411/392/1 391/372/1
f 391/372/1 411/392/1 412/393/1 392/373/1
f 392/373/1 412/393/1 413/394/1 393/374/1
f 393/374/1 413/394/1 414/395/1 394/375/1
f 394/375/1 414/395/1 415/396/1 395/376/1
f 395/376/1 415/396/1 416/397/1 396/377/1
f 396/377/1 416/397/1 417/398/1 397/378/1
f 397/378/1 417/398/1 418/399/1 398/379/1
f 398/379/1 418/399/1 419/400/1 399/380/1
f 399/380/1 419/400/1 420/401/1 400/381/1
f 400/381/1 420/401/1 421/402/1 401/382/1
f 401/382/1 421/402/1 422/403/1 402/383/1
f 402/383/1 422/403/1 423/404/1 403/384/1
f 403/384/1 423/404/1 424/39/1 404/37/1
f 41/385/1 42/405/1 425/406/1 405/386/1
f 405/386/1 425/406/1 426/407/1 406/387/1
f 406/387/1 426/407/1 427/408/1 407/388/1
f 407/388/1 427/408/1 428/409/1 408/389/1
f 408/389/1 428/409/1 429/410/1 409/390/1
f 409/390/1 429/410/1 430/411/1 410/391/1
f 410/391/1 430/411/1 431/412/1 411/392/1
f 411/392/1 431/412/1 432/413/1 412/393/1
f 412/393/1 432/413/1 433/414/1 413/394/1
f 413/394/1 433/414/1 434/415/1 414/395/1
f 414/395/1 434/415/1 435/416/1 415/396/1
f 415/396/1 435/416/1 436/417/1 416/397/1
f 416/397/1 436/417/1 437/418/1 417/398/1
f 417/398/1 437/418/1 438/419/1 418/399/1
f 418/399/1 438/419/1 439/420/1 419/400/1
f 419/400/1 439/420/1 440/421/1 420/401/1
f 420/401/1 440/421/1 441/422/1 421/402/1
f 421/402/1 441/422/1 442/423/1 422/403/1
f 422/403/1 442/423/1 443/424/1 423/404/1
f 423/404/1 443/424/1 444/41/1 424/39/1
f 42/405/1 43/425/1 445/426/1 425/406/1
f 425/406/1 445/426/1 446/427/1 426/407/1
f 426/407/1 446/427/1 447/428/1 427/408/1
f 427/408/1 447/428/1 448/429/1 428/409/1
f 428/409/1 448/429/1 449/430/1 429/410/1
f 429/410/1 449/430/1 450/431/1 430/411/1
f 430/411/1 450/431/1 451/432/1 431/412/1
f 431/412/1 451/432/1 452/433/1 432/413/1
f 432/413/1 452/433/1 453/434/1 433/414/1
f 433/414/1 453/434/1 454/435/1 434/415/1
f 434/415/1 454/435/1 455/436/1 435/416/1
f 435/416/1 455/436/1 456/437/1 436/417/1
f 436/417/1 456/437/1 457/438/1 437/418/1
f 437/418/1 457/438/1 458/439/1 438/419/1
f 438/419/1 458/439/1 459/440/1 439/420/1
f 439/420/1 459/440/1 460/441/1 440/421/1
f 440/421/1 460/441/1 461/442/1 441/422/1
f 441/422/1 461/442/1 462/443/1 442/423/1
f 442/423/1 462/443/1 463/444/1 443/424/1
f 443/424/1 463/444/1 464/43/1 444/41/1
f 43/425/1 44/445/1 465/446/1 445/426/1
f 445/426/1 465/446/1 466/447/1 446/427/1
f 446/427/1 466/447/1 467/448/1 447/428/1
f 447/428/1 467/448/1 468/449/1 448/429/1
f 448/429/1 468/449/1 469/450/1 449/430/1
f 449/430/1 469/450/1 470/451/1 450/431/1
f 450/431/1 470/451/1 471/452/1 451/432/1
f 451/432/1 471/452/1 472/453/1 452/433/1
f 452/433/1 472/453/1 473/454/1 453/434/1
f 453/434/1 473/454/1 474/455/1 454/435/1
f 454/435/1 474/455/1 475/456/1 455/436/1
f 455/436/1 475/456/1 476/457/1 456/437/1
f 456/437/1 476/457/1 477/458/1 457/438/1
f 457/438/1 477/458/1 478/459/1 458/439/1
f 458/439/1 478/459/1 479/460/1 459/440/1
f 459/440/1 479/460/1 480/461/1 460/441/1
f 460/441/1 480/461/1 481/462/1 461/442/1
f 461/442/1 481/462/1 482/463/1 462/443/1
f 462/443/1 482/463/1 483/464/1 463/444/1
f 463/444/1 483/464/1 484/1/1 464/43/1
f 44/445/1 2/465/1 45/466/1 465/446/1
f 465/446/1 45/466/1 46/467/1 466/447/1
f 466/447/1 46/467/1 47/468/1 467/448/1
f 467/448/1 47/468/1 48/469/1 468/449/1
f 468/449/1 48/469/1 49/470/1 469/450/1
f 469/450/1 49/470/1 50/471/1 470/451/1
f 470/451/1 50/471/1 51/472/1 471/452/1
f 471/452/1 51/472/1 52/473/1 472/453/1
f 472/453/1 52/473/1 53/474/1 473/454/1
f 473/454/1 53/474/1 54/475/1 474/455/1
f 474/455/1 54/475/1 55/476/1 475/456/1
f 475/456/1 55/476/1 56/477/1 476/457/1
f 476/457/1 56/477/1 57/478/1 477/458/1
f 477/458/1 57/478/1 58/479/1 478/459/1
f 478/459/1 58/479/1 59/480/1 479/460/1
f 479/460/1 59/480/1 60/481/1 480/461/1
f 480/461/1 60/481/1 61/482/1 481/462/1
f 481/462/1 61/482/1 62/483/1 482/463/1
f 482/463/1 62/483/1 63/484/1 483/464/1
f 483/464/1 63/484/1 64/2/1 484/1/1
f 968/1/2 549/4/2 488/3/2 548/2/2
f 489/5/2 487/8/2 568/7/2 588/6/2
f 588/6/2 568/7/2 567/10/2 608/9/2
f 608/9/2 567/10/2 566/12/2 628/11/2
f 628/11/2 566/12/2 565/14/2 648/13/2
f 648/13/2 565/14/2 564/16/2 668/15/2
f 668/15/2 564/16/2 563/18/2 688/17/2
f 688/17/2 563/18/2 562/20/2 708/19/2
f 708/19/2 562/20/2 561/22/2 728/21/2
f 728/21/2 561/22/2 560/24/2 748/23/2
f 748/23/2 560/24/2 559/26/2 768/25/2
f 768/25/2 559/26/2 558/28/2 788/27/2
f 788/27/2 558/28/2 557/30/2 808/29/2
f 808/29/2 557/30/2 556/32/2 828/31/2
f 828/31/2 556/32/2 555/34/2 848/33/2
f 848/33/2 555/34/2 554/36/2 868/35/2
f 868/35/2 554/36/2 553/38/2 888/37/2
f 888/37/2 553/38/2 552/40/2 908/39/2
f 908/39/2 552/40/2 551/42/2 928/41/2
f 928/41/2 551/42/2 550/44/2 948/43/2
f 948/43/2 550/44/2 549/4/2 968/1/2
f 485/45/2 508/48/2 569/47/2 509/46/2
f 508/48/2 507/50/2 570/49/2 569/47/2
f 507/50/2 506/52/2 571/51/2 570/49/2
f 506/52/2 505/54/2 572/53/2 571/51/2
f 505/54/2 504/56/2 573/55/2 572/53/2
f 504/56/2 503/58/2 574/57/2 573/55/2
f 503/58/2 502/60/2 575/59/2 574/57/2
f 502/60/2 501/62/2 576/61/2 575/59/2
f 501/62/2 500/64/2 577/63/2 576/61/2
f 500/64/2 499/66/2 578/65/2 577/63/2
f 499/66/2 498/68/2 579/67/2 578/65/2
f 498/68/2 497/70/2 580/69/2 579/67/2
f 497/70/2 496/72/2 581/71/2 580/69/2
f 496/72/2 495/74/2 582/73/2 581/71/2
f 495/74/2 494/76/2 583/75/2 582/73/2
f 494/76/2 493/78/2 584/77/2 583/75/2
f 493/78/2 492/80/2 585/79/2 584/77/2
f 492/80/2 491/82/2 586/81/2 585/79/2
f 491/82/2 490/84/2 587/83/2 586/81/2
f 490/84/2 489/5/2 588/6/2 587/83/2
f 509/46/2 569/47/2 589/86/2 510/85/2
f 569/47/2 570/49/2 590/87/2 589/86/2
f 570/49/2 571/51/2 591/88/2 590/87/2
f 571/51/2 572/53/2 592/89/2 591/88/2
f 572/53/2 573/55/2 593/90/2 592/89/2
f 573/55/2 574/57/2 594/91/2 593/90/2
f 574/57/2 575/59/2 595/92/2 594/91/2
f 575/59/2 576/61/2 596/93/2 595/92/2
f 576/61/2 577/63/2 597/94/2 596/93/2
f 577/63/2 578/65/2 598/95/2 597/94/2
f 578/65/2 579/67/2 599/96/2 598/95/2
f 579/67/2 580/69/2 600/97/2 599/96/2
f 580/69/2 581/71/2 601/98/2 600/97/2
f 581/71/2 582/73/2 602/99/2 601/98/2
f 582/73/2 583/75/2 603/100/2 602/99/2
f 583/75/2 584/77/2 604/101/2 603/100/2
f 584/77/2 585/79/2 605/102/2 604/101/2
f 585/79/2 586/81/2 606/103/2 605/102/2
f 586/81/2 587/83/2 607/104/2 606/103/2
f 587/83/2 588/6/2 608/9/2 607/104/2
f 510/85/2 589/86/2 609/106/2 511/105/2
f 589/86/2 590/87/2 610/107/2 609/106/2
f 590/87/2 591/88/2 611/108/2 610/107/2
f 591/88/2 592/89/2 612/109/2 611/108/2
f 592/89/2 593/90/2 613/110/2 612/109/2
f 593/90/2 594/91/2 614/111/2 613/110/2
f 594/91/2 595/92/2 615/112/2 614/111/2
f 595/92/2 596/93/2 616/113/2 615/112/2
f 596/93/2 597/94/2 617/114/2 616/113/2
f 597/94/2 598/95/2 618/115/2 617/114/2
f 598/95/2 599/96/2 619/116/2 618/115/2
f 599/96/2 600/97/2 620/117/2 619/116/2
f 600/97/2 601/98/2 621/118/2 620/117/2
f 601/98/2 602/99/2 622/119/2 621/118/2
f 602/99/2 603/100/2 623/120/2 622/119/2
f 603/100/2 604/101/2 624/121/2 623/120/2
f 604/101/2 605/102/2 625/122/2 624/121/2
f 605/102/2 606/103/2 626/123/2 625/122/2
f 606/103/2 607/104/2 627/124/2 626/123/2
f 607/104/2 608/9/2 628/11/2 627/124/2
f 511/105/2 609/106/2 629/126/2 512/125/2
f 609/106/2 610/107/2 630/127/2 629/126/2
f 610/107/2 611/108/2 631/128/2 630/127/2
f 611/108/2 612/109/2 632/129/2 631/128/2
f 612/109/2 613/110/2 633/130/2 632/129/2
f 613/110/2 614/111/2 634/131/2 633/130/2
f 614/111/2 615/112/2 635/132/2 634/131/2
f 615/112/2 616/113/2 636/133/2 635/132/2
f 616/113/2 617/114/2 637/134/2 636/133/2
f 617/114/2 618/115/2 638/135/2 637/134/2
f 618/115/2 619/116/2 639/136/2 638/135/2
f 619/116/2 620/117/2 640/137/2 639/136/2
f 620/117/2 621/118/2 641/138/2 640/137/2
f 621/118/2 622/119/2 642/139/2 641/138/2
f 622/119/2 623/120/2 643/140/2 642/139/2
f 623/120/2 624/121/2 644/141/2 643/140/2
f 624/121/2 625/122/2 645/142/2 644/141/2
f 625/122/2 626/123/2 646/143/2 645/142/2
f 626/123/2 627/124/2 647/144/2 646/143/2
f 627/124/2 628/11/2 648/13/2 647/144/2
f 512/125/2 629/126/2 649/146/2 513/145/2
f 629/126/2 630/127/2 650/147/2 649/146/2
f 630/127/2 631/128/2 651/148/2 650/147/2
f 631/128/2 632/129/2 652/149/2 651/148/2
f 632/129/2 633/130/2 653/150/2 652/149/2
f 633/130/2 634/131/2 654/151/2 653/150/2
f 634/131/2 635/132/2 655/152/2 654/151/2
f 635/132/2 636/133/2 656/153/2 655/152/2
f 636/133/2 637/134/2 657/154/2 656/153/2
f 637/134/2 638/135/2 658/155/2 657/154/2
f 638/135/2 639/136/2 659/156/2 658/155/2
f 639/136/2 640/137/2 660/157/2 659/156/2
f 640/137/2 641/138/2 661/158/2 660/157/2
f 641/138/2 642/139/2 662/159/2 661/158/2
f 642/139/2 643/140/2 663/160/2 662/159/2
f 643/140/2 644/141/2 664/161/2 663/160/2
f 644/141/2 645/142/2 665/162/2 664/161/2
f 645/142/2 646/143/2 666/163/2 665/162/2
f 646/143/2 647/144/2 667/164/2 666/163/2
f 647/144/2 648/13/2 668/15/2 667/164/2
f 513/145/2 649/146/2 669/166/2 514/165/2
f 649/146/2 650/147/2 670/167/2 669/166/2
f 650/147/2 651/148/2 671/168/2 670/167/2
f 651/148/2 652/149/2 672/169/2 671/168/2
f 652/149/2 653/150/2 673/170/2 672/169/2
f 653/150/2 654/151/2 674/171/2 673/170/2
f 654/151/2 655/152/2 675/172/2 674/171/2
f 655/152/2 656/153/2 676/173/2 675/172/2
f 656/153/2 657/154/2 677/174/2 676/173/2
f 657/154/2 658/155/2 678/175/2 677/174/2
f 658/155/2 659/156/2 679/176/2 678/175/2
f 659/156/2 660/157/2 680/177/2 679/176/2
f 660/157/2 661/158/2 681/178/2 680/177/2
f 661/158/2 662/159/2 682/179/2 681/178/2
f 662/159/2 663/160/2 683/180/2 682/179/2
f 663/160/2 664/161/2 684/181/2 683/180/2
f 664/161/2 665/162/2 685/182/2 684/181/2
f 665/162/2 666/163/2 686/183/2 685/182/2
f 666/163/2 667/164/2 687/184/2 686/183/2
f 667/164/2 668/15/2 688/17/2 687/184/2
f 514/165/2 669/166/2 689/186/2 515/185/2
f 669/166/2 670/167/2 690/187/2 689/186/2
f 670/167/2 671/168/2 691/188/2 690/187/2
f 671/168/2 672/169/2 692/189/2 691/188/2
f 672/169/2 673/170/2 693/190/2 692/189/2
f 673/170/2 674/171/2 694/191/2 693/190/2
f 674/171/2 675/172/2 695/192/2 694/191/2
f 675/172/2 676/173/2 696/193/2 695/192/2
f 676/173/2 677/174/2 697/194/2 696/193/2
f 677/174/2 678/175/2 698/195/2 697/194/2
f 678/175/2 679/176/2 699/196/2 698/195/2
f 679/176/2 680/177/2 700/197/2 699/196/2
f 680/177/2 681/178/2 701/198/2 700/197/2
f 681/178/2 682/179/2 702/199/2 701/198/2
f 682/179/2 683/180/2 703/200/2 702/199/2
f 683/180/2 684/181/2 704/201/2 703/200/2
f 684/181/2 685/182/2 705/202/2 704/201/2
f 685/182/2 686/183/2 706/203/2 705/202/2
f 686/183/2 687/184/2 707/204/2 706/203/2
f 687/184/2 688/17/2 708/19/2 707/204/2
f 515/185/2 689/186/2 709/206/2 516/205/2
f 689/186/2 690/187/2 710/207/2 709/206/2
f 690/187/2 691/188/2 711/208/2 710/207/2
f 691/188/2 692/189/2 712/209/2 711/208/2
f 692/189/2 693/190/2 713/210/2 712/209/2
f 693/190/2 694/191/2 714/211/2 713/210/2
f 694/191/2 695/192/2 715/212/2 714/211/2
f 695/192/2 696/193/2 716/213/2 715/212/2
f 696/193/2 697/194/2 717/214/2 716/213/2
f 697/194/2 698/195/2 718/215/2 717/214/2
f 698/195/2 699/196/2 719/216/2 718/215/2
f 699/196/2 700/197/2 720/217/2 719/216/2
f 700/197/2 701/198/2 721/218/2 720/217/2
f 701/198/2 702/199/2 722/219/2 721/218/2
f 702/199/2 703/200/2 723/220/2 722/219/2
f 703/200/2 704/201/2 724/221/2 723/220/2
f 704/201/2 705/202/2 725/222/2 724/221/2
f 705/202/2 706/203/2 726/223/2 725/222/2
f 706/203/2 707/204/2 727/224/2 726/223/2
f 707/204/2 708/19/2 728/21/2 727/224/2
f 516/205/2 709/206/2 729/226/2 517/225/2
f 709/206/2 710/207/2 730/227/2 729/226/2
f 710/207/2 711/208/2 731/228/2 730/227/2
f 711/208/2 712/209/2 732/229/2 731/228/2
f 712/209/2 713/210/2 733/230/2 732/229/2
f 713/210/2 714/211/2 734/231/2 733/230/2
f 714/211/2 715/212/2 735/232/2 734/231/2
f 715/212/2 716/213/2 736/233/2 735/232/2
f 716/213/2 717/214/2 737/234/2 736/233/2
f 717/214/2 718/215/2 738/235/2 737/234/2
f 718/215/2 719/216/2 739/236/2 738/235/2
f 719/216/2 720/217/2 740/237/2 739/236/2
f 720/217/2 721/218/2 741/238/2 740/237/2
f 721/218/2 722/219/2 742/239/2 741/238/2
f 722/219/2 723/220/2 743/240/2 742/239/2
f 723/220/2 724/221/2 744/241/2 743/240/2
f 724/221/2 725/222/2 745/242/2 744/241/2
f 725/222/2 726/223/2 746/243/2 745/242/2
f 726/223/2 727/224/2 747/244/2 746/243/2
f 727/224/2 728/21/2 748/23/2 747/244/2
f 517/225/2 729/226/2 749/246/2 518/245/2
f 729/226/2 730/227/2 750/247/2 749/246/2
f 730/227/2 731/228/2 751/248/2 750/247/2
f 731/228/2 732/229/2 752/249/2 751/248/2
f 732/229/2 733/230/2 753/250/2 752/249/2
f 733/230/2 734/231/2 754/251/2 753/250/2
f 734/231/2 735/232/2 755/252/2 754/251/2
f 735/232/2 736/233/2 756/253/2 755/252/2
f 736/233/2 737/234/2 757/254/2 756/253/2
f 737/234/2 738/235/2 758/255/2 757/254/2
f 738/235/2 739/236/2 759/256/2 758/255/2
f 739/236/2 740/237/2 760/257/2 759/256/2
f 740/237/2 741/238/2 761/258/2 760/257/2
f 741/238/2 742/239/2 762/259/2 761/258/2
f 742/239/2 743/240/2 763/260/2 762/259/2
f 743/240/2 744/241/2 764/261/2 763/260/2
f 744/241/2 745/242/2 765/262/2 764/261/2
f 745/242/2 746/243/2 766/263/2 765/262/2
f 746/243/2 747/244/2 767/264/2 766/263/2
f 747/244/2 748/23/2 768/25/2 767/264/2
f 518/245/2 749/246/2 769/266/2 519/265/2
f 749/246/2 750/247/2 770/267/2 769/266/2
f 750/247/2 751/248/2 771/268/2 770/267/2
f 751/248/2 752/249/2 772/269/2 771/268/2
f 752/249/2 753/250/2 773/270/2 772/269/2
f 753/250/2 754/251/2 774/271/2 773/270/2
f 754/251/2 755/252/2 775/272/2 774/271/2
f 755/252/2 756/253/2 776/273/2 775/272/2
f 756/253/2 757/254/2 777/274/2 776/273/2
f 757/254/2 758/255/2 778/275/2 777/274/2
f 758/255/2 759/256/2 779/276/2 778/275/2
f 759/256/2 760/257/2 780/277/2 779/276/2
f 760/257/2 761/258/2 781/278/2 780/277/2
f 761/258/2 762/259/2 782/279/2 781/278/2
f 762/259/2 763/260/2 783/280/2 782/279/2
f 763/260/2 764/261/2 784/281/2 783/280/2
f 764/261/2 765/262/2 785/282/2 784/281/2
f 765/262/2 766/263/2 786/283/2 785/282/2
f 766/263/2 767/264/2 787/284/2 786/283/2
f 767/264/2 768/25/2 788/27/2 787/284/2
f 519/265/2 769/266/2 789/286/2 520/285/2
f 769/266/2 770/267/2 790/287/2 789/286/2
f 770/267/2 771/268/2 791/288/2 790/287/2
f 771/268/2 772/269/2 792/289/2 791/288/2
f 772/269/2 773/270/2 793/290/2 792/289/2
f 773/270/2 774/271/2 794/291/2 793/290/2
f 774/271/2 775/272/2 795/292/2 794/291/2
f 775/272/2 776/273/2 796/293/2 795/292/2
f 776/273/2 777/274/2 797/294/2 796/293/2
f 777/274/2 778/275/2 798/295/2 797/294/2
f 778/275/2 779/276/2 799/296/2 798/295/2
f 779/276/2 780/277/2 800/297/2 799/296/2
f 780/277/2 781/278/2 801/298/2 800/297/2
f 781/278/2 782/279/2 802/299/2 801/298/2
f 782/279/2 783/280/2 803/300/2 802/299/2
f 783/280/2 784/281/2 804/301/2 803/300/2
f 784/281/2 785/282/2 805/302/2 804/301/2
f 785/282/2 786/283/2 806/303/2 805/302/2
f 786/283/2 787/284/2 807/304/2 806/303/2
f 787/284/2 788/27/2 808/29/2 807/304/2
f 520/285/2 789/286/2 809/306/2 521/305/2
f 789/286/2 790/287/2 810/307/2 809/306/2
f 790/287/2 791/288/2 811/308/2 810/307/2
f 791/288/2 792/289/2 812/309/2 811/308/2
f 792/289/2 793/290/2 813/310/2 812/309/2
f 793/290/2 794/291/2 814/311/2 813/310/2
f 794/291/2 795/292/2 815/312/2 814/311/2
f 795/292/2 796/293/2 816/313/2 815/312/2
f 796/293/2 797/294/2 817/314/2 816/313/2
f 797/294/2 798/295/2 818/315/2 817/314/2
f 798/295/2 799/296/2 819/316/2 818/315/2
f 799/296/2 800/297/2 820/317/2 819/316/2
f 800/297/2 801/298/2 821/318/2 820/317/2
f 801/298/2 802/299/2 822/319/2 821/318/2
f 802/299/2 803/300/2 823/320/2 822/319/2
f 803/300/2 804/301/2 824/321/2 823/320/2
f 804/301/2 805/302/2 825/322/2 824/321/2
f 805/302/2 806/303/2 826/323/2 825/322/2
f 806/303/2 807/304/2 827/324/2 826/323/2
f 807/304/2 808/29/2 828/31/2 827/324/2
f 521/305/2 809/306/2 829/326/2 522/325/2
f 809/306/2 810/307/2 830/327/2 829/326/2
f 810/307/2 811/308/2 831/328/2 830/327/2
f 811/308/2 812/309/2 832/329/2 831/328/2
f 812/309/2 813/310/2 833/330/2 832/329/2
f 813/310/2 814/311/2 834/331/2 833/330/2
f 814/311/2 815/312/2 835/332/2 834/331/2
f 815/312/2 816/313/2 836/333/2 835/332/2
f 816/313/2 817/314/2 837/334/2 836/333/2
f 817/314/2 818/315/2 838/335/2 837/334/2
f 818/315/2 819/316/2 839/336/2 838/335/2
f 819/316/2 820/317/2 840/337/2 839/336/2
f 820/317/2 821/318/2 841/338/2 840/337/2
f 821/318/2 822/319/2 842/339/2 841/338/2
f 822/319/2 823/320/2 843/340/2 842/339/2
f 823/320/2 824/321/2 844/341/2 843/340/2
f 824/321/2 825/322/2 845/342/2 844/341/2
f 825/322/2 826/323/2 846/343/2 845/342/2
f 826/323/2 827/324/2 847/344/2 846/343/2
f 827/324/2 828/31/2 848/33/2 847/344/2
f 522/325/2 829/326/2 849/346/2 523/345/2
f 829/326/2 830/327/2 850/347/2 849/346/2
f 830/327/2 831/328/2 851/348/2 850/347/2
f 831/328/2 832/329/2 852/349/2 851/348/2
f 832/329/2 833/330/2 853/350/2 852/349/2
f 833/330/2 834/331/2 854/351/2 853/350/2
f 834/331/2 835/332/2 855/352/2 854/351/2
f 835/332/2 836/333/2 856/353/2 855/352/2
f 836/333/2 837/334/2 857/354/2 856/353/2
f 837/334/2 838/335/2 858/355/2 857/354/2
f 838/335/2 839/336/2 859/356/2 858/355/2
f 839/336/2 840/337/2 860/357/2 859/356/2
f 840/337/2 841/338/2 861/358/2 860/357/2
f 841/338/2 842/339/2 862/359/2 861/358/2
f 842/339/2 843/340/2 863/360/2 862/359/2
f 843/340/2 844/341/2 864/361/2 863/360/2
f 844/341/2 845/342/2 865/362/2 864/361/2
f 845/342/2 846/343/2 866/363/2 865/362/2
f 846/343/2 847/344/2 867/364/2 866/363/2
f 847/344/2 848/33/2 868/35/2 867/364/2
f 523/345/2 849/346/2 869/366/2 524/365/2
f 849/346/2 850/347/2 870/367/2 869/366/2
f 850/347/2 851/348/2 871/368/2 870/367/2
f 851/348/2 852/349/2 872/369/2 871/368/2
f 852/349/2 853/350/2 873/370/2 872/369/2
f 853/350/2 854/351/2 874/371/2 873/370/2
f 854/351/2 855/352/2 875/372/2 874/371/2
f 855/352/2 856/353/2 876/373/2 875/372/2
f 856/353/2 857/354/2 877/374/2 876/373/2
f 857/354/2 858/355/2 878/375/2 877/374/2
f 858/355/2 859/356/2 879/376/2 878/375/2
f 859/356/2 860/357/2 880/377/2 879/376/2
f 860/357/2 861/358/2 881/378/2 880/377/2
f 861/358/2 862/359/2 882/379/2 881/378/2
f 862/359/2 863/360/2 883/380/2 882/379/2
f 863/360/2 864/361/2 884/381/2 883/380/2
f 864/361/2 865/362/2 885/382/2 884/381/2
f 865/362/2 866/363/2 886/383/2 885/382/2
f 866/363/2 867/364/2 887/384/2 886/383/2
f 867/364/2 868/35/2 888/37/2 887/384/2
f 524/365/2 869/366/2 889/386/2 525/385/2
f 869/366/2 870/367/2 890/387/2 889/386/2
f 870/367/2 871/368/2 891/388/2 890/387/2
f 871/368/2 872/369/2 892/389/2 891/388/2
f 872/369/2 873/370/2 893/390/2 892/389/2
f 873/370/2 874/371/2 894/391/2 893/390/2
f 874/371/2 875/372/2 895/392/2 894/391/2
f 875/372/2 876/373/2 896/393/2 895/392/2
f 876/373/2 877/374/2 897/394/2 896/393/2
f 877/374/2 878/375/2 898/395/2 897/394/2
f 878/375/2 879/376/2 899/396/2 898/395/2
f 879/376/2 880/377/2 900/397/2 899/396/2
f 880/377/2 881/378/2 901/398/2 900/397/2
f 881/378/2 882/379/2 902/399/2 901/398/2
f 882/379/2 883/380/2 903/400/2 902/399/2
f 883/380/2 884/381/2 904/401/2 903/400/2
f 884/381/2 885/382/2 905/402/2 904/401/2
f 885/382/2 886/383/2 906/403/2 905/402/2
f 886/383/2 887/384/2 907/404/2 906/403/2
f 887/384/2 888/37/2 908/39/2 907/404/2
f 525/385/2 889/386/2 909/406/2 526/405/2
f 889/386/2 890/387/2 910/407/2 909/406/2
f 890/387/2 891/388/2 911/408/2 910/407/2
f 891/388/2 892/389/2 912/409/2 911/408/2
f 892/389/2 893/390/2 913/410/2 912/409/2
f 893/390/2 894/391/2 914/411/2 913/410/2
f 894/391/2 895/392/2 915/412/2 914/411/2
f 895/392/2 896/393/2 916/413/2 915/412/2
f 896/393/2 897/394/2 917/414/2 916/413/2
f 897/394/2 898/395/2 918/415/2 917/414/2
f 898/395/2 899/396/2 919/416/2 918/415/2
f 899/396/2 900/397/2 920/417/2 919/416/2
f 900/397/2 901/398/2 921/418/2 920/417/2
f 901/398/2 902/399/2 922/419/2 921/418/2
f 902/399/2 903/400/2 923/420/2 922/419/2
f 903/400/2 904/401/2 924/421/2 923/420/2
f 904/401/2 905/402/2 925/422/2 924/421/2
f 905/402/2 906/403/2 926/423/2 925/422/2
f 906/403/2 907/404/2 927/424/2 926/423/2
f 907/404/2 908/39/2 928/41/2 927/424/2
f 526/405/2 909/406/2 929/426/2 527/425/2
f 909/406/2 910/407/2 930/427/2 929/426/2
f 910/407/2 911/408/2 931/428/2 930/427/2
f 911/408/2 912/409/2 932/429/2 931/428/2
f 912/409/2 913/410/2 933/430/2 932/429/2
f 913/410/2 914/411/2 934/431/2 933/430/2
f 914/411/2 915/412/2 935/432/2 934/431/2
f 915/412/2 916/413/2 936/433/2 935/432/2
f 916/413/2 917/414/2 937/434/2 936/433/2
f 917/414/2 918/415/2 938/435/2 937/434/2
f 918/415/2 919/416/2 939/436/2 938/435/2
f 919/416/2 920/417/2 940/437/2 939/436/2
f 920/417/2 921/418/2 941/438/2 940/437/2
f 921/418/2 922/419/2 942/439/2 941/438/2
f 922/419/2 923/420/2 943/440/2 942/439/2
f 923/420/2 924/421/2 944/441/2 943/440/2
f 924/421/2 925/422/2 945/442/2 944/441/2
f 925/422/2 926/423/2 946/443/2 945/442/2
f 926/423/2 927/424/2 947/444/2 946/443/2
f 927/424/2 928/41/2 948/43/2 947/444/2
f 527/425/2 929/426/2 949/446/2 528/445/2
f 929/426/2 930/427/2 950/447/2 949/446/2
f 930/427/2 931/428/2 951/448/2 950/447/2
f 931/428/2 932/429/2 952/449/2 951/448/2
f 932/429/2 933/430/2 953/450/2 952/449/2
f 933/430/2 934/431/2 954/451/2 953/450/2
f 934/431/2 935/432/2 955/452/2 954/451/2
f 935/432/2 936/433/2 956/453/2 955/452/2
f 936/433/2 937/434/2 957/454/2 956/453/2
f 937/434/2 938/435/2 958/455/2 957/454/2
f 938/435/2 939/436/2 959/456/2 958/455/2
f 939/436/2 940/437/2 960/457/2 959/456/2
f 940/437/2 941/438/2 961/458/2 960/457/2
f 941/438/2 942/439/2 962/459/2 961/458/2
f 942/439/2 943/440/2 963/460/2 962/459/2
f 943/440/2 944/441/2 964/461/2 963/460/2
f 944/441/2 945/442/2 965/462/2 964/461/2
f 945/442/2 946/443/2 966/463/2 965/462/2
f 946/443/2 947/444/2 967/464/2 966/463/2
f 947/444/2 948/43/2 968/1/2 967/464/2
f 528/445/2 949/446/2 529/466/2 486/465/2
f 949/446/2 950/447/2 530/467/2 529/466/2
f 950/447/2 951/448/2 531/468/2 530/467/2
f 951/448/2 952/449/2 532/469/2 531/468/2
f 952/449/2 953/450/2 533/470/2 532/469/2
f 953/450/2 954/451/2 534/471/2 533/470/2
f 954/451/2 955/452/2 535/472/2 534/471/2
f 955/452/2 956/453/2 536/473/2 535/472/2
f 956/453/2 957/454/2 537/474/2 536/473/2
f 957/454/2 958/455/2 538/475/2 537/474/2
f 958/455/2 959/456/2 539/476/2 538/475/2
f 959/456/2 960/457/2 540/477/2 539/476/2
f 960/457/2 961/458/2 541/478/2 540/477/2
f 961/458/2 962/459/2 542/479/2 541/478/2
f 962/459/2 963/460/2 543/480/2 542/479/2
f 963/460/2 964/461/2 544/481/2 543/480/2
f 964/461/2 965/462/2 545/482/2 544/481/2
f 965/462/2 966/463/2 546/483/2 545/482/2
f 966/463/2 967/464/2 547/484/2 546/483/2
f 967/464/2 968/1/2 548/2/2 547/484/2
f 1/45/3 24/48/3 508/48/3 485/45/3
f 2/465/4 44/445/4 528/445/4 486/465/4
f 4/3/5 64/2/5 548/2/5 488/3/5
f 3/8/6 84/7/6 568/7/6 487/8/6
f 5/5/3 3/8/3 487/8/3 489/5/3
f 6/84/3 5/5/3 489/5/3 490/84/3
f 7/82/3 6/84/3 490/84/3 491/82/3
f 8/80/3 7/82/3 491/82/3 492/80/3
f 9/78/3 8/80/3 492/80/3 493/78/3
f 10/76/3 9/78/3 493/78/3 494/76/3
f 11/74/3 10/76/3 494/76/3 495/74/3
f 12/72/3 11/74/3 495/74/3 496/72/3
f 13/70/3 12/72/3 496/72/3 497/70/3
f 14/68/3 13/70/3 497/70/3 498/68/3
f 15/66/3 14/68/3 498/68/3 499/66/3
f 16/64/3 15/66/3 499/66/3 500/64/3
f 17/62/3 16/64/3 500/64/3 501/62/3
f 18/60/3 17/62/3 501/62/3 502/60/3
f 19/58/3 18/60/3 502/60/3 503/58/3
f 20/56/3 19/58/3 503/58/3 504/56/3
f 21/54/3 20/56/3 504/56/3 505/54/3
f 22/52/3 21/54/3 505/54/3 506/52/3
f 23/50/3 22/52/3 506/52/3 507/50/3
f 24/48/3 23/50/3 507/50/3 508/48/3
f 25/46/4 1/45/4 485/45/4 509/46/4
f 26/85/4 25/46/4 509/46/4 510/85/4
f 27/105/4 26/85/4 510/85/4 511/105/4
f 28/125/4 27/105/4 511/105/4 512/125/4
f 29/145/4 28/125/4 512/125/4 513/145/4
f 30/165/4 29/145/4 513/145/4 514/165/4
f 31/185/4 30/165/4 514/165/4 515/185/4
f 32/205/4 31/185/4 515/185/4 516/205/4
f 33/225/4 32/205/4 516/205/4 517/225/4
f 34/245/4 33/225/4 517/225/4 518/245/4
f 35/265/4 34/245/4 518/245/4 519/265/4
f 36/285/4 35/265/4 519/265/4 520/285/4
f 37/305/4 36/285/4 520/285/4 521/305/4
f 38/325/4 37/305/4 521/305/4 522/325/4
f 39/345/4 38/325/4 522/325/4 523/345/4
f 40/365/4 39/345/4 523/345/4 524/365/4
f 41/385/4 40/365/4 524/365/4 525/385/4
f 42/405/4 41/385/4 525/385/4 526/405/4
f 43/425/4 42/405/4 526/405/4 527/425/4
f 44/445/4 43/425/4 527/425/4 528/445/4
f 45/466/5 2/465/5 486/465/5 529/466/5
f 46/467/5 45/466/5 529/466/5 530/467/5
f 47/468/5 46/467/5 530/467/5 531/468/5
f 48/469/5 47/468/5 531/468/5 532/469/5
f 49/470/5 48/469/5 532/469/5 533/470/5
f 50/471/5 49/470/5 533/470/5 534/471/5
f 51/472/5 50/471/5 534/471/5 535/472/5
f 52/473/5 51/472/5 535/472/5 536/473/5
f 53/474/5 52/473/5 536/473/5 537/474/5
f 54/475/5 53/474/5 537/474/5 538/475/5
f 55/476/5 54/475/5 538/475/5 539/476/5
f 56/477/5 55/476/5 539/476/5 540/477/5
f 57/478/5 56/477/5 540/477/5 541/478/5
f 58/479/5 57/478/5 541/478/5 542/479/5
f 59/480/5 58/479/5 542/479/5 543/480/5
f 60/481/5 59/480/5 543/480/5 544/481/5
f 61/482/5 60/481/5 544/481/5 545/482/5
f 62/483/5 61/482/5 545/482/5 546/483/5
f 63/484/5 62/483/5 546/483/5 547/484/5
f 64/2/5 63/484/5 547/484/5 548/2/5
f 65/4/6 4/3/6 488/3/6 549/4/6
f 66/44/6 65/4/6 549/4/6 550/44/6
f 67/42/6 66/44/6 550/44/6 551/42/6
f 68/40/6 67/42/6 551/42/6 552/40/6
f 69/38/6 68/40/6 552/40/6 553/38/6
f 70/36/6 69/38/6 553/38/6 554/36/6
f 71/34/6 70/36/6 554/36/6 555/34/6
f 72/32/6 71/34/6 555/34/6 556/32/6
f 73/30/6 72/32/6 556/32/6 557/30/6
f 74/28/6 73/30/6 557/30/6 558/28/6
f 75/26/6 74/28/6 558/28/6 559/26/6
f 76/24/6 75/26/6 559/26/6 560/24/6
f 77/22/6 76/24/6 560/24/6 561/22/6
f 78/20/6 77/22/6 561/22/6 562/20/6
f 79/18/6 78/20/6 562/20/6 563/18/6
f 80/16/6 79/18/6 563/18/6 564/16/6
f 81/14/6 80/16/6 564/16/6 565/14/6
f 82/12/6 81/14/6 565/14/6 566/12/6
f 83/10/6 82/12/6 566/12/6 567/10/6
f 84/7/6 83/10/6 567/10/6 568/7/6
o Cylinder
v -0.092500 -0.001570 0.086218
v -0.092500 0.001570 0.086218
v -0.090874 -0.001570 0.086432
v -0.090874 0.001570 0.086432
v -0.089359 -0.001570 0.087060
v -0.089359 0.001570 0.087060
v -0.088058 -0.001570 0.088058
v -0.088058 0.001570 0.088058
v -0.087060 -0.001570 0.089359
v -0.087060 0.001570 0.089359
v -0.086432 -0.001570 0.090874
v -0.086432 0.001570 0.090874
v -0.086218 -0.001570 0.092500
v -0.086218 0.001570 0.092500
v -0.086432 -0.001570 0.094126
v -0.086432 0.001570 0.094126
v -0.087060 -0.001570 0.095641
v -0.087060 0.001570 0.095641
v -0.088058 -0.001570 0.096942
v -0.088058 0.001570 0.096942
v -0.089359 -0.001570 0.097940
v -0.089359 0.001570 0.097940
v -0.090874 -0.001570 0.098568
v -0.090874 0.001570 0.098568
v -0.092500 -0.001570 0.098782
v -0.092500 0.001570 0.098782
v -0.094126 -0.001570 0.098568
v -0.094126 0.001570 0.098568
v -0.095641 -0.001570 0.097940
v -0.095641 0.001570 0.097940
v -0.096942 -0.001570 0.096942
v -0.096942 0.001570 0.096942
v -0.097940 -0.001570 0.095641
v -0.097940 0.001570 0.095641
v -0.098568 -0.001570 0.094126
v -0.098568 0.001570 0.094126
v -0.098782 -0.001570 0.092500
v -0.098782 0.001570 0.092500
v -0.098568 -0.001570 0.090874
v -0.098568 0.001570 0.090874
v -0.097940 -0.001570 0.089359
v -0.097940 0.001570 0.089359
v -0.096942 -0.001570 0.088058
v -0.096942 0.001570 0.088058
v -0.095641 -0.001570 0.087060
v -0.095641 0.001570 0.087060
v -0.094126 -0.001570 0.086432
v -0.094126 0.001570 0.086432
v 0.092500 -0.001570 0.086218
v 0.092500 0.001570 0.086218
v 0.090874 -0.001570 0.086432
v 0.090874 0.001570 0.086432
v 0.089359 -0.001570 0.087060
v 0.089359 0.001570 0.087060
v 0.088058 -0.001570 0.088058
v 0.088058 0.001570 0.088058
v 0.087060 -0.001570 0.089359
v 0.087060 0.001570 0.089359
v 0.086432 -0.001570 0.090874
v 0.086432 0.001570 0.090874
v 0.086218 -0.001570 0.092500
v 0.086218 0.001570 0.092500
v 0.086432 -0.001570 0.094126
v 0.086432 0.001570 0.094126
v 0.087060 -0.001570 0.095641
v 0.087060 0.001570 0.095641
v 0.088058 -0.001570 0.096942
v 0.088058 0.001570 0.096942
v 0.089359 -0.001570 0.097940
v 0.089359 0.001570 0.097940
v 0.090874 -0.001570 0.098568
v 0.090874 0.001570 0.098568
v 0.092500 -0.001570 0.098782
v 0.092500 0.001570 0.098782
v 0.094126 -0.001570 0.098568
v 0.094126 0.001570 0.098568
v 0.095641 -0.001570 0.097940
v 0.095641 0.001570 0.097940
v 0.096942 -0.001570 0.096942
v 0.096942 0.001570 0.096942
v 0.097940 -0.001570 0.095641
v 0.097940 0.001570 0.095641
v 0.098568 -0.001570 0.094126
v 0.098568 0.001570 0.094126
v 0.098782 -0.001570 0.092500
v 0.098782 0.001570 0.092500
v 0.098568 -0.001570 0.090874
v 0.098568 0.001570 0.090874
v 0.097940 -0.001570 0.089359
v 0.097940 0.001570 0.089359
v 0.096942 -0.001570 0.088058
v 0.096942 0.001570 0.088058
v 0.095641 -0.001570 0.087060
v 0.095641 0.001570 0.087060
v 0.094126 -0.001570 0.086432
v 0.094126 0.001570 0.086432
v -0.092500 -0.001570 -0.086218
v -0.092500 0.001570 -0.086218
v -0.090874 -0.001570 -0.086432
v -0.090874 0.001570 -0.086432
v -0.089359 -0.001570 -0.087060
v -0.089359 0.001570 -0.087060
v -0.088058 -0.001570 -0.088058
v -0.088058 0.001570 -0.088058
v -0.087060 -0.001570 -0.089359
v -0.087060 0.001570 -0.089359
v -0.086432 -0.001570 -0.090874
v -0.086432 0.001570 -0.090874
v -0.086218 -0.001570 -0.092500
v -0.086218 0.001570 -0.092500
v -0.086432 -0.001570 -0.094126
v -0.086432 0.001570 -0.094126
v -0.087060 -0.001570 -0.095641
v -0.087060 0.001570 -0.095641
v -0.088058 -0.001570 -0.096942
v -0.088058 0.001570 -0.096942
v -0.089359 -0.001570 -0.097940
v -0.089359 0.001570 -0.097940
v -0.090874 -0.001570 -0.098568
v -0.090874 0.001570 -0.098568
v -0.092500 -0.001570 -0.098782
v -0.092500 0.001570 -0.098782
v -0.094126 -0.001570 -0.098568
v -0.094126 0.001570 -0.098568
v -0.095641 -0.001570 -0.097940
v -0.095641 0.001570 -0.097940
v -0.096942 -0.001570 -0.096942
v -0.096942 0.001570 -0.096942
v -0.097940 -0.001570 -0.095641
v -0.097940 0.001570 -0.095641
v -0.098568 -0.001570 -0.094126
v -0.098568 0.001570 -0.094126
v -0.098782 -0.001570 -0.092500
v -0.098782 0.001570 -0.092500
v -0.098568 -0.001570 -0.090874
v -0.098568 0.001570 -0.090874
v -0.097940 -0.001570 -0.089359
v -0.097940 0.001570 -0.089359
v -0.096942 -0.001570 -0.088058
v -0.096942 0.001570 -0.088058
v -0.095641 -0.001570 -0.087060
v -0.095641 0.001570 -0.087060
v -0.094126 -0.001570 -0.086432
v -0.094126 0.001570 -0.086432
v 0.092500 -0.001570 -0.086218
v 0.092500 0.001570 -0.086218
v 0.090874 -0.001570 -0.086432
v 0.090874 0.001570 -0.086432
v 0.089359 -0.001570 -0.087060
v 0.089359 0.001570 -0.087060
v 0.088058 -0.001570 -0.088058
v 0.088058 0.001570 -0.088058
v 0.087060 -0.001570 -0.089359
v 0.087060 0.001570 -0.089359
v 0.086432 -0.001570 -0.090874
v 0.086432 0.001570 -0.090874
v 0.086218 -0.001570 -0.092500
v 0.086218 0.001570 -0.092500
v 0.086432 -0.001570 -0.094126
v 0.086432 0.001570 -0.094126
v 0.087060 -0.001570 -0.095641
v 0.087060 0.001570 -0.095641
v 0.088058 -0.001570 -0.096942
v 0.088058 0.001570 -0.096942
v 0.089359 -0.001570 -0.097940
v 0.089359 0.001570 -0.097940
v 0.090874 -0.001570 -0.098568
v 0.090874 0.001570 -0.098568
v 0.092500 -0.001570 -0.098782
v 0.092500 0.001570 -0.098782
v 0.094126 -0.001570 -0.098568
v 0.094126 0.001570 -0.098568
v 0.095641 -0.001570 -0.097940
v 0.095641 0.001570 -0.097940
v 0.096942 -0.001570 -0.096942
v 0.096942 0.001570 -0.096942
v 0.097940 -0.001570 -0.095641
v 0.097940 0.001570 -0.095641
v 0.098568 -0.001570 -0.094126
v 0.098568 0.001570 -0.094126
v 0.098782 -0.001570 -0.092500
v 0.098782 0.001570 -0.092500
v 0.098568 -0.001570 -0.090874
v 0.098568 0.001570 -0.090874
v 0.097940 -0.001570 -0.089359
v 0.097940 0.001570 -0.089359
v 0.096942 -0.001570 -0.088058
v 0.096942 0.001570 -0.088058
v 0.095641 -0.001570 -0.087060
v 0.095641 0.001570 -0.087060
v 0.094126 -0.001570 -0.086432
v 0.094126 0.001570 -0.086432
vn 0.1305 -0.0000 -0.9914
vn 0.3827 -0.0000 -0.9239
vn 0.6088 -0.0000 -0.7934
vn 0.7934 -0.0000 -0.6088
vn 0.9239 -0.0000 -0.3827
vn 0.9914 -0.0000 -0.1305
vn 0.9914 -0.0000 0.1305
vn 0.9239 -0.0000 0.3827
vn 0.7934 -0.0000 0.6088
vn 0.6088 -0.0000 0.7934
vn 0.3827 -0.0000 0.9239
vn 0.1305 -0.0000 0.9914
vn -0.1305 -0.0000 0.9914
vn -0.3827 -0.0000 0.9239
vn -0.6088 -0.0000 0.7934
vn -0.7934 -0.0000 0.6088
vn -0.9239 -0.0000 0.3827
vn -0.9914 -0.0000 0.1305
vn -0.9914 -0.0000 -0.1305
vn -0.9239 -0.0000 -0.3827
vn -0.7934 -0.0000 -0.6088
vn -0.6088 -0.0000 -0.7934
vn -0.0000 1.0000 -0.0000
vn -0.3827 -0.0000 -0.9239
vn -0.1305 -0.0000 -0.9914
vn -0.0000 -1.0000 -0.0000
vn 0.7933 -0.0000 0.6088
vn 0.7933 -0.0000 -0.6088
vn 0.6088 -0.0000 -0.7933
vn -0.6088 -0.0000 -0.7933
vt 1.000000 0.500000
vt 1.000000 1.000000
vt 0.958333 1.000000
vt 0.958333 0.500000
vt 0.916667 1.000000
vt 0.916667 0.500000
vt 0.875000 1.000000
vt 0.875000 0.500000
vt 0.833333 1.000000
vt 0.833333 0.500000
vt 0.791667 1.000000
vt 0.791667 0.500000
vt 0.750000 1.000000
vt 0.750000 0.500000
vt 0.708333 1.000000
vt 0.708333 0.500000
vt 0.666667 1.000000
vt 0.666667 0.500000
vt 0.625000 1.000000
vt 0.625000 0.500000
vt 0.583333 1.000000
vt 0.583333 0.500000
vt 0.541666 1.000000
vt 0.541666 0.500000
vt 0.500000 1.000000
vt 0.500000 0.500000
vt 0.458333 1.000000
vt 0.458333 0.500000
vt 0.416666 1.000000
vt 0.416666 0.500000
vt 0.375000 1.000000
vt 0.375000 0.500000
vt 0.333333 1.000000
vt 0.333333 0.500000
vt 0.291667 1.000000
vt 0.291667 0.500000
vt 0.250000 1.000000
vt 0.250000 0.500000
vt 0.208333 1.000000
vt 0.208333 0.500000
vt 0.166666 1.000000
vt 0.166666 0.500000
vt 0.125000 1.000000
vt 0.125000 0.500000
vt 0.083333 1.000000
vt 0.083333 0.500000
vt 0.312117 0.481822
vt 0.250000 0.490000
vt 0.187883 0.481822
vt 0.130000 0.457846
vt 0.080294 0.419706
vt 0.042154 0.370000
vt 0.018178 0.312117
vt 0.010000 0.250000
vt 0.018178 0.187883
vt 0.042154 0.130000
vt 0.080294 0.080294
vt 0.130000 0.042154
vt 0.187883 0.018178
vt 0.250000 0.010000
vt 0.312117 0.018178
vt 0.370000 0.042154
vt 0.419706 0.080294
vt 0.457846 0.130000
vt 0.481822 0.187883
vt 0.490000 0.250000
vt 0.481822 0.312117
vt 0.457846 0.370000
vt 0.419706 0.419706
vt 0.370000 0.457846
vt 0.041666 1.000000
vt 0.041666 0.500000
vt -0.000000 1.000000
vt -0.000000 0.500000
vt 0.750000 0.490000
vt 0.812117 0.481822
vt 0.870000 0.457846
vt 0.919706 0.419706
vt 0.957846 0.370000
vt 0.981822 0.312117
vt 0.990000 0.250000
vt 0.981822 0.187883
vt 0.957846 0.130000
vt 0.919706 0.080294
vt 0.870000 0.042154
vt 0.812117 0.018178
vt 0.750000 0.010000
vt 0.687883 0.018178
vt 0.630000 0.042154
vt 0.580294 0.080294
vt 0.542154 0.130000
vt 0.518178 0.187883
vt 0.510000 0.250000
vt 0.518178 0.312117
vt 0.542154 0.370000
vt 0.580294 0.419706
vt 0.630000 0.457846
vt 0.687883 0.481822
s 0
usemtl Material
f 969/485/7 970/486/7 972/487/7 971/488/7
f 971/488/8 972/487/8 974/489/8 973/490/8
f 973/490/9 974/489/9 976/491/9 975/492/9
f 975/492/10 976/491/10 978/493/10 977/494/10
f 977/494/11 978/493/11 980/495/11 979/496/11
f 979/496/12 980/495/12 982/497/12 981/498/12
f 981/498/13 982/497/13 984/499/13 983/500/13
f 983/500/14 984/499/14 986/501/14 985/502/14
f 985/502/15 986/501/15 988/503/15 987/504/15
f 987/504/16 988/503/16 990/505/16 989/506/16
f 989/506/17 990/505/17 992/507/17 991/508/17
f 991/508/18 992/507/18 994/509/18 993/510/18
f 993/510/19 994/509/19 996/511/19 995/512/19
f 995/512/20 996/511/20 998/513/20 997/514/20
f 997/514/21 998/513/21 1000/515/21 999/516/21
f 999/516/22 1000/515/22 1002/517/22 1001/518/22
f 1001/518/23 1002/517/23 1004/519/23 1003/520/23
f 1003/520/24 1004/519/24 1006/521/24 1005/522/24
f 1005/522/25 1006/521/25 1008/523/25 1007/524/25
f 1007/524/26 1008/523/26 1010/525/26 1009/526/26
f 1009/526/27 1010/525/27 1012/527/27 1011/528/27
f 1011/528/28 1012/527/28 1014/529/28 1013/530/28
f 972/531/29 970/532/29 1016/533/29 1014/534/29 1012/535/29 1010/536/29 1008/537/29 1006/538/29 1004/539/29 1002/540/29 1000/541/29 998/542/29 996/543/29 994/544/29 992/545/29 990/546/29 988/547/29 986/548/29 984/549/29 982/550/29 980/551/29 978/552/29 976/553/29 974/554/29
f 1013/530/30 1014/529/30 1016/555/30 1015/556/30
f 1015/556/31 1016/555/31 970/557/31 969/558/31
f 969/559/32 971/560/32 973/561/32 975/562/32 977/563/32 979/564/32 981/565/32 983/566/32 985/567/32 987/568/32 989/569/32 991/570/32 993/571/32 995/572/32 997/573/32 999/574/32 1001/575/32 1003/576/32 1005/577/32 1007/578/32 1009/579/32 1011/580/32 1013/581/32 1015/582/32
f 1017/485/31 1019/488/31 1020/487/31 1018/486/31
f 1019/488/30 1021/490/30 1022/489/30 1020/487/30
f 1021/490/28 1023/492/28 1024/491/28 1022/489/28
f 1023/492/27 1025/494/27 1026/493/27 1024/491/27
f 1025/494/26 1027/496/26 1028/495/26 1026/493/26
f 1027/496/25 1029/498/25 1030/497/25 1028/495/25
f 1029/498/24 1031/500/24 1032/499/24 1030/497/24
f 1031/500/23 1033/502/23 1034/501/23 1032/499/23
f 1033/502/22 1035/504/22 1036/503/22 1034/501/22
f 1035/504/21 1037/506/21 1038/505/21 1036/503/21
f 1037/506/20 1039/508/20 1040/507/20 1038/505/20
f 1039/508/19 1041/510/19 1042/509/19 1040/507/19
f 1041/510/18 1043/512/18 1044/511/18 1042/509/18
f 1043/512/17 1045/514/17 1046/513/17 1044/511/17
f 1045/514/16 1047/516/16 1048/515/16 1046/513/16
f 1047/516/33 1049/518/33 1050/517/33 1048/515/33
f 1049/518/14 1051/520/14 1052/519/14 1050/517/14
f 1051/520/13 1053/522/13 1054/521/13 1052/519/13
f 1053/522/12 1055/524/12 1056/523/12 1054/521/12
f 1055/524/11 1057/526/11 1058/525/11 1056/523/11
f 1057/526/34 1059/528/34 1060/527/34 1058/525/34
f 1059/528/9 1061/530/9 1062/529/9 1060/527/9
f 1020/531/29 1022/554/29 1024/553/29 1026/552/29 1028/551/29 1030/550/29 1032/549/29 1034/548/29 1036/547/29 1038/546/29 1040/545/29 1042/544/29 1044/543/29 1046/542/29 1048/541/29 1050/540/29 1052/539/29 1054/538/29 1056/537/29 1058/536/29 1060/535/29 1062/534/29 1064/533/29 1018/532/29
f 1061/530/8 1063/556/8 1064/555/8 1062/529/8
f 1063/556/7 1017/558/7 1018/557/7 1064/555/7
f 1017/559/32 1063/582/32 1061/581/32 1059/580/32 1057/579/32 1055/578/32 1053/577/32 1051/576/32 1049/575/32 1047/574/32 1045/573/32 1043/572/32 1041/571/32 1039/570/32 1037/569/32 1035/568/32 1033/567/32 1031/566/32 1029/565/32 1027/564/32 1025/563/32 1023/562/32 1021/561/32 1019/560/32
f 1065/485/18 1067/488/18 1068/487/18 1066/486/18
f 1067/488/17 1069/490/17 1070/489/17 1068/487/17
f 1069/490/16 1071/492/16 1072/491/16 1070/489/16
f 1071/492/15 1073/494/15 1074/493/15 1072/491/15
f 1073/494/14 1075/496/14 1076/495/14 1074/493/14
f 1075/496/13 1077/498/13 1078/497/13 1076/495/13
f 1077/498/12 1079/500/12 1080/499/12 1078/497/12
f 1079/500/11 1081/502/11 1082/501/11 1080/499/11
f 1081/502/34 1083/504/34 1084/503/34 1082/501/34
f 1083/504/35 1085/506/35 1086/505/35 1084/503/35
f 1085/506/8 1087/508/8 1088/507/8 1086/505/8
f 1087/508/7 1089/510/7 1090/509/7 1088/507/7
f 1089/510/31 1091/512/31 1092/511/31 1090/509/31
f 1091/512/30 1093/514/30 1094/513/30 1092/511/30
f 1093/514/36 1095/516/36 1096/515/36 1094/513/36
f 1095/516/27 1097/518/27 1098/517/27 1096/515/27
f 1097/518/26 1099/520/26 1100/519/26 1098/517/26
f 1099/520/25 1101/522/25 1102/521/25 1100/519/25
f 1101/522/24 1103/524/24 1104/523/24 1102/521/24
f 1103/524/23 1105/526/23 1106/525/23 1104/523/23
f 1105/526/22 1107/528/22 1108/527/22 1106/525/22
f 1107/528/21 1109/530/21 1110/529/21 1108/527/21
f 1068/531/29 1070/554/29 1072/553/29 1074/552/29 1076/551/29 1078/550/29 1080/549/29 1082/548/29 1084/547/29 1086/546/29 1088/545/29 1090/544/29 1092/543/29 1094/542/29 1096/541/29 1098/540/29 1100/539/29 1102/538/29 1104/537/29 1106/536/29 1108/535/29 1110/534/29 1112/533/29 1066/532/29
f 1109/530/20 1111/556/20 1112/555/20 1110/529/20
f 1111/556/19 1065/558/19 1066/557/19 1112/555/19
f 1065/559/32 1111/582/32 1109/581/32 1107/580/32 1105/579/32 1103/578/32 1101/577/32 1099/576/32 1097/575/32 1095/574/32 1093/573/32 1091/572/32 1089/571/32 1087/570/32 1085/569/32 1083/568/32 1081/567/32 1079/566/32 1077/565/32 1075/564/32 1073/563/32 1071/562/32 1069/561/32 1067/560/32
f 1113/485/19 1114/486/19 1116/487/19 1115/488/19
f 1115/488/20 1116/487/20 1118/489/20 1117/490/20
f 1117/490/21 1118/489/21 1120/491/21 1119/492/21
f 1119/492/22 1120/491/22 1122/493/22 1121/494/22
f 1121/494/23 1122/493/23 1124/495/23 1123/496/23
f 1123/496/24 1124/495/24 1126/497/24 1125/498/24
f 1125/498/25 1126/497/25 1128/499/25 1127/500/25
f 1127/500/26 1128/499/26 1130/501/26 1129/502/26
f 1129/502/27 1130/501/27 1132/503/27 1131/504/27
f 1131/504/28 1132/503/28 1134/505/28 1133/506/28
f 1133/506/30 1134/505/30 1136/507/30 1135/508/30
f 1135/508/31 1136/507/31 1138/509/31 1137/510/31
f 1137/510/7 1138/509/7 1140/511/7 1139/512/7
f 1139/512/8 1140/511/8 1142/513/8 1141/514/8
f 1141/514/9 1142/513/9 1144/515/9 1143/516/9
f 1143/516/10 1144/515/10 1146/517/10 1145/518/10
f 1145/518/11 1146/517/11 1148/519/11 1147/520/11
f 1147/520/12 1148/519/12 1150/521/12 1149/522/12
f 1149/522/13 1150/521/13 1152/523/13 1151/524/13
f 1151/524/14 1152/523/14 1154/525/14 1153/526/14
f 1153/526/15 1154/525/15 1156/527/15 1155/528/15
f 1155/528/16 1156/527/16 1158/529/16 1157/530/16
f 1116/531/29 1114/532/29 1160/533/29 1158/534/29 1156/535/29 1154/536/29 1152/537/29 1150/538/29 1148/539/29 1146/540/29 1144/541/29 1142/542/29 1140/543/29 1138/544/29 1136/545/29 1134/546/29 1132/547/29 1130/548/29 1128/549/29 1126/550/29 1124/551/29 1122/552/29 1120/553/29 1118/554/29
f 1157/530/17 1158/529/17 1160/555/17 1159/556/17
f 1159/556/18 1160/555/18 1114/557/18 1113/558/18
f 1113/559/32 1115/560/32 1117/561/32 1119/562/32 1121/563/32 1123/564/32 1125/565/32 1127/566/32 1129/567/32 1131/568/32 1133/569/32 1135/570/32 1137/571/32 1139/572/32 1141/573/32 1143/574/32 1145/575/32 1147/576/32 1149/577/32 1151/578/32 1153/579/32 1155/580/32 1157/581/32 1159/582/32
